<?xml version="1.0" encoding="UTF-8"?>
<svg xmlns="http://www.w3.org/2000/svg" viewBox="0 0 621.87 119.19">
  <g id="Laag_9" data-name="Laag 9">
    <path d="m0,0h17.05c-.51,4.43-4.09,7.84-8.53,7.84S.34,4.43,0,0Z" style="fill: #761e35; stroke-width: 0px;"/>
    <path d="m0,17.05v-4.77h2.9v-3.41h11.25v3.41h5.8v-3.41h11.25v3.41h2.73v4.77h-16.88c-.51,4.43-4.09,7.84-8.53,7.84S.34,21.48,0,17.05Z" style="fill: #761e35; stroke-width: 0px;"/>
    <path d="m0,34.1v-4.77h2.9v-3.58h11.25v3.58h2.9v4.77c-.51,4.43-4.09,7.84-8.53,7.84S.34,38.54,0,34.1Z" style="fill: #761e35; stroke-width: 0px;"/>
    <path d="m0,51.15v-4.77h2.9v-3.58h11.25v3.58h2.9v4.77c-.51,4.43-4.09,7.84-8.53,7.84S.34,55.59,0,51.15Z" style="fill: #761e35; stroke-width: 0px;"/>
    <path d="m0,63.43h2.9v-3.58h11.25v3.58h2.9v4.77c-.51,4.43-4.09,7.84-8.53,7.84s-8.19-3.58-8.53-7.84v-4.77Z" style="fill: #761e35; stroke-width: 0px;"/>
    <path d="m33.93,80.31v4.94h-16.88c-.51,4.26-4.09,7.84-8.53,7.84s-8.19-3.58-8.53-7.84v-4.94h2.9v-3.41h11.25v3.41h5.8v-3.41h11.25v3.41h2.73Z" style="fill: #761e35; stroke-width: 0px;"/>
    <path d="m17.05,97.37v4.94c-.51,4.26-4.09,7.67-8.53,7.67s-8.19-3.41-8.53-7.67v-4.94h2.9v-3.41h11.25v3.41h2.9Z" style="fill: #761e35; stroke-width: 0px;"/>
    <polygon points="17.05 114.42 17.05 119.19 0 119.19 0 114.42 2.9 114.42 2.9 111.01 14.15 111.01 14.15 114.42 17.05 114.42" style="fill: #761e35; stroke-width: 0px;"/>
    <path d="m33.93,0c-.34,4.43-3.92,7.84-8.53,7.84s-8.01-3.41-8.36-7.84h16.88Z" style="fill: #761e35; stroke-width: 0px;"/>
    <path d="m33.93,68.21c-.34,4.26-3.92,7.84-8.35,7.84s-8.19-3.41-8.53-7.84h16.88Z" style="fill: #761e35; stroke-width: 0px;"/>
    <path d="m50.98,17.05c-.34,4.43-3.92,7.84-8.53,7.84s-8.01-3.41-8.53-7.84h17.05Z" style="fill: #761e35; stroke-width: 0px;"/>
    <path d="m50.98,29.33v4.77c-.34,4.43-3.92,7.84-8.53,7.84s-8.01-3.41-8.53-7.84v-4.77h2.9v-3.58h11.42v3.58h2.73Z" style="fill: #761e35; stroke-width: 0px;"/>
    <path d="m50.98,46.38v4.77c-.34,4.43-3.92,7.84-8.53,7.84s-8.01-3.41-8.53-7.84v-4.77h2.9v-3.58h11.42v3.58h2.73Z" style="fill: #761e35; stroke-width: 0px;"/>
    <polygon points="50.98 63.43 50.98 68.21 33.93 68.21 33.93 63.43 36.83 63.43 36.83 59.85 48.26 59.85 48.26 63.43 50.98 63.43" style="fill: #761e35; stroke-width: 0px;"/>
  </g>
  <g id="Laag_8" data-name="Laag 8">
    <path d="m85.09,17.22c-.51,4.26-4.09,7.84-8.53,7.84s-8.19-3.58-8.53-7.84h17.05Z" style="fill: #761e35; stroke-width: 0px;"/>
    <path d="m85.09,29.33v4.95c-.51,4.26-4.09,7.67-8.53,7.67s-8.19-3.41-8.53-7.67v-4.95h2.9v-3.41h11.25v3.41h2.9Z" style="fill: #761e35; stroke-width: 0px;"/>
    <path d="m85.09,46.38v4.77c-.51,4.43-4.09,7.84-8.53,7.84s-8.19-3.41-8.53-7.84v-4.77h2.9v-3.41h11.25v3.41h2.9Z" style="fill: #761e35; stroke-width: 0px;"/>
    <path d="m85.09,63.43v4.77c-.51,4.43-4.09,7.84-8.53,7.84s-8.19-3.41-8.53-7.84v-4.77h2.9v-3.41h11.25v3.41h2.9Z" style="fill: #761e35; stroke-width: 0px;"/>
    <polygon points="85.09 80.48 85.09 85.26 68.03 85.26 68.03 80.48 70.93 80.48 70.93 77.07 82.19 77.07 82.19 80.48 85.09 80.48" style="fill: #761e35; stroke-width: 0px;"/>
    <path d="m85.09.17h17.05c-.51,4.26-4.09,7.84-8.53,7.84s-8.19-3.58-8.53-7.84Z" style="fill: #761e35; stroke-width: 0px;"/>
    <polygon points="102.14 12.28 102.14 17.22 85.09 17.22 85.09 12.28 87.98 12.28 87.98 8.87 99.24 8.87 99.24 12.28 102.14 12.28" style="fill: #761e35; stroke-width: 0px;"/>
  </g>
  <g id="Laag_7" data-name="Laag 7">
    <path d="m114.93,17.22h17.05c-.34,4.26-4.09,7.84-8.53,7.84s-8.01-3.58-8.53-7.84Z" style="fill: #761e35; stroke-width: 0px;"/>
    <path d="m114.93,34.27v-4.95h2.9v-3.41h11.25v3.41h2.9v4.95c-.34,4.26-4.09,7.67-8.53,7.67s-8.01-3.41-8.53-7.67Z" style="fill: #761e35; stroke-width: 0px;"/>
    <path d="m114.93,51.15v-4.77h2.9v-3.41h11.25v3.41h2.9v4.77c-.34,4.43-4.09,7.84-8.53,7.84s-8.01-3.41-8.53-7.84Z" style="fill: #761e35; stroke-width: 0px;"/>
    <polygon points="114.93 63.43 117.82 63.43 117.82 60.02 129.08 60.02 129.08 63.43 131.98 63.43 131.98 68.21 114.93 68.21 114.93 63.43" style="fill: #761e35; stroke-width: 0px;"/>
    <path d="m131.98.17h17.05c-.34,4.26-4.09,7.84-8.53,7.84s-8.19-3.58-8.53-7.84Z" style="fill: #761e35; stroke-width: 0px;"/>
    <polygon points="131.98 12.28 134.88 12.28 134.88 8.87 146.13 8.87 146.13 12.28 149.03 12.28 149.03 17.22 131.98 17.22 131.98 12.28" style="fill: #761e35; stroke-width: 0px;"/>
    <path d="m149.03,68.21c-.34,4.43-4.09,7.84-8.53,7.84s-8.19-3.41-8.53-7.84h17.05Z" style="fill: #761e35; stroke-width: 0px;"/>
    <polygon points="149.03 80.48 149.03 85.26 131.98 85.26 131.98 80.48 134.88 80.48 134.88 77.07 146.13 77.07 146.13 80.48 149.03 80.48" style="fill: #761e35; stroke-width: 0px;"/>
    <path d="m166.08,17.22c-.34,4.26-4.09,7.84-8.53,7.84s-8.19-3.58-8.53-7.84h17.05Z" style="fill: #761e35; stroke-width: 0px;"/>
    <path d="m166.08,29.33v4.95c-.51,4.26-4.09,7.67-8.53,7.67s-8.19-3.41-8.53-7.67v-4.95h2.9v-3.41h11.25v3.41h2.9Z" style="fill: #761e35; stroke-width: 0px;"/>
    <path d="m166.08,46.38v4.77c-.34,4.43-4.09,7.84-8.53,7.84s-8.19-3.41-8.53-7.84v-4.77h2.9v-3.41h11.25v3.41h2.9Z" style="fill: #761e35; stroke-width: 0px;"/>
    <polygon points="166.08 63.43 166.08 68.21 149.03 68.21 149.03 63.43 151.93 63.43 151.93 60.02 163.18 60.02 163.18 63.43 166.08 63.43" style="fill: #761e35; stroke-width: 0px;"/>
  </g>
  <g id="Laag_6" data-name="Laag 6">
    <path d="m183.13,17.22h17.05c-.34,4.26-4.09,7.84-8.53,7.84s-8.19-3.58-8.53-7.84Z" style="fill: #761e35; stroke-width: 0px;"/>
    <path d="m183.13,34.27v-4.95h2.9v-3.41h11.25v3.41h2.9v4.95c-.34,4.26-4.09,7.67-8.53,7.67s-8.19-3.41-8.53-7.67Z" style="fill: #761e35; stroke-width: 0px;"/>
    <polygon points="200.18 51.15 183.13 51.15 183.13 46.38 186.03 46.38 186.03 42.97 197.28 42.97 197.28 46.38 200.18 46.38 200.18 51.15" style="fill: #761e35; stroke-width: 0px;"/>
    <path d="m183.13,85.26h17.05c-.34,4.43-4.09,7.84-8.53,7.84s-8.19-3.41-8.53-7.84Z" style="fill: #761e35; stroke-width: 0px;"/>
    <polygon points="217.23 97.54 217.23 102.31 183.13 102.31 183.13 97.54 186.03 97.54 186.03 94.12 197.28 94.12 197.28 97.54 203.08 97.54 203.08 94.12 214.34 94.12 214.34 97.54 217.23 97.54" style="fill: #761e35; stroke-width: 0px;"/>
    <path d="m200.18.17h17.05c-.51,4.26-4.09,7.84-8.53,7.84s-8.19-3.58-8.53-7.84Z" style="fill: #761e35; stroke-width: 0px;"/>
    <polygon points="200.18 12.28 203.08 12.28 203.08 8.87 214.34 8.87 214.34 12.28 217.23 12.28 217.23 17.22 200.18 17.22 200.18 12.28" style="fill: #761e35; stroke-width: 0px;"/>
    <path d="m234.29,46.38v4.77c-.51,4.43-4.09,7.84-8.53,7.84s-8.19-3.41-8.53-7.67c-.51,4.26-4.09,7.67-8.53,7.67s-8.19-3.41-8.53-7.84h17.05v-4.77h2.9v-3.41h11.25v3.41h2.9Z" style="fill: #761e35; stroke-width: 0px;"/>
    <path d="m234.29,63.43v4.77c-.51,4.43-4.09,7.84-8.53,7.84s-8.19-3.41-8.53-7.84h-17.05v-4.77h2.9v-3.41h11.25v3.41h5.8v-3.41h11.25v3.41h2.9Z" style="fill: #761e35; stroke-width: 0px;"/>
    <path d="m217.23,85.26c-.34,4.43-4.09,7.84-8.53,7.84s-8.19-3.41-8.53-7.84h17.05Z" style="fill: #761e35; stroke-width: 0px;"/>
    <path d="m217.23,17.22h17.05c-.51,4.26-4.09,7.84-8.53,7.84s-8.19-3.58-8.53-7.84Z" style="fill: #761e35; stroke-width: 0px;"/>
    <path d="m234.29,29.33v4.95c-.51,4.26-4.09,7.67-8.53,7.67s-8.19-3.41-8.53-7.67v-4.95h2.9v-3.41h11.25v3.41h2.9Z" style="fill: #761e35; stroke-width: 0px;"/>
    <polygon points="234.29 80.48 234.29 85.26 217.23 85.26 217.23 80.48 220.13 80.48 220.13 77.07 231.39 77.07 231.39 80.48 234.29 80.48" style="fill: #761e35; stroke-width: 0px;"/>
  </g>
  <g id="Laag_5" data-name="Laag 5">
    <path d="m268.39,17.22c-.51,4.26-4.09,7.84-8.53,7.84s-8.19-3.58-8.53-7.84h17.05Z" style="fill: #761e35; stroke-width: 0px;"/>
    <path d="m268.39,29.33v4.95c-.51,4.26-4.09,7.67-8.53,7.67s-8.19-3.41-8.53-7.67v-4.95h2.9v-3.41h11.25v3.41h2.9Z" style="fill: #761e35; stroke-width: 0px;"/>
    <path d="m268.39,46.38v4.77c-.51,4.43-4.09,7.84-8.53,7.84s-8.19-3.41-8.53-7.84v-4.77h2.9v-3.41h11.25v3.41h2.9Z" style="fill: #761e35; stroke-width: 0px;"/>
    <path d="m268.39,63.43v4.77c-.51,4.43-4.09,7.84-8.53,7.84s-8.19-3.41-8.53-7.84v-4.77h2.9v-3.41h11.25v3.41h2.9Z" style="fill: #761e35; stroke-width: 0px;"/>
    <polygon points="268.39 80.48 268.39 85.26 251.34 85.26 251.34 80.48 254.24 80.48 254.24 77.07 265.49 77.07 265.49 80.48 268.39 80.48" style="fill: #761e35; stroke-width: 0px;"/>
    <path d="m268.39.17h17.05c-.51,4.26-4.09,7.84-8.53,7.84s-8.19-3.58-8.53-7.84Z" style="fill: #761e35; stroke-width: 0px;"/>
    <polygon points="285.44 12.28 285.44 17.22 268.39 17.22 268.39 12.28 271.29 12.28 271.29 8.87 282.54 8.87 282.54 12.28 285.44 12.28" style="fill: #761e35; stroke-width: 0px;"/>
  </g>
  <g id="Laag_4" data-name="Laag 4">
    <path d="m298.23.17h17.05c-.34,4.26-4.09,7.67-8.53,7.67s-8.01-3.41-8.53-7.67Z" style="fill: #761e35; stroke-width: 0px;"/>
    <polygon points="298.23 12.28 301.13 12.28 301.13 8.87 312.38 8.87 312.38 12.28 315.28 12.28 318.18 12.28 318.18 8.87 329.43 8.87 329.43 12.28 332.33 12.28 332.33 17.05 298.23 17.05 298.23 12.28" style="fill: #761e35; stroke-width: 0px;"/>
    <path d="m298.23,34.1h17.05c-.34,4.43-4.09,7.84-8.53,7.84s-8.19-3.41-8.53-7.84Z" style="fill: #761e35; stroke-width: 0px;"/>
    <path d="m349.38,46.38v4.77c-.34,4.43-4.09,7.84-8.53,7.84s-8.19-3.41-8.53-7.84h-17.05c-.34,4.43-4.09,7.84-8.53,7.84s-8.01-3.41-8.53-7.84v-4.77h2.9v-3.41h11.25v3.41h5.8v-3.41h11.25v3.41h5.8v-3.41h11.25v3.41h2.9Z" style="fill: #761e35; stroke-width: 0px;"/>
    <polygon points="315.28 68.21 298.23 68.21 298.23 63.43 301.13 63.43 301.13 60.02 312.38 60.02 312.38 63.43 315.28 63.43 315.28 68.21" style="fill: #761e35; stroke-width: 0px;"/>
    <path d="m332.33.17c-.34,4.26-4.09,7.67-8.53,7.67s-8.19-3.41-8.53-7.67h17.05Z" style="fill: #761e35; stroke-width: 0px;"/>
    <path d="m349.38,29.33v4.77c-.51,4.43-4.09,7.84-8.53,7.84s-8.19-3.41-8.53-7.67c-.34,4.26-4.09,7.67-8.53,7.67s-8.19-3.41-8.53-7.84h17.05v-4.77h2.9v-3.41h11.25v3.41h2.9Z" style="fill: #761e35; stroke-width: 0px;"/>
    <path d="m332.33,68.21c-.34,4.43-4.09,7.84-8.53,7.84s-8.19-3.41-8.53-7.84h17.05Z" style="fill: #761e35; stroke-width: 0px;"/>
    <polygon points="349.38 80.48 349.38 85.26 332.33 85.26 315.28 85.26 315.28 80.48 318.18 80.48 318.18 76.9 329.43 76.9 329.43 80.48 332.33 80.48 335.23 80.48 335.23 76.9 346.48 76.9 346.48 80.48 349.38 80.48" style="fill: #761e35; stroke-width: 0px;"/>
    <path d="m349.38,17.05c-.34,4.43-4.09,7.84-8.53,7.84s-8.19-3.41-8.53-7.84h17.05Z" style="fill: #761e35; stroke-width: 0px;"/>
    <path d="m349.38,63.43v4.77c-.51,4.43-4.09,7.84-8.53,7.84s-8.19-3.41-8.53-7.84v-4.77h2.9v-3.41h11.25v3.41h2.9Z" style="fill: #761e35; stroke-width: 0px;"/>
  </g>
  <g id="Laag_3" data-name="Laag 3">
    <path d="m366.43.17h17.05c-.51,4.26-4.09,7.84-8.53,7.84s-8.19-3.58-8.53-7.84Z" style="fill: #761e35; stroke-width: 0px;"/>
    <path d="m386.38,12.28v-3.41h11.25v3.41h2.9v4.95h-17.05c-.34,4.26-4.09,7.84-8.53,7.84s-8.19-3.58-8.53-7.84v-4.95h2.9v-3.41h11.25v3.41h5.8Z" style="fill: #761e35; stroke-width: 0px;"/>
    <path d="m383.48,29.33v4.95c-.51,4.26-4.09,7.67-8.53,7.67s-8.19-3.41-8.53-7.67v-4.95h2.9v-3.41h11.25v3.41h2.9Z" style="fill: #761e35; stroke-width: 0px;"/>
    <path d="m383.48,46.38v4.77c-.34,4.43-4.09,7.84-8.53,7.84s-8.19-3.41-8.53-7.84v-4.77h2.9v-3.41h11.25v3.41h2.9Z" style="fill: #761e35; stroke-width: 0px;"/>
    <path d="m383.48,63.43v4.77c-.51,4.43-4.09,7.84-8.53,7.84s-8.19-3.41-8.53-7.84v-4.77h2.9v-3.41h11.25v3.41h2.9Z" style="fill: #761e35; stroke-width: 0px;"/>
    <polygon points="383.48 80.48 383.48 85.26 366.43 85.26 366.43 80.48 369.33 80.48 369.33 77.07 380.59 77.07 380.59 80.48 383.48 80.48" style="fill: #761e35; stroke-width: 0px;"/>
    <path d="m400.54.17c-.51,4.26-4.09,7.84-8.53,7.84s-8.19-3.58-8.53-7.84h17.05Z" style="fill: #761e35; stroke-width: 0px;"/>
    <path d="m409.06,25.07c-4.6,0-8.19-3.58-8.53-7.84h17.05c-.51,4.26-4.09,7.84-8.53,7.84Z" style="fill: #761e35; stroke-width: 0px;"/>
    <path d="m417.59,29.33v4.95c-.51,4.26-4.09,7.67-8.53,7.67s-8.19-3.41-8.53-7.67v-4.95h2.9v-3.41h11.25v3.41h2.9Z" style="fill: #761e35; stroke-width: 0px;"/>
    <path d="m417.59,46.38v4.77c-.51,4.43-4.09,7.84-8.53,7.84s-8.19-3.41-8.53-7.84v-4.77h2.9v-3.41h11.25v3.41h2.9Z" style="fill: #761e35; stroke-width: 0px;"/>
    <path d="m417.59,63.43v4.77c-.51,4.43-4.09,7.84-8.53,7.84s-8.19-3.41-8.53-7.84v-4.77h2.9v-3.41h11.25v3.41h2.9Z" style="fill: #761e35; stroke-width: 0px;"/>
    <polygon points="417.59 80.48 417.59 85.26 400.54 85.26 400.54 80.48 403.44 80.48 403.44 77.07 414.69 77.07 414.69 80.48 417.59 80.48" style="fill: #761e35; stroke-width: 0px;"/>
    <path d="m417.59.17h17.05c-.51,4.26-4.09,7.84-8.53,7.84s-8.18-3.58-8.53-7.84Z" style="fill: #761e35; stroke-width: 0px;"/>
    <path d="m417.59,12.28h2.9v-3.41h11.25v3.41h2.9v4.95h16.88c-.34,4.26-3.92,7.84-8.53,7.84s-8.01-3.58-8.53-7.84h-16.88v-4.95Z" style="fill: #761e35; stroke-width: 0px;"/>
    <path d="m451.52,29.33v4.95c-.34,4.26-3.92,7.67-8.53,7.67s-8.01-3.41-8.53-7.67v-4.95h2.9v-3.41h11.42v3.41h2.73Z" style="fill: #761e35; stroke-width: 0px;"/>
    <path d="m451.52,46.38v4.77c-.34,4.43-3.92,7.84-8.53,7.84s-8.01-3.41-8.53-7.84v-4.77h2.9v-3.41h11.42v3.41h2.73Z" style="fill: #761e35; stroke-width: 0px;"/>
    <path d="m451.52,63.43v4.77c-.34,4.43-3.92,7.84-8.53,7.84s-8.01-3.41-8.53-7.84v-4.77h2.9v-3.41h11.42v3.41h2.73Z" style="fill: #761e35; stroke-width: 0px;"/>
    <polygon points="451.52 80.48 451.52 85.26 434.47 85.26 434.47 80.48 437.37 80.48 437.37 77.07 448.79 77.07 448.79 80.48 451.52 80.48" style="fill: #761e35; stroke-width: 0px;"/>
  </g>
  <g id="Laag_2" data-name="Laag 2">
    <path d="m468.57.17h17.05c-.51,4.26-4.09,7.84-8.53,7.84s-8.19-3.58-8.53-7.84Z" style="fill: #761e35; stroke-width: 0px;"/>
    <path d="m488.52,12.28v-3.41h11.25v3.41h2.9v4.95h-17.05c-.34,4.26-4.09,7.84-8.53,7.84s-8.19-3.58-8.53-7.84v-4.95h2.9v-3.41h11.25v3.41h5.8Z" style="fill: #761e35; stroke-width: 0px;"/>
    <path d="m485.62,29.33v4.95c-.51,4.26-4.09,7.67-8.53,7.67s-8.19-3.41-8.53-7.67v-4.95h2.9v-3.41h11.25v3.41h2.9Z" style="fill: #761e35; stroke-width: 0px;"/>
    <path d="m485.62,46.38v4.77c-.34,4.43-4.09,7.84-8.53,7.84s-8.19-3.41-8.53-7.84v-4.77h2.9v-3.41h11.25v3.41h2.9Z" style="fill: #761e35; stroke-width: 0px;"/>
    <path d="m485.62,63.43v4.77c-.51,4.43-4.09,7.84-8.53,7.84s-8.19-3.41-8.53-7.84v-4.77h2.9v-3.41h11.25v3.41h2.9Z" style="fill: #761e35; stroke-width: 0px;"/>
    <polygon points="485.62 80.48 485.62 85.26 468.57 85.26 468.57 80.48 471.47 80.48 471.47 77.07 482.73 77.07 482.73 80.48 485.62 80.48" style="fill: #761e35; stroke-width: 0px;"/>
    <path d="m502.68.17c-.51,4.26-4.09,7.84-8.53,7.84s-8.19-3.58-8.53-7.84h17.05Z" style="fill: #761e35; stroke-width: 0px;"/>
    <path d="m511.2,25.07c-4.6,0-8.19-3.58-8.53-7.84h17.05c-.51,4.26-4.09,7.84-8.53,7.84Z" style="fill: #761e35; stroke-width: 0px;"/>
    <path d="m519.73,29.33v4.95c-.51,4.26-4.09,7.67-8.53,7.67s-8.19-3.41-8.53-7.67v-4.95h2.9v-3.41h11.25v3.41h2.9Z" style="fill: #761e35; stroke-width: 0px;"/>
    <path d="m519.73,46.38v4.77c-.51,4.43-4.09,7.84-8.53,7.84s-8.19-3.41-8.53-7.84v-4.77h2.9v-3.41h11.25v3.41h2.9Z" style="fill: #761e35; stroke-width: 0px;"/>
    <path d="m519.73,63.43v4.77c-.51,4.43-4.09,7.84-8.53,7.84s-8.19-3.41-8.53-7.84v-4.77h2.9v-3.41h11.25v3.41h2.9Z" style="fill: #761e35; stroke-width: 0px;"/>
    <polygon points="519.73 80.48 519.73 85.26 502.68 85.26 502.68 80.48 505.57 80.48 505.57 77.07 516.83 77.07 516.83 80.48 519.73 80.48" style="fill: #761e35; stroke-width: 0px;"/>
    <path d="m519.73.17h17.05c-.51,4.26-4.09,7.84-8.53,7.84s-8.18-3.58-8.53-7.84Z" style="fill: #761e35; stroke-width: 0px;"/>
    <path d="m519.73,12.28h2.9v-3.41h11.25v3.41h2.9v4.95h16.88c-.34,4.26-3.92,7.84-8.53,7.84s-8.01-3.58-8.53-7.84h-16.88v-4.95Z" style="fill: #761e35; stroke-width: 0px;"/>
    <path d="m553.66,29.33v4.95c-.34,4.26-3.92,7.67-8.53,7.67s-8.01-3.41-8.53-7.67v-4.95h2.9v-3.41h11.42v3.41h2.73Z" style="fill: #761e35; stroke-width: 0px;"/>
    <path d="m553.66,46.38v4.77c-.34,4.43-3.92,7.84-8.53,7.84s-8.01-3.41-8.53-7.84v-4.77h2.9v-3.41h11.42v3.41h2.73Z" style="fill: #761e35; stroke-width: 0px;"/>
    <path d="m553.66,63.43v4.77c-.34,4.43-3.92,7.84-8.53,7.84s-8.01-3.41-8.53-7.84v-4.77h2.9v-3.41h11.42v3.41h2.73Z" style="fill: #761e35; stroke-width: 0px;"/>
    <polygon points="553.66 80.48 553.66 85.26 536.61 85.26 536.61 80.48 539.51 80.48 539.51 77.07 550.93 77.07 550.93 80.48 553.66 80.48" style="fill: #761e35; stroke-width: 0px;"/>
  </g>
  <g id="Laag_1" data-name="Laag 1">
    <path d="m570.71.17h17.05c-.34,4.26-4.09,7.67-8.53,7.67s-8.01-3.41-8.53-7.67Z" style="fill: #761e35; stroke-width: 0px;"/>
    <polygon points="570.71 12.28 573.61 12.28 573.61 8.87 584.87 8.87 584.87 12.28 587.76 12.28 590.66 12.28 590.66 8.87 601.92 8.87 601.92 12.28 604.82 12.28 604.82 17.05 570.71 17.05 570.71 12.28" style="fill: #761e35; stroke-width: 0px;"/>
    <path d="m570.71,34.1h17.05c-.34,4.43-4.09,7.84-8.53,7.84s-8.19-3.41-8.53-7.84Z" style="fill: #761e35; stroke-width: 0px;"/>
    <path d="m621.87,46.38v4.77c-.34,4.43-4.09,7.84-8.53,7.84s-8.19-3.41-8.53-7.84h-17.05c-.34,4.43-4.09,7.84-8.53,7.84s-8.01-3.41-8.53-7.84v-4.77h2.9v-3.41h11.25v3.41h5.8v-3.41h11.25v3.41h5.8v-3.41h11.25v3.41h2.9Z" style="fill: #761e35; stroke-width: 0px;"/>
    <polygon points="587.76 68.21 570.71 68.21 570.71 63.43 573.61 63.43 573.61 60.02 584.87 60.02 584.87 63.43 587.76 63.43 587.76 68.21" style="fill: #761e35; stroke-width: 0px;"/>
    <path d="m604.82.17c-.34,4.26-4.09,7.67-8.53,7.67s-8.19-3.41-8.53-7.67h17.05Z" style="fill: #761e35; stroke-width: 0px;"/>
    <path d="m621.87,29.33v4.77c-.51,4.43-4.09,7.84-8.53,7.84s-8.19-3.41-8.53-7.67c-.34,4.26-4.09,7.67-8.53,7.67s-8.19-3.41-8.53-7.84h17.05v-4.77h2.9v-3.41h11.25v3.41h2.9Z" style="fill: #761e35; stroke-width: 0px;"/>
    <path d="m604.82,68.21c-.34,4.43-4.09,7.84-8.53,7.84s-8.19-3.41-8.53-7.84h17.05Z" style="fill: #761e35; stroke-width: 0px;"/>
    <polygon points="621.87 80.48 621.87 85.26 604.82 85.26 587.76 85.26 587.76 80.48 590.66 80.48 590.66 76.9 601.92 76.9 601.92 80.48 604.82 80.48 607.71 80.48 607.71 76.9 618.97 76.9 618.97 80.48 621.87 80.48" style="fill: #761e35; stroke-width: 0px;"/>
    <path d="m621.87,17.05c-.34,4.43-4.09,7.84-8.53,7.84s-8.19-3.41-8.53-7.84h17.05Z" style="fill: #761e35; stroke-width: 0px;"/>
    <path d="m621.87,63.43v4.77c-.51,4.43-4.09,7.84-8.53,7.84s-8.19-3.41-8.53-7.84v-4.77h2.9v-3.41h11.25v3.41h2.9Z" style="fill: #761e35; stroke-width: 0px;"/>
  </g>
</svg>