<?xml version="1.0" encoding="UTF-8"?>
<svg xmlns="http://www.w3.org/2000/svg" viewBox="0 0 890.79 129.83">
  <g id="Laag_12" data-name="Laag 12">
    <path d="m0,55.72h18.57c-.37,4.64-4.46,8.36-9.29,8.36S.37,60.36,0,55.72Z" style="fill: #ff5113; stroke-width: 0px;"/>
    <path d="m0,74.11v-5.2h3.16v-3.71h12.26v3.71h3.16v5.2h18.57c-.37,4.83-4.46,8.54-9.29,8.54s-8.92-3.71-9.29-8.36c-.37,4.64-4.46,8.36-9.29,8.36S.37,78.94,0,74.11Z" style="fill: #ff5113; stroke-width: 0px;"/>
    <path d="m55.72,87.48v5.2c-.56,4.83-4.46,8.54-9.29,8.54s-8.92-3.71-9.29-8.54H0v-5.2h3.16v-3.71h12.26v3.71h6.31v-3.71h12.26v3.71h6.31v-3.71h12.26v3.71h3.16Z" style="fill: #ff5113; stroke-width: 0px;"/>
    <path d="m27.86,119.8c-4.83,0-8.92-3.71-9.29-8.54-.37,4.83-4.46,8.54-9.29,8.54S.37,116.09,0,111.26h37.15c-.37,4.83-4.46,8.54-9.29,8.54Z" style="fill: #ff5113; stroke-width: 0px;"/>
    <polygon points="37.15 124.63 37.15 129.83 18.57 129.83 0 129.83 0 124.63 3.16 124.63 3.16 120.92 15.42 120.92 15.42 124.63 18.57 124.63 21.73 124.63 21.73 120.92 33.99 120.92 33.99 124.63 37.15 124.63" style="fill: #ff5113; stroke-width: 0px;"/>
    <path d="m18.57,37.15h18.57c-.37,4.64-4.46,8.54-9.29,8.54s-8.92-3.9-9.29-8.54Z" style="fill: #ff5113; stroke-width: 0px;"/>
    <polygon points="18.57 50.33 21.73 50.33 21.73 46.62 33.99 46.62 33.99 50.33 40.31 50.33 40.31 46.62 52.56 46.62 52.56 50.33 55.72 50.33 55.72 55.72 18.57 55.72 18.57 50.33" style="fill: #ff5113; stroke-width: 0px;"/>
    <path d="m37.15,37.15h18.57c-.56,4.64-4.46,8.54-9.29,8.54s-8.92-3.9-9.29-8.54Z" style="fill: #ff5113; stroke-width: 0px;"/>
    <path d="m37.15,74.11h18.57c-.56,4.83-4.46,8.54-9.29,8.54s-8.92-3.71-9.29-8.54Z" style="fill: #ff5113; stroke-width: 0px;"/>
    <polygon points="37.15 106.06 40.31 106.06 40.31 102.34 52.56 102.34 52.56 106.06 55.72 106.06 55.72 111.26 37.15 111.26 37.15 106.06" style="fill: #ff5113; stroke-width: 0px;"/>
  </g>
  <g id="Laag_11" data-name="Laag 11">
    <path d="m74.3,0h18.39c-.37,4.64-4.27,8.54-9.1,8.54s-8.92-3.9-9.29-8.54Z" style="fill: #ff5113; stroke-width: 0px;"/>
    <path d="m74.3,18.57v-5.2h3.16v-3.9h12.26v3.9h2.97v5.2c-.37,4.64-4.27,8.54-9.1,8.54s-8.92-3.9-9.29-8.54Z" style="fill: #ff5113; stroke-width: 0px;"/>
    <path d="m74.3,37.15v-5.39h3.16v-3.71h12.26v3.71h2.97v5.2h18.57c-.37,4.83-4.27,8.54-9.29,8.54s-8.73-3.72-9.29-8.36c-.37,4.64-4.27,8.36-9.1,8.36s-8.92-3.72-9.29-8.36Z" style="fill: #ff5113; stroke-width: 0px;"/>
    <path d="m74.3,55.54v-5.2h3.16v-3.71h12.26v3.71h6.13v-3.71h12.44v3.71h2.97v5.2h-18.39c-.56,4.83-4.46,8.54-9.29,8.54s-8.92-3.72-9.29-8.54Z" style="fill: #ff5113; stroke-width: 0px;"/>
    <path d="m92.87,68.91v5.2c-.56,4.83-4.46,8.54-9.29,8.54s-8.92-3.71-9.29-8.54v-5.2h3.16v-3.71h12.26v3.71h3.16Z" style="fill: #ff5113; stroke-width: 0px;"/>
    <path d="m92.87,87.48v5.2c-.56,4.83-4.46,8.54-9.29,8.54s-8.92-3.71-9.29-8.54v-5.2h3.16v-3.71h12.26v3.71h3.16Z" style="fill: #ff5113; stroke-width: 0px;"/>
    <path d="m92.87,106.06v5.2c-.56,4.83-4.46,8.54-9.29,8.54s-8.92-3.71-9.29-8.54v-5.2h3.16v-3.71h12.26v3.71h3.16Z" style="fill: #ff5113; stroke-width: 0px;"/>
    <polygon points="92.87 124.63 92.87 129.83 74.3 129.83 74.3 124.63 77.45 124.63 77.45 120.73 89.71 120.73 89.71 124.63 92.87 124.63" style="fill: #ff5113; stroke-width: 0px;"/>
    <path d="m129.83,55.54c-.37,4.83-4.46,8.54-9.29,8.54s-8.73-3.72-9.29-8.54h18.57Z" style="fill: #ff5113; stroke-width: 0px;"/>
    <path d="m129.83,68.91v5.2c-.37,4.83-4.46,8.54-9.29,8.54s-8.73-3.71-9.29-8.54v-5.2h3.16v-3.71h12.26v3.71h3.16Z" style="fill: #ff5113; stroke-width: 0px;"/>
    <path d="m129.83,87.48v5.2c-.37,4.83-4.46,8.54-9.29,8.54s-8.73-3.71-9.29-8.54v-5.2h3.16v-3.71h12.26v3.71h3.16Z" style="fill: #ff5113; stroke-width: 0px;"/>
    <path d="m129.83,106.06v5.2c-.37,4.83-4.46,8.54-9.29,8.54s-8.73-3.71-9.29-8.54v-5.2h3.16v-3.71h12.26v3.71h3.16Z" style="fill: #ff5113; stroke-width: 0px;"/>
    <polygon points="129.83 124.63 129.83 129.83 111.26 129.83 111.26 124.63 114.41 124.63 114.41 120.73 126.67 120.73 126.67 124.63 129.83 124.63" style="fill: #ff5113; stroke-width: 0px;"/>
  </g>
  <g id="Laag_10" data-name="Laag 10">
    <path d="m148.4,55.72h18.57c-.37,4.64-4.46,8.54-9.29,8.54s-8.73-3.9-9.29-8.54Z" style="fill: #ff5113; stroke-width: 0px;"/>
    <path d="m148.4,74.3v-5.39h3.16v-3.71h12.26v3.71h3.16v5.39c-.37,4.64-4.46,8.36-9.29,8.36s-8.73-3.71-9.29-8.36Z" style="fill: #ff5113; stroke-width: 0px;"/>
    <path d="m148.4,92.68v-5.2h3.16v-3.71h12.26v3.71h3.16v5.2c-.37,4.83-4.46,8.54-9.29,8.54s-8.73-3.71-9.29-8.54Z" style="fill: #ff5113; stroke-width: 0px;"/>
    <polygon points="148.4 106.06 151.56 106.06 151.56 102.34 163.82 102.34 163.82 106.06 166.98 106.06 166.98 111.26 148.4 111.26 148.4 106.06" style="fill: #ff5113; stroke-width: 0px;"/>
    <path d="m166.98,37.15h18.57c-.37,4.64-4.46,8.54-9.29,8.54s-8.92-3.9-9.29-8.54Z" style="fill: #ff5113; stroke-width: 0px;"/>
    <polygon points="166.98 50.33 170.13 50.33 170.13 46.62 182.39 46.62 182.39 50.33 185.55 50.33 185.55 55.72 166.98 55.72 166.98 50.33" style="fill: #ff5113; stroke-width: 0px;"/>
    <path d="m185.55,111.26c-.37,4.83-4.46,8.54-9.29,8.54s-8.92-3.71-9.29-8.54h18.57Z" style="fill: #ff5113; stroke-width: 0px;"/>
    <polygon points="185.55 124.63 185.55 129.83 166.98 129.83 166.98 124.63 170.13 124.63 170.13 120.92 182.39 120.92 182.39 124.63 185.55 124.63" style="fill: #ff5113; stroke-width: 0px;"/>
    <path d="m204.12,55.72c-.37,4.64-4.46,8.54-9.29,8.54s-8.92-3.9-9.29-8.54h18.57Z" style="fill: #ff5113; stroke-width: 0px;"/>
    <path d="m204.12,68.91v5.39c-.56,4.64-4.46,8.36-9.29,8.36s-8.92-3.71-9.29-8.36v-5.39h3.16v-3.71h12.26v3.71h3.16Z" style="fill: #ff5113; stroke-width: 0px;"/>
    <path d="m204.12,87.48v5.2c-.37,4.83-4.46,8.54-9.29,8.54s-8.92-3.71-9.29-8.54v-5.2h3.16v-3.71h12.26v3.71h3.16Z" style="fill: #ff5113; stroke-width: 0px;"/>
    <polygon points="204.12 106.06 204.12 111.26 185.55 111.26 185.55 106.06 188.71 106.06 188.71 102.34 200.97 102.34 200.97 106.06 204.12 106.06" style="fill: #ff5113; stroke-width: 0px;"/>
  </g>
  <g id="Laag_9" data-name="Laag 9">
    <path d="m222.7,37.15h18.57c-.56,4.64-4.46,8.54-9.29,8.54s-8.92-3.9-9.29-8.54Z" style="fill: #ff5113; stroke-width: 0px;"/>
    <path d="m222.7,55.72v-5.2h3.16v-3.9h12.26v3.9h3.16v5.2c-.56,4.64-4.46,8.54-9.29,8.54s-8.92-3.9-9.29-8.54Z" style="fill: #ff5113; stroke-width: 0px;"/>
    <path d="m222.7,74.3v-5.39h3.16v-3.71h12.26v3.71h3.16v5.39c-.56,4.64-4.46,8.36-9.29,8.36s-8.92-3.71-9.29-8.36Z" style="fill: #ff5113; stroke-width: 0px;"/>
    <polygon points="222.7 87.48 225.85 87.48 225.85 83.77 238.11 83.77 238.11 87.48 241.27 87.48 241.27 92.87 222.7 92.87 222.7 87.48" style="fill: #ff5113; stroke-width: 0px;"/>
    <path d="m259.66,92.87c-.37,4.64-4.27,8.36-9.29,8.36s-8.73-3.71-9.1-8.36h18.39Z" style="fill: #ff5113; stroke-width: 0px;"/>
    <path d="m259.66,106.06v5.2c-.37,4.83-4.27,8.54-9.29,8.54s-8.73-3.71-9.1-8.54v-5.2h2.97v-3.71h12.44v3.71h2.97Z" style="fill: #ff5113; stroke-width: 0px;"/>
    <polygon points="259.66 124.63 259.66 129.83 241.27 129.83 241.27 124.63 244.24 124.63 244.24 120.92 256.69 120.92 256.69 124.63 259.66 124.63" style="fill: #ff5113; stroke-width: 0px;"/>
    <path d="m259.66,37.15h18.57c-.37,4.64-4.27,8.54-9.29,8.54s-8.73-3.9-9.29-8.54Z" style="fill: #ff5113; stroke-width: 0px;"/>
    <path d="m259.66,55.72v-5.2h3.16v-3.9h12.44v3.9h2.97v5.2c-.37,4.64-4.27,8.54-9.29,8.54s-8.73-3.9-9.29-8.54Z" style="fill: #ff5113; stroke-width: 0px;"/>
    <path d="m259.66,74.3v-5.39h3.16v-3.71h12.44v3.71h2.97v5.39c-.37,4.64-4.27,8.36-9.29,8.36s-8.73-3.71-9.29-8.36Z" style="fill: #ff5113; stroke-width: 0px;"/>
    <polygon points="278.23 92.87 259.66 92.87 259.66 87.48 262.82 87.48 262.82 83.77 275.26 83.77 275.26 87.48 278.23 87.48 278.23 92.87" style="fill: #ff5113; stroke-width: 0px;"/>
    <path d="m296.81,92.87c-.37,4.64-4.46,8.36-9.29,8.36s-8.73-3.71-9.29-8.36h18.57Z" style="fill: #ff5113; stroke-width: 0px;"/>
    <path d="m296.81,106.06v5.2c-.37,4.83-4.46,8.54-9.29,8.54s-8.73-3.71-9.29-8.54v-5.2h3.16v-3.71h12.26v3.71h3.16Z" style="fill: #ff5113; stroke-width: 0px;"/>
    <polygon points="296.81 124.63 296.81 129.83 278.23 129.83 278.23 124.63 281.39 124.63 281.39 120.92 293.65 120.92 293.65 124.63 296.81 124.63" style="fill: #ff5113; stroke-width: 0px;"/>
    <path d="m296.81,37.15h18.57c-.37,4.64-4.46,8.54-9.29,8.54s-8.73-3.9-9.29-8.54Z" style="fill: #ff5113; stroke-width: 0px;"/>
    <path d="m315.38,50.52v5.2c-.37,4.64-4.46,8.54-9.29,8.54s-8.73-3.9-9.29-8.54v-5.2h3.16v-3.9h12.26v3.9h3.16Z" style="fill: #ff5113; stroke-width: 0px;"/>
    <path d="m315.38,68.91v5.39c-.37,4.64-4.46,8.36-9.29,8.36s-8.73-3.71-9.29-8.36v-5.39h3.16v-3.71h12.26v3.71h3.16Z" style="fill: #ff5113; stroke-width: 0px;"/>
    <polygon points="315.38 87.48 315.38 92.87 296.81 92.87 296.81 87.48 299.96 87.48 299.96 83.77 312.22 83.77 312.22 87.48 315.38 87.48" style="fill: #ff5113; stroke-width: 0px;"/>
  </g>
  <g id="Laag_8" data-name="Laag 8">
    <path d="m389.68,55.54c-.56,4.83-4.46,8.54-9.29,8.54s-8.92-3.72-9.29-8.54h18.57Z" style="fill: #ff5113; stroke-width: 0px;"/>
    <path d="m371.1,74.11v-5.2h3.16v-3.71h12.26v3.71h3.16v5.2c-.56,4.83-4.46,8.54-9.29,8.54s-8.92-3.71-9.29-8.54Z" style="fill: #ff5113; stroke-width: 0px;"/>
    <path d="m371.1,92.68v-5.2h3.16v-3.71h12.26v3.71h3.16v5.2c-.56,4.83-4.46,8.54-9.29,8.54s-8.92-3.71-9.29-8.54Z" style="fill: #ff5113; stroke-width: 0px;"/>
    <polygon points="371.1 106.06 374.26 106.06 374.26 102.34 386.52 102.34 386.52 106.06 389.68 106.06 389.68 111.26 371.1 111.26 371.1 106.06" style="fill: #ff5113; stroke-width: 0px;"/>
    <path d="m389.68,36.96h18.39v-5.2h3.16v-3.71h12.44v3.71h2.97v5.2c-.37,4.83-4.27,8.54-9.29,8.54s-8.73-3.72-9.29-8.36c-.37,4.64-4.27,8.36-9.29,8.36s-8.73-3.72-9.1-8.54Z" style="fill: #ff5113; stroke-width: 0px;"/>
    <path d="m408.06,55.54h-18.39v-5.2h2.97v-3.71h12.44v3.71h6.13v-3.71h12.44v3.71h2.97v5.2c-.37,4.83-4.27,8.54-9.29,8.54s-8.73-3.72-9.29-8.54Z" style="fill: #ff5113; stroke-width: 0px;"/>
    <path d="m398.78,119.8c-4.83,0-8.73-3.71-9.1-8.54h18.39c-.37,4.83-4.27,8.54-9.29,8.54Z" style="fill: #ff5113; stroke-width: 0px;"/>
    <polygon points="426.64 124.63 426.64 129.83 389.68 129.83 389.68 124.63 392.65 124.63 392.65 120.73 405.09 120.73 405.09 124.63 411.22 124.63 411.22 120.73 423.67 120.73 423.67 124.63 426.64 124.63" style="fill: #ff5113; stroke-width: 0px;"/>
    <path d="m408.06,0h18.57c-.37,4.64-4.27,8.54-9.29,8.54s-8.73-3.9-9.29-8.54Z" style="fill: #ff5113; stroke-width: 0px;"/>
    <path d="m408.06,18.57v-5.2h3.16v-3.9h12.44v3.9h2.97v5.2c-.37,4.64-4.27,8.54-9.29,8.54s-8.73-3.9-9.29-8.54Z" style="fill: #ff5113; stroke-width: 0px;"/>
    <path d="m426.64,68.91v5.2c-.37,4.83-4.27,8.54-9.29,8.54s-8.73-3.71-9.29-8.54v-5.2h3.16v-3.71h12.44v3.71h2.97Z" style="fill: #ff5113; stroke-width: 0px;"/>
    <path d="m426.64,87.48v5.2c-.37,4.83-4.27,8.54-9.29,8.54s-8.73-3.71-9.29-8.54v-5.2h3.16v-3.71h12.44v3.71h2.97Z" style="fill: #ff5113; stroke-width: 0px;"/>
    <path d="m426.64,106.06v5.2c-.37,4.83-4.27,8.54-9.29,8.54s-8.73-3.71-9.29-8.54v-5.2h3.16v-3.71h12.44v3.71h2.97Z" style="fill: #ff5113; stroke-width: 0px;"/>
  </g>
  <g id="Laag_7" data-name="Laag 7">
    <path d="m445.21,55.72h18.57c-.37,4.64-4.46,8.54-9.29,8.54s-8.73-3.9-9.29-8.54Z" style="fill: #ff5113; stroke-width: 0px;"/>
    <path d="m445.21,74.3v-5.39h3.16v-3.71h12.26v3.71h3.16v5.39c-.37,4.64-4.46,8.36-9.29,8.36s-8.73-3.71-9.29-8.36Z" style="fill: #ff5113; stroke-width: 0px;"/>
    <path d="m445.21,92.68v-5.2h3.16v-3.71h12.26v3.71h3.16v5.2c-.37,4.83-4.46,8.54-9.29,8.54s-8.73-3.71-9.29-8.54Z" style="fill: #ff5113; stroke-width: 0px;"/>
    <polygon points="445.21 106.06 448.37 106.06 448.37 102.34 460.63 102.34 460.63 106.06 463.78 106.06 463.78 111.26 445.21 111.26 445.21 106.06" style="fill: #ff5113; stroke-width: 0px;"/>
    <path d="m463.78,37.15h18.57c-.37,4.64-4.46,8.54-9.29,8.54s-8.92-3.9-9.29-8.54Z" style="fill: #ff5113; stroke-width: 0px;"/>
    <polygon points="463.78 50.33 466.94 50.33 466.94 46.62 479.2 46.62 479.2 50.33 482.36 50.33 482.36 55.72 463.78 55.72 463.78 50.33" style="fill: #ff5113; stroke-width: 0px;"/>
    <path d="m482.36,111.26c-.37,4.83-4.46,8.54-9.29,8.54s-8.92-3.71-9.29-8.54h18.57Z" style="fill: #ff5113; stroke-width: 0px;"/>
    <polygon points="482.36 124.63 482.36 129.83 463.78 129.83 463.78 124.63 466.94 124.63 466.94 120.92 479.2 120.92 479.2 124.63 482.36 124.63" style="fill: #ff5113; stroke-width: 0px;"/>
    <path d="m500.93,55.72c-.37,4.64-4.46,8.54-9.29,8.54s-8.92-3.9-9.29-8.54h18.57Z" style="fill: #ff5113; stroke-width: 0px;"/>
    <path d="m500.93,68.91v5.39c-.56,4.64-4.46,8.36-9.29,8.36s-8.92-3.71-9.29-8.36v-5.39h3.16v-3.71h12.26v3.71h3.16Z" style="fill: #ff5113; stroke-width: 0px;"/>
    <path d="m500.93,87.48v5.2c-.37,4.83-4.46,8.54-9.29,8.54s-8.92-3.71-9.29-8.54v-5.2h3.16v-3.71h12.26v3.71h3.16Z" style="fill: #ff5113; stroke-width: 0px;"/>
    <polygon points="500.93 106.06 500.93 111.26 482.36 111.26 482.36 106.06 485.51 106.06 485.51 102.34 497.77 102.34 497.77 106.06 500.93 106.06" style="fill: #ff5113; stroke-width: 0px;"/>
  </g>
  <g id="Laag_6" data-name="Laag 6">
    <path d="m519.5,37.15h18.57c-.56,4.64-4.46,8.54-9.29,8.54s-8.92-3.9-9.29-8.54Z" style="fill: #ff5113; stroke-width: 0px;"/>
    <path d="m541.05,50.33v-3.71h12.44v3.71h2.97v5.39h-18.39c-.56,4.64-4.46,8.54-9.29,8.54s-8.92-3.9-9.29-8.54v-5.39h3.16v-3.71h12.26v3.71h6.13Z" style="fill: #ff5113; stroke-width: 0px;"/>
    <path d="m538.08,68.91v5.39c-.56,4.64-4.46,8.36-9.29,8.36s-8.92-3.71-9.29-8.36v-5.39h3.16v-3.71h12.26v3.71h3.16Z" style="fill: #ff5113; stroke-width: 0px;"/>
    <path d="m538.08,87.48v5.2c-.56,4.83-4.46,8.54-9.29,8.54s-8.92-3.71-9.29-8.54v-5.2h3.16v-3.71h12.26v3.71h3.16Z" style="fill: #ff5113; stroke-width: 0px;"/>
    <path d="m538.08,106.06v5.2c-.56,4.83-4.46,8.54-9.29,8.54s-8.92-3.71-9.29-8.54v-5.2h3.16v-3.71h12.26v3.71h3.16Z" style="fill: #ff5113; stroke-width: 0px;"/>
    <polygon points="538.08 124.63 538.08 129.83 519.5 129.83 519.5 124.63 522.66 124.63 522.66 120.92 534.92 120.92 534.92 124.63 538.08 124.63" style="fill: #ff5113; stroke-width: 0px;"/>
    <path d="m556.46,37.15c-.37,4.64-4.27,8.54-9.29,8.54s-8.73-3.9-9.1-8.54h18.39Z" style="fill: #ff5113; stroke-width: 0px;"/>
    <path d="m556.46,55.72h18.57c-.37,4.64-4.27,8.54-9.29,8.54s-8.73-3.9-9.29-8.54Z" style="fill: #ff5113; stroke-width: 0px;"/>
    <path d="m575.04,68.91v5.39c-.37,4.64-4.27,8.36-9.29,8.36s-8.73-3.71-9.29-8.36v-5.39h3.16v-3.71h12.44v3.71h2.97Z" style="fill: #ff5113; stroke-width: 0px;"/>
    <path d="m575.04,87.48v5.2c-.37,4.83-4.27,8.54-9.29,8.54s-8.73-3.71-9.29-8.54v-5.2h3.16v-3.71h12.44v3.71h2.97Z" style="fill: #ff5113; stroke-width: 0px;"/>
    <path d="m575.04,106.06v5.2c-.37,4.83-4.27,8.54-9.29,8.54s-8.73-3.71-9.29-8.54v-5.2h3.16v-3.71h12.44v3.71h2.97Z" style="fill: #ff5113; stroke-width: 0px;"/>
    <polygon points="575.04 124.63 575.04 129.83 556.46 129.83 556.46 124.63 559.62 124.63 559.62 120.92 572.07 120.92 572.07 124.63 575.04 124.63" style="fill: #ff5113; stroke-width: 0px;"/>
  </g>
  <g id="Laag_5" data-name="Laag 5">
    <path d="m588.97,55.72h18.57c-.37,4.64-4.46,8.54-9.29,8.54s-8.92-3.9-9.29-8.54Z" style="fill: #ff5113; stroke-width: 0px;"/>
    <path d="m644.69,68.91v5.39h-18.57c-.37,4.64-4.46,8.36-9.29,8.36s-8.92-3.71-9.29-8.36h-18.57v-5.39h3.16v-3.71h12.26v3.71h6.32v-3.71h12.26v3.71h6.32v-3.71h12.26v3.71h3.16Z" style="fill: #ff5113; stroke-width: 0px;"/>
    <path d="m607.54,18.57h18.57c-.37,4.83-4.46,8.54-9.29,8.54s-8.92-3.71-9.29-8.54Z" style="fill: #ff5113; stroke-width: 0px;"/>
    <path d="m607.54,37.15v-5.2h3.16v-3.9h12.26v3.9h3.16v5.2c-.37,4.64-4.46,8.54-9.29,8.54s-8.92-3.9-9.29-8.54Z" style="fill: #ff5113; stroke-width: 0px;"/>
    <path d="m626.11,55.72c-.37,4.64-4.46,8.54-9.29,8.54s-8.92-3.9-9.29-8.54v-5.2h3.16v-3.9h12.26v3.9h3.16v5.2h18.57c-.37,4.64-4.46,8.54-9.29,8.54s-8.92-3.9-9.29-8.54Z" style="fill: #ff5113; stroke-width: 0px;"/>
    <path d="m626.11,87.48v5.2c-.37,4.83-4.46,8.54-9.29,8.54s-8.92-3.71-9.29-8.54v-5.2h3.16v-3.71h12.26v3.71h3.16Z" style="fill: #ff5113; stroke-width: 0px;"/>
    <path d="m626.11,106.06v5.2c-.37,4.83-4.46,8.54-9.29,8.54s-8.92-3.71-9.29-8.54v-5.2h3.16v-3.71h12.26v3.71h3.16Z" style="fill: #ff5113; stroke-width: 0px;"/>
    <polygon points="626.11 124.63 626.11 129.83 607.54 129.83 607.54 124.63 610.7 124.63 610.7 120.92 622.96 120.92 622.96 124.63 626.11 124.63" style="fill: #ff5113; stroke-width: 0px;"/>
  </g>
  <g id="Laag_4" data-name="Laag 4">
    <path d="m691.12,55.72h18.57c-.37,4.64-4.46,8.54-9.29,8.54s-8.92-3.9-9.29-8.54Z" style="fill: #ff5113; stroke-width: 0px;"/>
    <path d="m746.84,68.91v5.39h-18.57c-.37,4.64-4.46,8.36-9.29,8.36s-8.92-3.71-9.29-8.36h-18.57v-5.39h3.16v-3.71h12.26v3.71h6.32v-3.71h12.26v3.71h6.31v-3.71h12.26v3.71h3.16Z" style="fill: #ff5113; stroke-width: 0px;"/>
    <path d="m709.69,18.57h18.57c-.37,4.83-4.46,8.54-9.29,8.54s-8.92-3.71-9.29-8.54Z" style="fill: #ff5113; stroke-width: 0px;"/>
    <path d="m709.69,37.15v-5.2h3.16v-3.9h12.26v3.9h3.16v5.2c-.37,4.64-4.46,8.54-9.29,8.54s-8.92-3.9-9.29-8.54Z" style="fill: #ff5113; stroke-width: 0px;"/>
    <path d="m728.27,55.72c-.37,4.64-4.46,8.54-9.29,8.54s-8.92-3.9-9.29-8.54v-5.2h3.16v-3.9h12.26v3.9h3.16v5.2h18.57c-.37,4.64-4.46,8.54-9.29,8.54s-8.92-3.9-9.29-8.54Z" style="fill: #ff5113; stroke-width: 0px;"/>
    <path d="m728.27,87.48v5.2c-.37,4.83-4.46,8.54-9.29,8.54s-8.92-3.71-9.29-8.54v-5.2h3.16v-3.71h12.26v3.71h3.16Z" style="fill: #ff5113; stroke-width: 0px;"/>
    <path d="m728.27,106.06v5.2c-.37,4.83-4.46,8.54-9.29,8.54s-8.92-3.71-9.29-8.54v-5.2h3.16v-3.71h12.26v3.71h3.16Z" style="fill: #ff5113; stroke-width: 0px;"/>
    <polygon points="728.27 124.63 728.27 129.83 709.69 129.83 709.69 124.63 712.85 124.63 712.85 120.92 725.11 120.92 725.11 124.63 728.27 124.63" style="fill: #ff5113; stroke-width: 0px;"/>
  </g>
  <g id="Laag_3" data-name="Laag 3">
    <path d="m760.77,55.54h18.57c-.37,4.83-4.46,8.54-9.29,8.54s-8.73-3.72-9.29-8.54Z" style="fill: #ff5113; stroke-width: 0px;"/>
    <path d="m788.63,82.65c-4.83,0-8.73-3.71-9.29-8.36-.37,4.64-4.46,8.36-9.29,8.36s-8.73-3.71-9.29-8.54v-5.2h3.16v-3.71h12.26v3.71h3.16v5.2h18.57c-.37,4.83-4.46,8.54-9.29,8.54Z" style="fill: #ff5113; stroke-width: 0px;"/>
    <path d="m816.49,87.48v5.2h-37.15c-.37,4.83-4.46,8.54-9.29,8.54s-8.73-3.71-9.29-8.54v-5.2h3.16v-3.71h12.26v3.71h6.32v-3.71h12.26v3.71h6.32v-3.71h12.26v3.71h3.16Z" style="fill: #ff5113; stroke-width: 0px;"/>
    <polygon points="760.77 106.06 763.93 106.06 763.93 102.34 776.19 102.34 776.19 106.06 779.34 106.06 779.34 111.26 760.77 111.26 760.77 106.06" style="fill: #ff5113; stroke-width: 0px;"/>
    <path d="m779.34,36.96h18.57c-.37,4.83-4.46,8.54-9.29,8.54s-8.92-3.72-9.29-8.54Z" style="fill: #ff5113; stroke-width: 0px;"/>
    <polygon points="779.34 50.33 782.5 50.33 782.5 46.62 794.76 46.62 794.76 50.33 797.92 50.33 797.92 55.54 779.34 55.54 779.34 50.33" style="fill: #ff5113; stroke-width: 0px;"/>
    <path d="m788.63,119.8c-4.83,0-8.92-3.71-9.29-8.54h18.57c-.37,4.83-4.46,8.54-9.29,8.54Z" style="fill: #ff5113; stroke-width: 0px;"/>
    <polygon points="816.49 124.63 816.49 129.83 779.34 129.83 779.34 124.63 782.5 124.63 782.5 120.73 794.76 120.73 794.76 124.63 801.08 124.63 801.08 120.73 813.33 120.73 813.33 124.63 816.49 124.63" style="fill: #ff5113; stroke-width: 0px;"/>
    <path d="m797.92,55.54h18.57c-.37,4.83-4.46,8.54-9.29,8.54s-8.92-3.72-9.29-8.54Z" style="fill: #ff5113; stroke-width: 0px;"/>
    <path d="m797.92,68.91h3.16v-3.71h12.26v3.71h3.16v5.2c-.37,4.83-4.46,8.54-9.29,8.54s-8.92-3.71-9.29-8.54v-5.2Z" style="fill: #ff5113; stroke-width: 0px;"/>
    <path d="m816.49,111.26c-.37,4.83-4.46,8.54-9.29,8.54s-8.92-3.71-9.29-8.54h18.57Z" style="fill: #ff5113; stroke-width: 0px;"/>
  </g>
  <g id="Laag_2" data-name="Laag 2">
    <path d="m835.06,0h18.57c-.56,4.83-4.46,8.54-9.29,8.54s-8.92-3.71-9.29-8.54Z" style="fill: #ff5113; stroke-width: 0px;"/>
    <path d="m853.64,13.37v5.2c-.56,4.64-4.46,8.54-9.29,8.54s-8.92-3.9-9.29-8.54v-5.2h3.16v-3.9h12.26v3.9h3.16Z" style="fill: #ff5113; stroke-width: 0px;"/>
    <path d="m853.64,31.95v5.2c-.56,4.64-4.46,8.54-9.29,8.54s-8.92-3.9-9.29-8.54v-5.2h3.16v-3.9h12.26v3.9h3.16Z" style="fill: #ff5113; stroke-width: 0px;"/>
    <path d="m853.64,50.33v5.39c-.56,4.64-4.46,8.54-9.29,8.54s-8.92-3.9-9.29-8.54v-5.39h3.16v-3.71h12.26v3.71h3.16Z" style="fill: #ff5113; stroke-width: 0px;"/>
    <path d="m853.64,68.91v5.39c-.56,4.64-4.46,8.36-9.29,8.36s-8.92-3.71-9.29-8.36v-5.39h3.16v-3.71h12.26v3.71h3.16Z" style="fill: #ff5113; stroke-width: 0px;"/>
    <path d="m853.64,87.48v5.2c-.56,4.83-4.46,8.54-9.29,8.54s-8.92-3.71-9.29-8.54v-5.2h3.16v-3.71h12.26v3.71h3.16Z" style="fill: #ff5113; stroke-width: 0px;"/>
    <path d="m853.64,106.06v5.2c-.56,4.83-4.46,8.54-9.29,8.54s-8.92-3.71-9.29-8.54v-5.2h3.16v-3.71h12.26v3.71h3.16Z" style="fill: #ff5113; stroke-width: 0px;"/>
    <polygon points="853.64 124.63 853.64 129.83 835.06 129.83 835.06 124.63 838.22 124.63 838.22 120.92 850.48 120.92 850.48 124.63 853.64 124.63" style="fill: #ff5113; stroke-width: 0px;"/>
  </g>
  <g id="Laag_1" data-name="Laag 1">
    <path d="m872.21,0h18.57c-.56,4.83-4.46,8.54-9.29,8.54s-8.92-3.71-9.29-8.54Z" style="fill: #ff5113; stroke-width: 0px;"/>
    <path d="m890.79,13.37v5.2c-.56,4.64-4.46,8.54-9.29,8.54s-8.92-3.9-9.29-8.54v-5.2h3.16v-3.9h12.26v3.9h3.16Z" style="fill: #ff5113; stroke-width: 0px;"/>
    <path d="m890.79,31.95v5.2c-.56,4.64-4.46,8.54-9.29,8.54s-8.92-3.9-9.29-8.54v-5.2h3.16v-3.9h12.26v3.9h3.16Z" style="fill: #ff5113; stroke-width: 0px;"/>
    <path d="m890.79,50.33v5.39c-.56,4.64-4.46,8.54-9.29,8.54s-8.92-3.9-9.29-8.54v-5.39h3.16v-3.71h12.26v3.71h3.16Z" style="fill: #ff5113; stroke-width: 0px;"/>
    <path d="m890.79,68.91v5.39c-.56,4.64-4.46,8.36-9.29,8.36s-8.92-3.71-9.29-8.36v-5.39h3.16v-3.71h12.26v3.71h3.16Z" style="fill: #ff5113; stroke-width: 0px;"/>
    <path d="m890.79,87.48v5.2c-.56,4.83-4.46,8.54-9.29,8.54s-8.92-3.71-9.29-8.54v-5.2h3.16v-3.71h12.26v3.71h3.16Z" style="fill: #ff5113; stroke-width: 0px;"/>
    <path d="m890.79,106.06v5.2c-.56,4.83-4.46,8.54-9.29,8.54s-8.92-3.71-9.29-8.54v-5.2h3.16v-3.71h12.26v3.71h3.16Z" style="fill: #ff5113; stroke-width: 0px;"/>
    <polygon points="890.79 124.63 890.79 129.83 872.21 129.83 872.21 124.63 875.37 124.63 875.37 120.92 887.63 120.92 887.63 124.63 890.79 124.63" style="fill: #ff5113; stroke-width: 0px;"/>
  </g>
</svg>