<?xml version="1.0" encoding="UTF-8"?>
<svg xmlns="http://www.w3.org/2000/svg" viewBox="0 0 843.54 119.19">
  <g id="Laag_11" data-name="Laag 11">
    <path d="m0,34.1h17.05c-.51,4.26-4.09,7.84-8.53,7.84S.34,38.37,0,34.1Z" style="fill: #ff5113; stroke-width: 0px;"/>
    <path d="m19.95,46.21v-3.41h11.25v3.41h2.9v4.95h-17.05c-.34,4.26-4.09,7.84-8.53,7.84S.34,55.42,0,51.16v-4.95h2.9v-3.41h11.25v3.41h5.8Z" style="fill: #ff5113; stroke-width: 0px;"/>
    <path d="m17.05,63.26v4.95c-.51,4.26-4.09,7.67-8.53,7.67s-8.19-3.41-8.53-7.67v-4.95h2.9v-3.41h11.25v3.41h2.9Z" style="fill: #ff5113; stroke-width: 0px;"/>
    <path d="m17.05,80.31v4.77c-.34,4.43-4.09,7.84-8.53,7.84s-8.19-3.41-8.53-7.84v-4.77h2.9v-3.41h11.25v3.41h2.9Z" style="fill: #ff5113; stroke-width: 0px;"/>
    <path d="m17.05,97.37v4.77c-.51,4.43-4.09,7.84-8.53,7.84s-8.19-3.41-8.53-7.84v-4.77h2.9v-3.41h11.25v3.41h2.9Z" style="fill: #ff5113; stroke-width: 0px;"/>
    <polygon points="17.05 114.42 17.05 119.19 0 119.19 0 114.42 2.9 114.42 2.9 111.01 14.15 111.01 14.15 114.42 17.05 114.42" style="fill: #ff5113; stroke-width: 0px;"/>
    <path d="m34.1,34.1c-.51,4.26-4.09,7.84-8.53,7.84s-8.19-3.58-8.53-7.84h17.05Z" style="fill: #ff5113; stroke-width: 0px;"/>
    <path d="m42.63,59c-4.6,0-8.19-3.58-8.53-7.84h17.05c-.51,4.26-4.09,7.84-8.53,7.84Z" style="fill: #ff5113; stroke-width: 0px;"/>
    <path d="m51.16,63.26v4.95c-.51,4.26-4.09,7.67-8.53,7.67s-8.19-3.41-8.53-7.67v-4.95h2.9v-3.41h11.25v3.41h2.9Z" style="fill: #ff5113; stroke-width: 0px;"/>
    <path d="m51.16,80.31v4.77c-.51,4.43-4.09,7.84-8.53,7.84s-8.19-3.41-8.53-7.84v-4.77h2.9v-3.41h11.25v3.41h2.9Z" style="fill: #ff5113; stroke-width: 0px;"/>
    <path d="m51.16,97.37v4.77c-.51,4.43-4.09,7.84-8.53,7.84s-8.19-3.41-8.53-7.84v-4.77h2.9v-3.41h11.25v3.41h2.9Z" style="fill: #ff5113; stroke-width: 0px;"/>
    <polygon points="51.16 114.42 51.16 119.19 34.1 119.19 34.1 114.42 37 114.42 37 111.01 48.26 111.01 48.26 114.42 51.16 114.42" style="fill: #ff5113; stroke-width: 0px;"/>
    <path d="m51.16,34.1h17.05c-.51,4.26-4.09,7.84-8.53,7.84s-8.19-3.58-8.53-7.84Z" style="fill: #ff5113; stroke-width: 0px;"/>
    <path d="m51.16,46.21h2.9v-3.41h11.25v3.41h2.9v4.95h16.88c-.34,4.26-3.92,7.84-8.53,7.84s-8.01-3.58-8.53-7.84h-16.88v-4.95Z" style="fill: #ff5113; stroke-width: 0px;"/>
    <path d="m85.09,63.26v4.95c-.34,4.26-3.92,7.67-8.53,7.67s-8.01-3.41-8.53-7.67v-4.95h2.9v-3.41h11.42v3.41h2.73Z" style="fill: #ff5113; stroke-width: 0px;"/>
    <path d="m85.09,80.31v4.77c-.34,4.43-3.92,7.84-8.53,7.84s-8.01-3.41-8.53-7.84v-4.77h2.9v-3.41h11.42v3.41h2.73Z" style="fill: #ff5113; stroke-width: 0px;"/>
    <path d="m85.09,97.37v4.77c-.34,4.43-3.92,7.84-8.53,7.84s-8.01-3.41-8.53-7.84v-4.77h2.9v-3.41h11.42v3.41h2.73Z" style="fill: #ff5113; stroke-width: 0px;"/>
    <polygon points="85.09 114.42 85.09 119.19 68.04 119.19 68.04 114.42 70.94 114.42 70.94 111.01 82.36 111.01 82.36 114.42 85.09 114.42" style="fill: #ff5113; stroke-width: 0px;"/>
  </g>
  <g id="Laag_10" data-name="Laag 10">
    <path d="m102.14,50.98h17.05c-.34,4.43-4.09,7.84-8.53,7.84s-8.01-3.41-8.53-7.84Z" style="fill: #ff5113; stroke-width: 0px;"/>
    <path d="m127.72,75.88c-4.43,0-8.01-3.41-8.53-7.67-.34,4.26-4.09,7.67-8.53,7.67s-8.01-3.41-8.53-7.84v-4.77h2.9v-3.41h11.25v3.41h2.9v4.77h17.05c-.34,4.43-4.09,7.84-8.53,7.84Z" style="fill: #ff5113; stroke-width: 0px;"/>
    <path d="m153.29,80.31v4.77h-34.1c-.34,4.43-4.09,7.84-8.53,7.84s-8.01-3.41-8.53-7.84v-4.77h2.9v-3.41h11.25v3.41h5.8v-3.41h11.25v3.41h5.8v-3.41h11.25v3.41h2.9Z" style="fill: #ff5113; stroke-width: 0px;"/>
    <polygon points="102.14 97.37 105.04 97.37 105.04 93.96 116.29 93.96 116.29 97.37 119.19 97.37 119.19 102.14 102.14 102.14 102.14 97.37" style="fill: #ff5113; stroke-width: 0px;"/>
    <path d="m119.19,33.93h17.05c-.34,4.43-4.09,7.84-8.53,7.84s-8.19-3.41-8.53-7.84Z" style="fill: #ff5113; stroke-width: 0px;"/>
    <polygon points="119.19 46.21 122.09 46.21 122.09 42.8 133.34 42.8 133.34 46.21 136.24 46.21 136.24 50.98 119.19 50.98 119.19 46.21" style="fill: #ff5113; stroke-width: 0px;"/>
    <path d="m127.72,109.98c-4.43,0-8.19-3.41-8.53-7.84h17.05c-.34,4.43-4.09,7.84-8.53,7.84Z" style="fill: #ff5113; stroke-width: 0px;"/>
    <polygon points="153.29 114.42 153.29 119.19 119.19 119.19 119.19 114.42 122.09 114.42 122.09 110.84 133.34 110.84 133.34 114.42 139.14 114.42 139.14 110.84 150.4 110.84 150.4 114.42 153.29 114.42" style="fill: #ff5113; stroke-width: 0px;"/>
    <path d="m136.24,50.98h17.05c-.34,4.43-4.09,7.84-8.53,7.84s-8.19-3.41-8.53-7.84Z" style="fill: #ff5113; stroke-width: 0px;"/>
    <path d="m136.24,63.26h2.9v-3.41h11.25v3.41h2.9v4.77c-.34,4.43-4.09,7.84-8.53,7.84s-8.19-3.41-8.53-7.84v-4.77Z" style="fill: #ff5113; stroke-width: 0px;"/>
    <path d="m153.29,102.14c-.34,4.43-4.09,7.84-8.53,7.84s-8.19-3.41-8.53-7.84h17.05Z" style="fill: #ff5113; stroke-width: 0px;"/>
  </g>
  <g id="Laag_9" data-name="Laag 9">
    <path d="m170.35,50.98h17.05c-.34,4.43-4.09,7.84-8.53,7.84s-8.01-3.41-8.53-7.84Z" style="fill: #ff5113; stroke-width: 0px;"/>
    <path d="m195.92,75.88c-4.43,0-8.01-3.41-8.53-7.67-.34,4.26-4.09,7.67-8.53,7.67s-8.01-3.41-8.53-7.84v-4.77h2.9v-3.41h11.25v3.41h2.9v4.77h17.05c-.34,4.43-4.09,7.84-8.53,7.84Z" style="fill: #ff5113; stroke-width: 0px;"/>
    <path d="m221.5,80.31v4.77h-34.1c-.34,4.43-4.09,7.84-8.53,7.84s-8.01-3.41-8.53-7.84v-4.77h2.9v-3.41h11.25v3.41h5.8v-3.41h11.25v3.41h5.8v-3.41h11.25v3.41h2.9Z" style="fill: #ff5113; stroke-width: 0px;"/>
    <polygon points="170.35 97.37 173.24 97.37 173.24 93.96 184.5 93.96 184.5 97.37 187.4 97.37 187.4 102.14 170.35 102.14 170.35 97.37" style="fill: #ff5113; stroke-width: 0px;"/>
    <path d="m187.4,33.93h17.05c-.34,4.43-4.09,7.84-8.53,7.84s-8.19-3.41-8.53-7.84Z" style="fill: #ff5113; stroke-width: 0px;"/>
    <polygon points="187.4 46.21 190.3 46.21 190.3 42.8 201.55 42.8 201.55 46.21 204.45 46.21 204.45 50.98 187.4 50.98 187.4 46.21" style="fill: #ff5113; stroke-width: 0px;"/>
    <path d="m195.92,109.98c-4.43,0-8.19-3.41-8.53-7.84h17.05c-.34,4.43-4.09,7.84-8.53,7.84Z" style="fill: #ff5113; stroke-width: 0px;"/>
    <polygon points="221.5 114.42 221.5 119.19 187.4 119.19 187.4 114.42 190.3 114.42 190.3 110.84 201.55 110.84 201.55 114.42 207.35 114.42 207.35 110.84 218.6 110.84 218.6 114.42 221.5 114.42" style="fill: #ff5113; stroke-width: 0px;"/>
    <path d="m204.45,50.98h17.05c-.34,4.43-4.09,7.84-8.53,7.84s-8.19-3.41-8.53-7.84Z" style="fill: #ff5113; stroke-width: 0px;"/>
    <path d="m204.45,63.26h2.9v-3.41h11.25v3.41h2.9v4.77c-.34,4.43-4.09,7.84-8.53,7.84s-8.19-3.41-8.53-7.84v-4.77Z" style="fill: #ff5113; stroke-width: 0px;"/>
    <path d="m221.5,102.14c-.34,4.43-4.09,7.84-8.53,7.84s-8.19-3.41-8.53-7.84h17.05Z" style="fill: #ff5113; stroke-width: 0px;"/>
  </g>
  <g id="Laag_8" data-name="Laag 8">
    <path d="m234.29,51.16h17.05c-.34,4.26-4.09,7.84-8.53,7.84s-8.18-3.58-8.53-7.84Z" style="fill: #ff5113; stroke-width: 0px;"/>
    <path d="m285.44,63.26v4.95h-17.05c-.34,4.26-4.09,7.67-8.53,7.67s-8.18-3.41-8.53-7.67h-17.05v-4.95h2.9v-3.41h11.25v3.41h5.8v-3.41h11.25v3.41h5.8v-3.41h11.25v3.41h2.9Z" style="fill: #ff5113; stroke-width: 0px;"/>
    <path d="m251.34,17.05h17.05c-.34,4.43-4.09,7.84-8.53,7.84s-8.18-3.41-8.53-7.84Z" style="fill: #ff5113; stroke-width: 0px;"/>
    <path d="m251.34,34.1v-4.77h2.9v-3.58h11.25v3.58h2.9v4.77c-.34,4.26-4.09,7.84-8.53,7.84s-8.18-3.58-8.53-7.84Z" style="fill: #ff5113; stroke-width: 0px;"/>
    <path d="m268.39,51.16c-.34,4.26-4.09,7.84-8.53,7.84s-8.18-3.58-8.53-7.84v-4.77h2.9v-3.58h11.25v3.58h2.9v4.77h17.05c-.34,4.26-4.09,7.84-8.53,7.84s-8.18-3.58-8.53-7.84Z" style="fill: #ff5113; stroke-width: 0px;"/>
    <path d="m268.39,80.31v4.77c-.34,4.43-4.09,7.84-8.53,7.84s-8.18-3.41-8.53-7.84v-4.77h2.9v-3.41h11.25v3.41h2.9Z" style="fill: #ff5113; stroke-width: 0px;"/>
    <path d="m268.39,97.37v4.77c-.34,4.43-4.09,7.84-8.53,7.84s-8.18-3.41-8.53-7.84v-4.77h2.9v-3.41h11.25v3.41h2.9Z" style="fill: #ff5113; stroke-width: 0px;"/>
    <polygon points="268.39 114.42 268.39 119.19 251.34 119.19 251.34 114.42 254.24 114.42 254.24 111.01 265.49 111.01 265.49 114.42 268.39 114.42" style="fill: #ff5113; stroke-width: 0px;"/>
  </g>
  <g id="Laag_7" data-name="Laag 7">
    <path d="m328.07,51.16h17.05c-.34,4.26-4.09,7.84-8.53,7.84s-8.18-3.58-8.53-7.84Z" style="fill: #ff5113; stroke-width: 0px;"/>
    <path d="m379.23,63.26v4.95h-17.05c-.34,4.26-4.09,7.67-8.53,7.67s-8.18-3.41-8.53-7.67h-17.05v-4.95h2.9v-3.41h11.25v3.41h5.8v-3.41h11.25v3.41h5.8v-3.41h11.25v3.41h2.9Z" style="fill: #ff5113; stroke-width: 0px;"/>
    <path d="m345.12,17.05h17.05c-.34,4.43-4.09,7.84-8.53,7.84s-8.18-3.41-8.53-7.84Z" style="fill: #ff5113; stroke-width: 0px;"/>
    <path d="m345.12,34.1v-4.77h2.9v-3.58h11.25v3.58h2.9v4.77c-.34,4.26-4.09,7.84-8.53,7.84s-8.18-3.58-8.53-7.84Z" style="fill: #ff5113; stroke-width: 0px;"/>
    <path d="m362.17,51.16c-.34,4.26-4.09,7.84-8.53,7.84s-8.18-3.58-8.53-7.84v-4.77h2.9v-3.58h11.25v3.58h2.9v4.77h17.05c-.34,4.26-4.09,7.84-8.53,7.84s-8.18-3.58-8.53-7.84Z" style="fill: #ff5113; stroke-width: 0px;"/>
    <path d="m362.17,80.31v4.77c-.34,4.43-4.09,7.84-8.53,7.84s-8.18-3.41-8.53-7.84v-4.77h2.9v-3.41h11.25v3.41h2.9Z" style="fill: #ff5113; stroke-width: 0px;"/>
    <path d="m362.17,97.37v4.77c-.34,4.43-4.09,7.84-8.53,7.84s-8.18-3.41-8.53-7.84v-4.77h2.9v-3.41h11.25v3.41h2.9Z" style="fill: #ff5113; stroke-width: 0px;"/>
    <polygon points="362.17 114.42 362.17 119.19 345.12 119.19 345.12 114.42 348.02 114.42 348.02 111.01 359.27 111.01 359.27 114.42 362.17 114.42" style="fill: #ff5113; stroke-width: 0px;"/>
  </g>
  <g id="Laag_6" data-name="Laag 6">
    <path d="m392.01,0h16.88c-.34,4.26-3.92,7.84-8.36,7.84s-8.19-3.58-8.53-7.84Z" style="fill: #ff5113; stroke-width: 0px;"/>
    <path d="m392.01,17.05v-4.77h2.9v-3.58h11.25v3.58h2.73v4.77c-.34,4.26-3.92,7.84-8.36,7.84s-8.19-3.58-8.53-7.84Z" style="fill: #ff5113; stroke-width: 0px;"/>
    <path d="m392.01,34.1v-4.95h2.9v-3.41h11.25v3.41h2.73v4.77h17.05c-.34,4.43-3.92,7.84-8.53,7.84s-8.01-3.41-8.53-7.67c-.34,4.26-3.92,7.67-8.36,7.67s-8.19-3.41-8.53-7.67Z" style="fill: #ff5113; stroke-width: 0px;"/>
    <path d="m392.01,50.98v-4.77h2.9v-3.41h11.25v3.41h5.63v-3.41h11.42v3.41h2.73v4.77h-16.88c-.51,4.43-4.09,7.84-8.53,7.84s-8.19-3.41-8.53-7.84Z" style="fill: #ff5113; stroke-width: 0px;"/>
    <path d="m409.06,63.26v4.77c-.51,4.43-4.09,7.84-8.53,7.84s-8.19-3.41-8.53-7.84v-4.77h2.9v-3.41h11.25v3.41h2.9Z" style="fill: #ff5113; stroke-width: 0px;"/>
    <path d="m409.06,80.31v4.77c-.51,4.43-4.09,7.84-8.53,7.84s-8.19-3.41-8.53-7.84v-4.77h2.9v-3.41h11.25v3.41h2.9Z" style="fill: #ff5113; stroke-width: 0px;"/>
    <path d="m409.06,97.37v4.77c-.51,4.43-4.09,7.84-8.53,7.84s-8.19-3.41-8.53-7.84v-4.77h2.9v-3.41h11.25v3.41h2.9Z" style="fill: #ff5113; stroke-width: 0px;"/>
    <polygon points="409.06 114.42 409.06 119.19 392.01 119.19 392.01 114.42 394.91 114.42 394.91 110.84 406.17 110.84 406.17 114.42 409.06 114.42" style="fill: #ff5113; stroke-width: 0px;"/>
    <path d="m443,50.98c-.34,4.43-4.09,7.84-8.53,7.84s-8.01-3.41-8.53-7.84h17.05Z" style="fill: #ff5113; stroke-width: 0px;"/>
    <path d="m443,63.26v4.77c-.34,4.43-4.09,7.84-8.53,7.84s-8.01-3.41-8.53-7.84v-4.77h2.9v-3.41h11.25v3.41h2.9Z" style="fill: #ff5113; stroke-width: 0px;"/>
    <path d="m443,80.31v4.77c-.34,4.43-4.09,7.84-8.53,7.84s-8.01-3.41-8.53-7.84v-4.77h2.9v-3.41h11.25v3.41h2.9Z" style="fill: #ff5113; stroke-width: 0px;"/>
    <path d="m443,97.37v4.77c-.34,4.43-4.09,7.84-8.53,7.84s-8.01-3.41-8.53-7.84v-4.77h2.9v-3.41h11.25v3.41h2.9Z" style="fill: #ff5113; stroke-width: 0px;"/>
    <polygon points="443 114.42 443 119.19 425.94 119.19 425.94 114.42 428.84 114.42 428.84 110.84 440.1 110.84 440.1 114.42 443 114.42" style="fill: #ff5113; stroke-width: 0px;"/>
  </g>
  <g id="Laag_5" data-name="Laag 5">
    <path d="m460.05,50.98h17.05c-.34,4.43-4.09,7.84-8.53,7.84s-8.01-3.41-8.53-7.84Z" style="fill: #ff5113; stroke-width: 0px;"/>
    <path d="m485.62,75.88c-4.43,0-8.01-3.41-8.53-7.67-.34,4.26-4.09,7.67-8.53,7.67s-8.01-3.41-8.53-7.84v-4.77h2.9v-3.41h11.25v3.41h2.9v4.77h17.05c-.34,4.43-4.09,7.84-8.53,7.84Z" style="fill: #ff5113; stroke-width: 0px;"/>
    <path d="m511.2,80.31v4.77h-34.1c-.34,4.43-4.09,7.84-8.53,7.84s-8.01-3.41-8.53-7.84v-4.77h2.9v-3.41h11.25v3.41h5.8v-3.41h11.25v3.41h5.8v-3.41h11.25v3.41h2.9Z" style="fill: #ff5113; stroke-width: 0px;"/>
    <polygon points="460.05 97.37 462.95 97.37 462.95 93.96 474.2 93.96 474.2 97.37 477.1 97.37 477.1 102.14 460.05 102.14 460.05 97.37" style="fill: #ff5113; stroke-width: 0px;"/>
    <path d="m477.1,33.93h17.05c-.34,4.43-4.09,7.84-8.53,7.84s-8.19-3.41-8.53-7.84Z" style="fill: #ff5113; stroke-width: 0px;"/>
    <polygon points="477.1 46.21 480 46.21 480 42.8 491.25 42.8 491.25 46.21 494.15 46.21 494.15 50.98 477.1 50.98 477.1 46.21" style="fill: #ff5113; stroke-width: 0px;"/>
    <path d="m485.62,109.98c-4.43,0-8.19-3.41-8.53-7.84h17.05c-.34,4.43-4.09,7.84-8.53,7.84Z" style="fill: #ff5113; stroke-width: 0px;"/>
    <polygon points="511.2 114.42 511.2 119.19 477.1 119.19 477.1 114.42 480 114.42 480 110.84 491.25 110.84 491.25 114.42 497.05 114.42 497.05 110.84 508.3 110.84 508.3 114.42 511.2 114.42" style="fill: #ff5113; stroke-width: 0px;"/>
    <path d="m494.15,50.98h17.05c-.34,4.43-4.09,7.84-8.53,7.84s-8.19-3.41-8.53-7.84Z" style="fill: #ff5113; stroke-width: 0px;"/>
    <path d="m494.15,63.26h2.9v-3.41h11.25v3.41h2.9v4.77c-.34,4.43-4.09,7.84-8.53,7.84s-8.19-3.41-8.53-7.84v-4.77Z" style="fill: #ff5113; stroke-width: 0px;"/>
    <path d="m511.2,102.14c-.34,4.43-4.09,7.84-8.53,7.84s-8.19-3.41-8.53-7.84h17.05Z" style="fill: #ff5113; stroke-width: 0px;"/>
  </g>
  <g id="Laag_4" data-name="Laag 4">
    <path d="m558.09,51.16h17.05c-.34,4.26-4.09,7.84-8.53,7.84s-8.18-3.58-8.53-7.84Z" style="fill: #ff5113; stroke-width: 0px;"/>
    <path d="m609.25,63.26v4.95h-17.05c-.34,4.26-4.09,7.67-8.53,7.67s-8.18-3.41-8.53-7.67h-17.05v-4.95h2.9v-3.41h11.25v3.41h5.8v-3.41h11.25v3.41h5.8v-3.41h11.25v3.41h2.9Z" style="fill: #ff5113; stroke-width: 0px;"/>
    <path d="m575.14,17.05h17.05c-.34,4.43-4.09,7.84-8.53,7.84s-8.18-3.41-8.53-7.84Z" style="fill: #ff5113; stroke-width: 0px;"/>
    <path d="m575.14,34.1v-4.77h2.9v-3.58h11.25v3.58h2.9v4.77c-.34,4.26-4.09,7.84-8.53,7.84s-8.18-3.58-8.53-7.84Z" style="fill: #ff5113; stroke-width: 0px;"/>
    <path d="m592.2,51.16c-.34,4.26-4.09,7.84-8.53,7.84s-8.18-3.58-8.53-7.84v-4.77h2.9v-3.58h11.25v3.58h2.9v4.77h17.05c-.34,4.26-4.09,7.84-8.53,7.84s-8.18-3.58-8.53-7.84Z" style="fill: #ff5113; stroke-width: 0px;"/>
    <path d="m592.2,80.31v4.77c-.34,4.43-4.09,7.84-8.53,7.84s-8.18-3.41-8.53-7.84v-4.77h2.9v-3.41h11.25v3.41h2.9Z" style="fill: #ff5113; stroke-width: 0px;"/>
    <path d="m592.2,97.37v4.77c-.34,4.43-4.09,7.84-8.53,7.84s-8.18-3.41-8.53-7.84v-4.77h2.9v-3.41h11.25v3.41h2.9Z" style="fill: #ff5113; stroke-width: 0px;"/>
    <polygon points="592.2 114.42 592.2 119.19 575.14 119.19 575.14 114.42 578.04 114.42 578.04 111.01 589.3 111.01 589.3 114.42 592.2 114.42" style="fill: #ff5113; stroke-width: 0px;"/>
  </g>
  <g id="Laag_3" data-name="Laag 3">
    <path d="m622.03,50.98h17.05c-.34,4.43-4.09,7.84-8.53,7.84s-8.01-3.41-8.53-7.84Z" style="fill: #ff5113; stroke-width: 0px;"/>
    <path d="m647.61,75.88c-4.43,0-8.01-3.41-8.53-7.67-.34,4.26-4.09,7.67-8.53,7.67s-8.01-3.41-8.53-7.84v-4.77h2.9v-3.41h11.25v3.41h2.9v4.77h17.05c-.34,4.43-4.09,7.84-8.53,7.84Z" style="fill: #ff5113; stroke-width: 0px;"/>
    <path d="m673.19,80.31v4.77h-34.1c-.34,4.43-4.09,7.84-8.53,7.84s-8.01-3.41-8.53-7.84v-4.77h2.9v-3.41h11.25v3.41h5.8v-3.41h11.25v3.41h5.8v-3.41h11.25v3.41h2.9Z" style="fill: #ff5113; stroke-width: 0px;"/>
    <polygon points="622.03 97.37 624.93 97.37 624.93 93.96 636.19 93.96 636.19 97.37 639.09 97.37 639.09 102.14 622.03 102.14 622.03 97.37" style="fill: #ff5113; stroke-width: 0px;"/>
    <path d="m639.09,33.93h17.05c-.34,4.43-4.09,7.84-8.53,7.84s-8.18-3.41-8.53-7.84Z" style="fill: #ff5113; stroke-width: 0px;"/>
    <polygon points="639.09 46.21 641.98 46.21 641.98 42.8 653.24 42.8 653.24 46.21 656.14 46.21 656.14 50.98 639.09 50.98 639.09 46.21" style="fill: #ff5113; stroke-width: 0px;"/>
    <path d="m647.61,109.98c-4.43,0-8.18-3.41-8.53-7.84h17.05c-.34,4.43-4.09,7.84-8.53,7.84Z" style="fill: #ff5113; stroke-width: 0px;"/>
    <polygon points="673.19 114.42 673.19 119.19 639.09 119.19 639.09 114.42 641.98 114.42 641.98 110.84 653.24 110.84 653.24 114.42 659.04 114.42 659.04 110.84 670.29 110.84 670.29 114.42 673.19 114.42" style="fill: #ff5113; stroke-width: 0px;"/>
    <path d="m656.14,50.98h17.05c-.34,4.43-4.09,7.84-8.53,7.84s-8.18-3.41-8.53-7.84Z" style="fill: #ff5113; stroke-width: 0px;"/>
    <path d="m656.14,63.26h2.9v-3.41h11.25v3.41h2.9v4.77c-.34,4.43-4.09,7.84-8.53,7.84s-8.18-3.41-8.53-7.84v-4.77Z" style="fill: #ff5113; stroke-width: 0px;"/>
    <path d="m673.19,102.14c-.34,4.43-4.09,7.84-8.53,7.84s-8.18-3.41-8.53-7.84h17.05Z" style="fill: #ff5113; stroke-width: 0px;"/>
  </g>
  <g id="Laag_2" data-name="Laag 2">
    <path d="m690.24,34.1h17.05c-.34,4.26-4.09,7.67-8.53,7.67s-8.01-3.41-8.53-7.67Z" style="fill: #ff5113; stroke-width: 0px;"/>
    <polygon points="690.24 46.21 693.14 46.21 693.14 42.8 704.39 42.8 704.39 46.21 707.29 46.21 710.19 46.21 710.19 42.8 721.45 42.8 721.45 46.21 724.34 46.21 724.34 50.98 690.24 50.98 690.24 46.21" style="fill: #ff5113; stroke-width: 0px;"/>
    <path d="m690.24,68.04h17.05c-.34,4.43-4.09,7.84-8.53,7.84s-8.18-3.41-8.53-7.84Z" style="fill: #ff5113; stroke-width: 0px;"/>
    <path d="m741.4,80.31v4.77c-.34,4.43-4.09,7.84-8.53,7.84s-8.18-3.41-8.53-7.84h-17.05c-.34,4.43-4.09,7.84-8.53,7.84s-8.01-3.41-8.53-7.84v-4.77h2.9v-3.41h11.25v3.41h5.8v-3.41h11.25v3.41h5.8v-3.41h11.25v3.41h2.9Z" style="fill: #ff5113; stroke-width: 0px;"/>
    <polygon points="707.29 102.14 690.24 102.14 690.24 97.37 693.14 97.37 693.14 93.96 704.39 93.96 704.39 97.37 707.29 97.37 707.29 102.14" style="fill: #ff5113; stroke-width: 0px;"/>
    <path d="m724.34,34.1c-.34,4.26-4.09,7.67-8.53,7.67s-8.18-3.41-8.53-7.67h17.05Z" style="fill: #ff5113; stroke-width: 0px;"/>
    <path d="m741.4,63.26v4.77c-.51,4.43-4.09,7.84-8.53,7.84s-8.18-3.41-8.53-7.67c-.34,4.26-4.09,7.67-8.53,7.67s-8.18-3.41-8.53-7.84h17.05v-4.77h2.9v-3.41h11.25v3.41h2.9Z" style="fill: #ff5113; stroke-width: 0px;"/>
    <path d="m724.34,102.14c-.34,4.43-4.09,7.84-8.53,7.84s-8.18-3.41-8.53-7.84h17.05Z" style="fill: #ff5113; stroke-width: 0px;"/>
    <polygon points="741.4 114.42 741.4 119.19 724.34 119.19 707.29 119.19 707.29 114.42 710.19 114.42 710.19 110.84 721.45 110.84 721.45 114.42 724.34 114.42 727.24 114.42 727.24 110.84 738.5 110.84 738.5 114.42 741.4 114.42" style="fill: #ff5113; stroke-width: 0px;"/>
    <path d="m741.4,50.98c-.34,4.43-4.09,7.84-8.53,7.84s-8.18-3.41-8.53-7.84h17.05Z" style="fill: #ff5113; stroke-width: 0px;"/>
    <path d="m741.4,97.37v4.77c-.51,4.43-4.09,7.84-8.53,7.84s-8.18-3.41-8.53-7.84v-4.77h2.9v-3.41h11.25v3.41h2.9Z" style="fill: #ff5113; stroke-width: 0px;"/>
  </g>
  <g id="Laag_1" data-name="Laag 1">
    <path d="m758.45,34.1h17.05c-.51,4.26-4.09,7.84-8.53,7.84s-8.18-3.58-8.53-7.84Z" style="fill: #ff5113; stroke-width: 0px;"/>
    <path d="m778.4,46.21v-3.41h11.25v3.41h2.9v4.95h-17.05c-.34,4.26-4.09,7.84-8.53,7.84s-8.18-3.58-8.53-7.84v-4.95h2.9v-3.41h11.25v3.41h5.8Z" style="fill: #ff5113; stroke-width: 0px;"/>
    <path d="m775.5,63.26v4.95c-.51,4.26-4.09,7.67-8.53,7.67s-8.18-3.41-8.53-7.67v-4.95h2.9v-3.41h11.25v3.41h2.9Z" style="fill: #ff5113; stroke-width: 0px;"/>
    <path d="m775.5,80.31v4.77c-.34,4.43-4.09,7.84-8.53,7.84s-8.18-3.41-8.53-7.84v-4.77h2.9v-3.41h11.25v3.41h2.9Z" style="fill: #ff5113; stroke-width: 0px;"/>
    <path d="m775.5,97.37v4.77c-.51,4.43-4.09,7.84-8.53,7.84s-8.18-3.41-8.53-7.84v-4.77h2.9v-3.41h11.25v3.41h2.9Z" style="fill: #ff5113; stroke-width: 0px;"/>
    <polygon points="775.5 114.42 775.5 119.19 758.45 119.19 758.45 114.42 761.35 114.42 761.35 111.01 772.6 111.01 772.6 114.42 775.5 114.42" style="fill: #ff5113; stroke-width: 0px;"/>
    <path d="m792.55,34.1c-.51,4.26-4.09,7.84-8.53,7.84s-8.18-3.58-8.53-7.84h17.05Z" style="fill: #ff5113; stroke-width: 0px;"/>
    <path d="m801.08,59c-4.6,0-8.18-3.58-8.53-7.84h17.05c-.51,4.26-4.09,7.84-8.53,7.84Z" style="fill: #ff5113; stroke-width: 0px;"/>
    <path d="m809.6,63.26v4.95c-.51,4.26-4.09,7.67-8.53,7.67s-8.18-3.41-8.53-7.67v-4.95h2.9v-3.41h11.25v3.41h2.9Z" style="fill: #ff5113; stroke-width: 0px;"/>
    <path d="m809.6,80.31v4.77c-.51,4.43-4.09,7.84-8.53,7.84s-8.18-3.41-8.53-7.84v-4.77h2.9v-3.41h11.25v3.41h2.9Z" style="fill: #ff5113; stroke-width: 0px;"/>
    <path d="m809.6,97.37v4.77c-.51,4.43-4.09,7.84-8.53,7.84s-8.18-3.41-8.53-7.84v-4.77h2.9v-3.41h11.25v3.41h2.9Z" style="fill: #ff5113; stroke-width: 0px;"/>
    <polygon points="809.6 114.42 809.6 119.19 792.55 119.19 792.55 114.42 795.45 114.42 795.45 111.01 806.7 111.01 806.7 114.42 809.6 114.42" style="fill: #ff5113; stroke-width: 0px;"/>
    <path d="m809.6,34.1h17.05c-.51,4.26-4.09,7.84-8.53,7.84s-8.18-3.58-8.53-7.84Z" style="fill: #ff5113; stroke-width: 0px;"/>
    <path d="m809.6,46.21h2.9v-3.41h11.25v3.41h2.9v4.95h16.88c-.34,4.26-3.92,7.84-8.53,7.84s-8.01-3.58-8.53-7.84h-16.88v-4.95Z" style="fill: #ff5113; stroke-width: 0px;"/>
    <path d="m843.54,63.26v4.95c-.34,4.26-3.92,7.67-8.53,7.67s-8.01-3.41-8.53-7.67v-4.95h2.9v-3.41h11.42v3.41h2.73Z" style="fill: #ff5113; stroke-width: 0px;"/>
    <path d="m843.54,80.31v4.77c-.34,4.43-3.92,7.84-8.53,7.84s-8.01-3.41-8.53-7.84v-4.77h2.9v-3.41h11.42v3.41h2.73Z" style="fill: #ff5113; stroke-width: 0px;"/>
    <path d="m843.54,97.37v4.77c-.34,4.43-3.92,7.84-8.53,7.84s-8.01-3.41-8.53-7.84v-4.77h2.9v-3.41h11.42v3.41h2.73Z" style="fill: #ff5113; stroke-width: 0px;"/>
    <polygon points="843.54 114.42 843.54 119.19 826.48 119.19 826.48 114.42 829.38 114.42 829.38 111.01 840.81 111.01 840.81 114.42 843.54 114.42" style="fill: #ff5113; stroke-width: 0px;"/>
  </g>
</svg>