<?xml version="1.0" encoding="UTF-8"?>
<svg id="Layer_2" data-name="Layer 2" xmlns="http://www.w3.org/2000/svg" viewBox="0 0 180.94 104.02">
  <g id="Layer_1-2" data-name="Layer 1">
    <g>
      <path d="m122.8,56.64l-25.5-5.42,1.53-7.19,4.33.92,1.11-5.2,16.88,3.59-1.11,5.2,4.29.91-1.53,7.19Zm-46.01,28.4c-13.34-2.84-22.1-15.49-20.51-28.84l50.98,10.84c-3.98,12.85-17.13,20.84-30.47,18.01m-29.02-51.49l4.33.92,1.11-5.2,16.88,3.59-1.11,5.2,4.29.91-1.53,7.19-25.49-5.42,1.53-7.19ZM.66,0c-5.64,47.23,25.35,91.97,72.53,102,47.18,10.03,93.69-18.24,107.76-63.68L.66,0Z" style="fill: #ff5113; stroke-width: 0px;"/>
      <polygon points="31.78 65.58 34.32 12.74 148 36.9 126.06 85.62 60.41 94.51 31.78 65.58" style="fill: #ff5113; stroke-width: 0px;"/>
      <g>
        <path d="m97.72,64.99l1.53.32-.91,4.27c-.35,1.64.69,2.98,2.45,3.35l1.03.22.43-2.04-.64-.14c-.84-.18-1.05-.53-.8-1.71l.74-3.47,1.79.38.42-1.96-1.79-.38.56-2.61-1.87-.4-.3,1.4c-.16.74-.75,1.11-1.49.95l-.72-.15-.42,1.96Zm-6.36.14c.47-1.15,1.17-1.52,1.92-1.36.81.17,1.31.88,1.15,2.01l-3.07-.65Zm2.3-3.24c-2.33-.5-4.41.9-5.04,3.82-.63,2.96.84,5,3.29,5.52,1.89.4,3.56-.27,4.33-2.1l-2.37-.5c-.39.64-.92.87-1.64.71-1.05-.22-1.49-1.06-1.28-2.61l5.54,1.18.15-.72c.57-2.68-.63-4.8-2.98-5.3m-11.38-6.78l-2.82,13.29,2.3.49.54-2.55,1.26-.93,1.48,4.18,2.81.6-2.32-6.21,3.84-2.81-2.84-.6-3.6,2.82,1.65-7.79-2.3-.49Zm-6.24,3.03c-2.48-.53-4.67.88-5.29,3.8-.58,2.74.63,4.93,3.36,5.5,2.15.46,3.71-.4,4.33-2.06l-2.4-.51c-.28.58-.82.87-1.59.71-1.28-.27-1.65-1.47-1.29-3.16.4-1.87,1.34-2.65,2.4-2.43.71.15,1.1.65,1.21,1.24l2.3.49c.11-1.74-1.08-3.16-3.05-3.58m-10.26,7.35l2.3.49,1.9-8.93-2.3-.49-1.9,8.93Zm2.78-13.3l-.52,2.46,2.38.51.52-2.46-2.38-.51Zm-8.42,4.8l1.53.32-.91,4.27c-.35,1.64.69,2.98,2.45,3.35l1.03.22.43-2.04-.64-.14c-.84-.18-1.05-.53-.8-1.71l.74-3.47,1.79.38.42-1.96-1.79-.38.56-2.61-1.87-.4-.3,1.4c-.16.74-.75,1.11-1.49.95l-.72-.15-.42,1.95Z" style="fill: #761e35; stroke-width: 0px;"/>
        <path d="m128.09,49.97l-1.9,8.93,2.3.49.95-4.47c.34-1.59,1.58-2.19,2.65-1.96l.64.14.47-2.2-.26-.06c-.89-.19-1.98.1-2.84,1.01l.3-1.4-2.3-.49Zm-4.3,8.43l1.9-8.94-2.28-.49-1.04,4.9c-.25,1.17-1.31,1.95-2.34,1.73-.71-.15-1.16-.74-.97-1.66l1.2-5.63-2.3-.49-1.35,6.36c-.36,1.71.6,3.06,2.15,3.39.95.2,1.97-.05,3.04-1l-.29,1.35,2.28.49Zm-14.36-7.7c.33-1.58,1.23-2.66,2.4-2.41,1.13.24,1.52,1.59,1.18,3.17-.33,1.58-1.23,2.64-2.36,2.4-1.17-.25-1.56-1.57-1.22-3.16m2.8-4.28c-2.35-.5-4.59.86-5.21,3.78-.62,2.92.89,5.01,3.24,5.51,2.3.49,4.55-.8,5.17-3.72.62-2.92-.88-5.08-3.19-5.57m-12.87-2.55l1.2,9.56-.14.25c-.55.98-1.32.96-2.03.8l-.79-.17-.43,2.04,1.43.3c1.66.35,2.93-.53,3.82-2.07l5.25-8.94-2.45-.52-2.91,5.39-.47-6.11-2.48-.53Zm-9.82,1.45c.47-1.15,1.17-1.52,1.92-1.36.81.17,1.31.88,1.15,2.01l-3.07-.65Zm2.3-3.24c-2.33-.5-4.41.9-5.04,3.82-.63,2.96.84,5,3.29,5.52,1.89.4,3.56-.27,4.33-2.1l-2.37-.5c-.39.64-.92.87-1.64.72-1.05-.22-1.49-1.06-1.28-2.61l5.53,1.18.15-.72c.57-2.68-.63-4.8-2.98-5.3m-4.39-.74l-2.48-.53-3.04,5.98-.46-6.72-2.41-.51,1.01,9.55,2.58.55,4.81-8.32Zm-13.67-2.9l-1.9,8.93,2.3.49.95-4.47c.34-1.59,1.58-2.19,2.65-1.96l.64.14.47-2.2-.26-.06c-.89-.19-1.98.1-2.84,1.01l.3-1.4-2.3-.49Zm-7.94,1.85c.47-1.15,1.16-1.52,1.92-1.36.81.17,1.31.88,1.15,2.01l-3.07-.65Zm2.3-3.24c-2.33-.5-4.41.9-5.04,3.82-.63,2.96.84,5,3.29,5.52,1.89.4,3.56-.27,4.33-2.1l-2.36-.5c-.39.64-.92.87-1.65.72-1.05-.22-1.49-1.06-1.28-2.61l5.54,1.18.15-.72c.57-2.68-.63-4.8-2.98-5.3m-9.12-1.94c-1.89-.4-3.79.31-4.18,2.13-.32,1.51.5,2.56,1.93,3.11l1.62.62c.55.22.98.5.86,1.04-.14.64-.84.82-1.68.64-.82-.17-1.42-.52-1.44-1.22l-2.35-.5c-.05,1.6.88,2.97,3.33,3.49,2.1.45,4.14-.08,4.56-2.07.39-1.86-1.02-2.72-2.23-3.17l-1.33-.51c-.49-.19-1.04-.51-.92-1.09.13-.61.73-.79,1.41-.65.57.12,1.06.5,1.07,1.09l2.38.51c.13-1.16-.72-2.93-3.03-3.43m-11.15,1.35c.47-1.15,1.16-1.52,1.92-1.36.81.17,1.31.88,1.15,2.01l-3.07-.65Zm2.3-3.24c-2.33-.5-4.41.9-5.04,3.82-.63,2.96.84,5,3.29,5.52,1.89.4,3.56-.27,4.33-2.1l-2.37-.5c-.39.64-.92.87-1.65.72-1.05-.22-1.49-1.06-1.28-2.61l5.53,1.18.15-.72c.57-2.68-.63-4.8-2.98-5.3m-9.68-1.87l-1.9,8.93,2.3.49.95-4.47c.34-1.59,1.58-2.19,2.65-1.96l.64.14.47-2.2-.26-.06c-.89-.19-1.98.1-2.84,1.01l.3-1.4-2.3-.49Z" style="fill: #761e35; stroke-width: 0px;"/>
      </g>
    </g>
  </g>
</svg>