<?xml version="1.0" encoding="UTF-8"?>
<svg id="Layer_2" data-name="Layer 2" xmlns="http://www.w3.org/2000/svg" viewBox="0 0 749.33 214.34">
  <g id="_1ERVLAG" data-name="1ERVLAG">
    <g>
      <polygon points="65.44 18.36 41.79 18.36 41.79 25.65 35.72 25.65 35.72 35.72 71.45 35.72 71.45 25.65 65.44 25.65 65.44 18.36" style="fill: #1d1d1b; stroke-width: 0px;"/>
      <polygon points="29.71 54.09 6.07 54.09 6.07 61.38 0 61.38 0 71.45 35.72 71.45 35.72 61.38 29.71 61.38 29.71 54.09" style="fill: #1d1d1b; stroke-width: 0px;"/>
      <polygon points="101.16 54.09 77.51 54.09 77.51 61.38 71.45 61.38 71.45 71.45 107.17 71.45 107.17 61.38 101.16 61.38 101.16 54.09" style="fill: #1d1d1b; stroke-width: 0px;"/>
      <polygon points="29.71 89.81 6.07 89.81 6.07 97.1 0 97.1 0 107.17 35.72 107.17 35.72 97.1 29.71 97.1 29.71 89.81" style="fill: #1d1d1b; stroke-width: 0px;"/>
      <polygon points="65.44 89.81 41.79 89.81 41.79 97.1 35.72 97.1 35.72 107.17 71.45 107.17 71.45 97.1 65.44 97.1 65.44 89.81" style="fill: #1d1d1b; stroke-width: 0px;"/>
      <polygon points="101.16 89.81 77.51 89.81 77.51 97.1 71.45 97.1 71.45 107.17 107.17 107.17 107.17 97.1 101.16 97.1 101.16 89.81" style="fill: #1d1d1b; stroke-width: 0px;"/>
      <polygon points="29.71 125.53 6.07 125.53 6.07 132.82 0 132.82 0 142.89 35.72 142.89 35.72 132.82 29.71 132.82 29.71 125.53" style="fill: #1d1d1b; stroke-width: 0px;"/>
      <polygon points="65.44 161.26 41.79 161.26 41.79 168.54 35.72 168.54 35.72 178.62 71.45 178.62 71.45 168.54 65.44 168.54 65.44 161.26" style="fill: #1d1d1b; stroke-width: 0px;"/>
      <polygon points="101.16 161.26 77.51 161.26 77.51 168.54 71.45 168.54 71.45 178.62 107.17 178.62 107.17 168.54 101.16 168.54 101.16 161.26" style="fill: #1d1d1b; stroke-width: 0px;"/>
      <polygon points="158.14 18.36 134.5 18.36 134.5 25.65 128.43 25.65 128.43 35.72 164.15 35.72 164.15 25.65 158.14 25.65 158.14 18.36" style="fill: #1d1d1b; stroke-width: 0px;"/>
      <polygon points="193.87 18.36 170.22 18.36 170.22 25.65 164.15 25.65 164.15 35.72 199.88 35.72 199.88 25.65 193.87 25.65 193.87 18.36" style="fill: #1d1d1b; stroke-width: 0px;"/>
      <polygon points="158.14 54.09 134.5 54.09 134.5 61.38 128.43 61.38 128.43 71.45 164.15 71.45 164.15 61.38 158.14 61.38 158.14 54.09" style="fill: #1d1d1b; stroke-width: 0px;"/>
      <polygon points="229.59 54.09 205.94 54.09 205.94 61.38 199.88 61.38 199.88 71.45 235.6 71.45 235.6 61.38 229.59 61.38 229.59 54.09" style="fill: #1d1d1b; stroke-width: 0px;"/>
      <polygon points="158.14 89.81 134.5 89.81 134.5 97.1 128.43 97.1 128.43 107.17 164.15 107.17 164.15 97.1 158.14 97.1 158.14 89.81" style="fill: #1d1d1b; stroke-width: 0px;"/>
      <polygon points="229.59 89.81 205.94 89.81 205.94 97.1 199.88 97.1 199.88 107.17 235.6 107.17 235.6 97.1 229.59 97.1 229.59 89.81" style="fill: #1d1d1b; stroke-width: 0px;"/>
      <polygon points="158.14 125.53 134.5 125.53 134.5 132.82 128.43 132.82 128.43 142.89 164.15 142.89 164.15 132.82 158.14 132.82 158.14 125.53" style="fill: #1d1d1b; stroke-width: 0px;"/>
      <polygon points="229.59 125.53 205.94 125.53 205.94 132.82 199.88 132.82 199.88 142.89 235.6 142.89 235.6 132.82 229.59 132.82 229.59 125.53" style="fill: #1d1d1b; stroke-width: 0px;"/>
      <polygon points="158.14 161.26 134.5 161.26 134.5 168.54 128.43 168.54 128.43 178.62 164.15 178.62 164.15 168.54 158.14 168.54 158.14 161.26" style="fill: #1d1d1b; stroke-width: 0px;"/>
      <polygon points="229.59 161.26 205.94 161.26 205.94 168.54 199.88 168.54 199.88 178.62 235.6 178.62 235.6 168.54 229.59 168.54 229.59 161.26" style="fill: #1d1d1b; stroke-width: 0px;"/>
      <polygon points="322.3 18.36 298.65 18.36 298.65 25.65 292.58 25.65 292.58 35.72 328.31 35.72 328.31 25.65 322.3 25.65 322.3 18.36" style="fill: #1d1d1b; stroke-width: 0px;"/>
      <polygon points="286.58 54.09 262.93 54.09 262.93 61.38 256.86 61.38 256.86 71.45 292.58 71.45 292.58 61.38 286.58 61.38 286.58 54.09" style="fill: #1d1d1b; stroke-width: 0px;"/>
      <polygon points="358.02 54.09 334.37 54.09 334.37 61.38 328.31 61.38 328.31 71.45 364.03 71.45 364.03 61.38 358.02 61.38 358.02 54.09" style="fill: #1d1d1b; stroke-width: 0px;"/>
      <polygon points="286.58 89.81 262.93 89.81 262.93 97.1 256.86 97.1 256.86 107.17 292.58 107.17 292.58 97.1 286.58 97.1 286.58 89.81" style="fill: #1d1d1b; stroke-width: 0px;"/>
      <polygon points="358.02 89.81 334.37 89.81 334.37 97.1 328.31 97.1 328.31 107.17 364.03 107.17 364.03 97.1 358.02 97.1 358.02 89.81" style="fill: #1d1d1b; stroke-width: 0px;"/>
      <polygon points="322.3 125.53 298.65 125.53 298.65 132.82 292.58 132.82 292.58 142.89 328.31 142.89 328.31 132.82 322.3 132.82 322.3 125.53" style="fill: #1d1d1b; stroke-width: 0px;"/>
      <polygon points="358.02 125.53 334.37 125.53 334.37 132.82 328.31 132.82 328.31 142.89 364.03 142.89 364.03 132.82 358.02 132.82 358.02 125.53" style="fill: #1d1d1b; stroke-width: 0px;"/>
      <polygon points="358.02 161.26 334.37 161.26 334.37 168.54 328.31 168.54 328.31 178.62 364.03 178.62 364.03 168.54 358.02 168.54 358.02 161.26" style="fill: #1d1d1b; stroke-width: 0px;"/>
      <polygon points="286.58 196.98 262.93 196.98 262.93 204.27 256.86 204.27 256.86 214.34 292.58 214.34 292.58 204.27 286.58 204.27 286.58 196.98" style="fill: #1d1d1b; stroke-width: 0px;"/>
      <polygon points="322.3 196.98 298.65 196.98 298.65 204.27 292.58 204.27 292.58 214.34 328.31 214.34 328.31 204.27 322.3 204.27 322.3 196.98" style="fill: #1d1d1b; stroke-width: 0px;"/>
      <polygon points="415.01 18.36 391.36 18.36 391.36 25.65 385.29 25.65 385.29 35.72 421.02 35.72 421.02 25.65 415.01 25.65 415.01 18.36" style="fill: #1d1d1b; stroke-width: 0px;"/>
      <polygon points="450.73 18.36 427.08 18.36 427.08 25.65 421.02 25.65 421.02 35.72 456.74 35.72 456.74 25.65 450.73 25.65 450.73 18.36" style="fill: #1d1d1b; stroke-width: 0px;"/>
      <polygon points="486.45 54.09 462.8 54.09 462.8 61.38 456.74 61.38 456.74 71.45 492.46 71.45 492.46 61.38 486.45 61.38 486.45 54.09" style="fill: #1d1d1b; stroke-width: 0px;"/>
      <polygon points="415.01 89.81 391.36 89.81 391.36 97.1 385.29 97.1 385.29 107.17 421.02 107.17 421.02 97.1 415.01 97.1 415.01 89.81" style="fill: #1d1d1b; stroke-width: 0px;"/>
      <polygon points="450.73 89.81 427.08 89.81 427.08 97.1 421.02 97.1 421.02 107.17 456.74 107.17 456.74 97.1 450.73 97.1 450.73 89.81" style="fill: #1d1d1b; stroke-width: 0px;"/>
      <polygon points="486.45 89.81 462.8 89.81 462.8 97.1 456.74 97.1 456.74 107.17 492.46 107.17 492.46 97.1 486.45 97.1 486.45 89.81" style="fill: #1d1d1b; stroke-width: 0px;"/>
      <polygon points="415.01 125.53 391.36 125.53 391.36 132.82 385.29 132.82 385.29 142.89 421.02 142.89 421.02 132.82 415.01 132.82 415.01 125.53" style="fill: #1d1d1b; stroke-width: 0px;"/>
      <polygon points="486.45 125.53 462.8 125.53 462.8 132.82 456.74 132.82 456.74 142.89 492.46 142.89 492.46 132.82 486.45 132.82 486.45 125.53" style="fill: #1d1d1b; stroke-width: 0px;"/>
      <polygon points="450.73 161.26 427.08 161.26 427.08 168.54 421.02 168.54 421.02 178.62 456.74 178.62 456.74 168.54 450.73 168.54 450.73 161.26" style="fill: #1d1d1b; stroke-width: 0px;"/>
      <polygon points="486.45 161.26 462.8 161.26 462.8 168.54 456.74 168.54 456.74 178.62 492.46 178.62 492.46 168.54 486.45 168.54 486.45 161.26" style="fill: #1d1d1b; stroke-width: 0px;"/>
      <polygon points="579.16 18.36 555.51 18.36 555.51 25.65 549.45 25.65 549.45 35.72 585.17 35.72 585.17 25.65 579.16 25.65 579.16 18.36" style="fill: #1d1d1b; stroke-width: 0px;"/>
      <polygon points="543.44 54.09 519.79 54.09 519.79 61.38 513.72 61.38 513.72 71.45 549.45 71.45 549.45 61.38 543.44 61.38 543.44 54.09" style="fill: #1d1d1b; stroke-width: 0px;"/>
      <polygon points="614.89 54.09 591.24 54.09 591.24 61.38 585.17 61.38 585.17 71.45 620.89 71.45 620.89 61.38 614.89 61.38 614.89 54.09" style="fill: #1d1d1b; stroke-width: 0px;"/>
      <polygon points="543.44 89.81 519.79 89.81 519.79 97.1 513.72 97.1 513.72 107.17 549.45 107.17 549.45 97.1 543.44 97.1 543.44 89.81" style="fill: #1d1d1b; stroke-width: 0px;"/>
      <polygon points="614.89 89.81 591.24 89.81 591.24 97.1 585.17 97.1 585.17 107.17 620.89 107.17 620.89 97.1 614.89 97.1 614.89 89.81" style="fill: #1d1d1b; stroke-width: 0px;"/>
      <polygon points="579.16 125.53 555.51 125.53 555.51 132.82 549.45 132.82 549.45 142.89 585.17 142.89 585.17 132.82 579.16 132.82 579.16 125.53" style="fill: #1d1d1b; stroke-width: 0px;"/>
      <polygon points="614.89 125.53 591.24 125.53 591.24 132.82 585.17 132.82 585.17 142.89 620.89 142.89 620.89 132.82 614.89 132.82 614.89 125.53" style="fill: #1d1d1b; stroke-width: 0px;"/>
      <polygon points="614.89 161.26 591.24 161.26 591.24 168.54 585.17 168.54 585.17 178.62 620.89 178.62 620.89 168.54 614.89 168.54 614.89 161.26" style="fill: #1d1d1b; stroke-width: 0px;"/>
      <polygon points="543.44 196.98 519.79 196.98 519.79 204.27 513.72 204.27 513.72 214.34 549.45 214.34 549.45 204.27 543.44 204.27 543.44 196.98" style="fill: #1d1d1b; stroke-width: 0px;"/>
      <polygon points="579.16 196.98 555.51 196.98 555.51 204.27 549.45 204.27 549.45 214.34 585.17 214.34 585.17 204.27 579.16 204.27 579.16 196.98" style="fill: #1d1d1b; stroke-width: 0px;"/>
      <polygon points="707.59 18.36 683.94 18.36 683.94 25.65 677.88 25.65 677.88 35.72 713.6 35.72 713.6 25.65 707.59 25.65 707.59 18.36" style="fill: #1d1d1b; stroke-width: 0px;"/>
      <polygon points="671.87 54.09 648.22 54.09 648.22 61.38 642.15 61.38 642.15 71.45 677.88 71.45 677.88 61.38 671.87 61.38 671.87 54.09" style="fill: #1d1d1b; stroke-width: 0px;"/>
      <polygon points="743.32 54.09 719.67 54.09 719.67 61.38 713.6 61.38 713.6 71.45 749.33 71.45 749.33 61.38 743.32 61.38 743.32 54.09" style="fill: #1d1d1b; stroke-width: 0px;"/>
      <polygon points="671.87 89.81 648.22 89.81 648.22 97.1 642.15 97.1 642.15 107.17 677.88 107.17 677.88 97.1 671.87 97.1 671.87 89.81" style="fill: #1d1d1b; stroke-width: 0px;"/>
      <polygon points="707.59 89.81 683.94 89.81 683.94 97.1 677.88 97.1 677.88 107.17 713.6 107.17 713.6 97.1 707.59 97.1 707.59 89.81" style="fill: #1d1d1b; stroke-width: 0px;"/>
      <polygon points="743.32 89.81 719.67 89.81 719.67 97.1 713.6 97.1 713.6 107.17 749.33 107.17 749.33 97.1 743.32 97.1 743.32 89.81" style="fill: #1d1d1b; stroke-width: 0px;"/>
      <polygon points="671.87 125.53 648.22 125.53 648.22 132.82 642.15 132.82 642.15 142.89 677.88 142.89 677.88 132.82 671.87 132.82 671.87 125.53" style="fill: #1d1d1b; stroke-width: 0px;"/>
      <polygon points="707.59 161.26 683.94 161.26 683.94 168.54 677.88 168.54 677.88 178.62 713.6 178.62 713.6 168.54 707.59 168.54 707.59 161.26" style="fill: #1d1d1b; stroke-width: 0px;"/>
      <polygon points="743.32 161.26 719.67 161.26 719.67 168.54 713.6 168.54 713.6 178.62 749.33 178.62 749.33 168.54 743.32 168.54 743.32 161.26" style="fill: #1d1d1b; stroke-width: 0px;"/>
    </g>
    <g>
      <g>
        <path d="m274.72,195.03c9.35,0,17.03-7.23,17.86-16.41h-35.72c.84,9.18,8.51,16.41,17.86,16.41Z" style="fill: #1d1d1b; stroke-width: 0px;"/>
        <path d="m310.45,195.03c9.35,0,17.03-7.23,17.86-16.41h-35.73c.84,9.18,8.51,16.41,17.86,16.41Z" style="fill: #1d1d1b; stroke-width: 0px;"/>
        <path d="m531.59,195.03c9.35,0,17.03-7.23,17.86-16.41h-35.72c.84,9.18,8.51,16.41,17.86,16.41Z" style="fill: #1d1d1b; stroke-width: 0px;"/>
        <path d="m567.31,195.03c9.35,0,17.03-7.23,17.86-16.41h-35.73c.84,9.18,8.51,16.41,17.86,16.41Z" style="fill: #1d1d1b; stroke-width: 0px;"/>
      </g>
      <g>
        <path d="m53.59,16.41c9.35,0,17.03-7.23,17.86-16.41h-35.73c.84,9.18,8.51,16.41,17.86,16.41Z" style="fill: #1d1d1b; stroke-width: 0px;"/>
        <path d="m146.29,16.41c9.35,0,17.03-7.23,17.86-16.41h-35.72c.84,9.18,8.51,16.41,17.86,16.41Z" style="fill: #1d1d1b; stroke-width: 0px;"/>
        <path d="m182.02,16.41c9.35,0,17.03-7.23,17.86-16.41h-35.73c.84,9.18,8.51,16.41,17.86,16.41Z" style="fill: #1d1d1b; stroke-width: 0px;"/>
        <path d="m310.45,16.41c9.35,0,17.03-7.23,17.86-16.41h-35.73c.84,9.18,8.51,16.41,17.86,16.41Z" style="fill: #1d1d1b; stroke-width: 0px;"/>
        <path d="m403.16,16.41c9.35,0,17.03-7.23,17.86-16.41h-35.72c.84,9.18,8.51,16.41,17.86,16.41Z" style="fill: #1d1d1b; stroke-width: 0px;"/>
        <path d="m438.88,16.41c9.35,0,17.03-7.23,17.86-16.41h-35.73c.84,9.18,8.51,16.41,17.86,16.41Z" style="fill: #1d1d1b; stroke-width: 0px;"/>
        <path d="m567.31,16.41c9.35,0,17.03-7.23,17.86-16.41h-35.73c.84,9.18,8.51,16.41,17.86,16.41Z" style="fill: #1d1d1b; stroke-width: 0px;"/>
        <path d="m695.74,16.41c9.35,0,17.03-7.23,17.86-16.41h-35.73c.84,9.18,8.51,16.41,17.86,16.41Z" style="fill: #1d1d1b; stroke-width: 0px;"/>
      </g>
      <g>
        <path d="m17.86,52.14c9.35,0,17.03-7.24,17.86-16.42H0c.84,9.18,8.51,16.42,17.86,16.42Z" style="fill: #1d1d1b; stroke-width: 0px;"/>
        <path d="m89.31,52.14c9.35,0,17.03-7.24,17.86-16.42h-35.72c.83,9.18,8.51,16.42,17.86,16.42Z" style="fill: #1d1d1b; stroke-width: 0px;"/>
        <path d="m146.29,52.14c9.35,0,17.03-7.24,17.86-16.42h-35.72c.84,9.18,8.51,16.42,17.86,16.42Z" style="fill: #1d1d1b; stroke-width: 0px;"/>
        <path d="m217.74,52.14c9.35,0,17.03-7.24,17.86-16.42h-35.72c.83,9.18,8.51,16.42,17.86,16.42Z" style="fill: #1d1d1b; stroke-width: 0px;"/>
        <path d="m274.72,52.14c9.35,0,17.03-7.24,17.86-16.42h-35.72c.84,9.18,8.51,16.42,17.86,16.42Z" style="fill: #1d1d1b; stroke-width: 0px;"/>
        <path d="m346.17,52.14c9.35,0,17.03-7.24,17.86-16.42h-35.72c.83,9.18,8.51,16.42,17.86,16.42Z" style="fill: #1d1d1b; stroke-width: 0px;"/>
        <path d="m474.6,52.14c9.35,0,17.03-7.24,17.86-16.42h-35.72c.83,9.18,8.51,16.42,17.86,16.42Z" style="fill: #1d1d1b; stroke-width: 0px;"/>
        <path d="m531.59,52.14c9.35,0,17.03-7.24,17.86-16.42h-35.72c.84,9.18,8.51,16.42,17.86,16.42Z" style="fill: #1d1d1b; stroke-width: 0px;"/>
        <path d="m603.03,52.14c9.35,0,17.03-7.24,17.86-16.42h-35.72c.83,9.18,8.51,16.42,17.86,16.42Z" style="fill: #1d1d1b; stroke-width: 0px;"/>
        <path d="m660.02,52.14c9.35,0,17.03-7.24,17.86-16.42h-35.72c.84,9.18,8.51,16.42,17.86,16.42Z" style="fill: #1d1d1b; stroke-width: 0px;"/>
        <path d="m731.46,52.14c9.35,0,17.03-7.24,17.86-16.42h-35.72c.83,9.18,8.51,16.42,17.86,16.42Z" style="fill: #1d1d1b; stroke-width: 0px;"/>
      </g>
      <g>
        <path d="m17.86,87.86c9.35,0,17.03-7.23,17.86-16.41H0c.84,9.18,8.51,16.41,17.86,16.41Z" style="fill: #1d1d1b; stroke-width: 0px;"/>
        <path d="m53.59,87.86c9.35,0,17.03-7.23,17.86-16.41h-35.73c.84,9.18,8.51,16.41,17.86,16.41Z" style="fill: #1d1d1b; stroke-width: 0px;"/>
        <path d="m89.31,87.86c9.35,0,17.03-7.23,17.86-16.41h-35.72c.83,9.18,8.51,16.41,17.86,16.41Z" style="fill: #1d1d1b; stroke-width: 0px;"/>
        <path d="m146.29,87.86c9.35,0,17.03-7.23,17.86-16.41h-35.72c.84,9.18,8.51,16.41,17.86,16.41Z" style="fill: #1d1d1b; stroke-width: 0px;"/>
        <path d="m217.74,87.86c9.35,0,17.03-7.23,17.86-16.41h-35.72c.83,9.18,8.51,16.41,17.86,16.41Z" style="fill: #1d1d1b; stroke-width: 0px;"/>
        <path d="m274.72,87.86c9.35,0,17.03-7.23,17.86-16.41h-35.72c.84,9.18,8.51,16.41,17.86,16.41Z" style="fill: #1d1d1b; stroke-width: 0px;"/>
        <path d="m346.17,87.86c9.35,0,17.03-7.23,17.86-16.41h-35.72c.83,9.18,8.51,16.41,17.86,16.41Z" style="fill: #1d1d1b; stroke-width: 0px;"/>
        <path d="m403.16,87.86c9.35,0,17.03-7.23,17.86-16.41h-35.72c.84,9.18,8.51,16.41,17.86,16.41Z" style="fill: #1d1d1b; stroke-width: 0px;"/>
        <path d="m438.88,87.86c9.35,0,17.03-7.23,17.86-16.41h-35.73c.84,9.18,8.51,16.41,17.86,16.41Z" style="fill: #1d1d1b; stroke-width: 0px;"/>
        <path d="m474.6,87.86c9.35,0,17.03-7.23,17.86-16.41h-35.72c.83,9.18,8.51,16.41,17.86,16.41Z" style="fill: #1d1d1b; stroke-width: 0px;"/>
        <path d="m531.59,87.86c9.35,0,17.03-7.23,17.86-16.41h-35.72c.84,9.18,8.51,16.41,17.86,16.41Z" style="fill: #1d1d1b; stroke-width: 0px;"/>
        <path d="m603.03,87.86c9.35,0,17.03-7.23,17.86-16.41h-35.72c.83,9.18,8.51,16.41,17.86,16.41Z" style="fill: #1d1d1b; stroke-width: 0px;"/>
        <path d="m660.02,87.86c9.35,0,17.03-7.23,17.86-16.41h-35.72c.84,9.18,8.51,16.41,17.86,16.41Z" style="fill: #1d1d1b; stroke-width: 0px;"/>
        <path d="m695.74,87.86c9.35,0,17.03-7.23,17.86-16.41h-35.73c.84,9.18,8.51,16.41,17.86,16.41Z" style="fill: #1d1d1b; stroke-width: 0px;"/>
        <path d="m731.46,87.86c9.35,0,17.03-7.23,17.86-16.41h-35.72c.83,9.18,8.51,16.41,17.86,16.41Z" style="fill: #1d1d1b; stroke-width: 0px;"/>
      </g>
      <g>
        <path d="m17.86,123.59c9.35,0,17.03-7.23,17.86-16.41H0c.84,9.18,8.51,16.41,17.86,16.41Z" style="fill: #1d1d1b; stroke-width: 0px;"/>
        <path d="m146.29,123.59c9.35,0,17.03-7.23,17.86-16.41h-35.72c.84,9.18,8.51,16.41,17.86,16.41Z" style="fill: #1d1d1b; stroke-width: 0px;"/>
        <path d="m217.74,123.59c9.35,0,17.03-7.23,17.86-16.41h-35.72c.83,9.18,8.51,16.41,17.86,16.41Z" style="fill: #1d1d1b; stroke-width: 0px;"/>
        <path d="m310.45,123.59c9.35,0,17.03-7.23,17.86-16.41h-35.73c.84,9.18,8.51,16.41,17.86,16.41Z" style="fill: #1d1d1b; stroke-width: 0px;"/>
        <path d="m346.17,123.59c9.35,0,17.03-7.23,17.86-16.41h-35.72c.83,9.18,8.51,16.41,17.86,16.41Z" style="fill: #1d1d1b; stroke-width: 0px;"/>
        <path d="m403.16,123.59c9.35,0,17.03-7.23,17.86-16.41h-35.72c.84,9.18,8.51,16.41,17.86,16.41Z" style="fill: #1d1d1b; stroke-width: 0px;"/>
        <path d="m474.6,123.59c9.35,0,17.03-7.23,17.86-16.41h-35.72c.83,9.18,8.51,16.41,17.86,16.41Z" style="fill: #1d1d1b; stroke-width: 0px;"/>
        <path d="m567.31,123.59c9.35,0,17.03-7.23,17.86-16.41h-35.73c.84,9.18,8.51,16.41,17.86,16.41Z" style="fill: #1d1d1b; stroke-width: 0px;"/>
        <path d="m603.03,123.59c9.35,0,17.03-7.23,17.86-16.41h-35.72c.83,9.18,8.51,16.41,17.86,16.41Z" style="fill: #1d1d1b; stroke-width: 0px;"/>
        <path d="m660.02,123.59c9.35,0,17.03-7.23,17.86-16.41h-35.72c.84,9.18,8.51,16.41,17.86,16.41Z" style="fill: #1d1d1b; stroke-width: 0px;"/>
      </g>
      <g>
        <path d="m53.59,159.31c9.35,0,17.03-7.23,17.86-16.41h-35.73c.84,9.18,8.51,16.41,17.86,16.41Z" style="fill: #1d1d1b; stroke-width: 0px;"/>
        <path d="m89.31,159.31c9.35,0,17.03-7.23,17.86-16.41h-35.72c.83,9.18,8.51,16.41,17.86,16.41Z" style="fill: #1d1d1b; stroke-width: 0px;"/>
        <path d="m146.29,159.31c9.35,0,17.03-7.23,17.86-16.41h-35.72c.84,9.18,8.51,16.41,17.86,16.41Z" style="fill: #1d1d1b; stroke-width: 0px;"/>
        <path d="m217.74,159.31c9.35,0,17.03-7.23,17.86-16.41h-35.72c.83,9.18,8.51,16.41,17.86,16.41Z" style="fill: #1d1d1b; stroke-width: 0px;"/>
        <path d="m346.17,159.31c9.35,0,17.03-7.23,17.86-16.41h-35.72c.83,9.18,8.51,16.41,17.86,16.41Z" style="fill: #1d1d1b; stroke-width: 0px;"/>
        <path d="m438.88,159.31c9.35,0,17.03-7.23,17.86-16.41h-35.73c.84,9.18,8.51,16.41,17.86,16.41Z" style="fill: #1d1d1b; stroke-width: 0px;"/>
        <path d="m474.6,159.31c9.35,0,17.03-7.23,17.86-16.41h-35.72c.83,9.18,8.51,16.41,17.86,16.41Z" style="fill: #1d1d1b; stroke-width: 0px;"/>
        <path d="m603.03,159.31c9.35,0,17.03-7.23,17.86-16.41h-35.72c.83,9.18,8.51,16.41,17.86,16.41Z" style="fill: #1d1d1b; stroke-width: 0px;"/>
        <path d="m695.74,159.31c9.35,0,17.03-7.23,17.86-16.41h-35.73c.84,9.18,8.51,16.41,17.86,16.41Z" style="fill: #1d1d1b; stroke-width: 0px;"/>
        <path d="m731.46,159.31c9.35,0,17.03-7.23,17.86-16.41h-35.72c.83,9.18,8.51,16.41,17.86,16.41Z" style="fill: #1d1d1b; stroke-width: 0px;"/>
      </g>
    </g>
  </g>
</svg>