<?xml version="1.0" encoding="UTF-8"?>
<svg id="Layer_2" data-name="Layer 2" xmlns="http://www.w3.org/2000/svg" viewBox="0 0 1606.75 286.49">
  <g id="_1ERVLAG" data-name="1ERVLAG">
    <g>
      <g>
        <polygon points="65.44 90.51 41.79 90.51 41.79 97.8 35.72 97.8 35.72 107.87 71.45 107.87 71.45 97.8 65.44 97.8 65.44 90.51" style="fill: #1d1d1b; stroke-width: 0px;"/>
        <path d="m53.59,88.56c9.35,0,17.03-7.23,17.86-16.41h-35.73c.84,9.18,8.51,16.41,17.86,16.41Z" style="fill: #1d1d1b; stroke-width: 0px;"/>
        <polygon points="29.71 126.23 6.07 126.23 6.07 133.52 0 133.52 0 143.59 35.72 143.59 35.72 133.52 29.71 133.52 29.71 126.23" style="fill: #1d1d1b; stroke-width: 0px;"/>
        <path d="m17.86,124.29c9.35,0,17.03-7.24,17.86-16.42H0c.84,9.18,8.51,16.42,17.86,16.42Z" style="fill: #1d1d1b; stroke-width: 0px;"/>
        <polygon points="101.16 126.23 77.51 126.23 77.51 133.52 71.45 133.52 71.45 143.59 107.17 143.59 107.17 133.52 101.16 133.52 101.16 126.23" style="fill: #1d1d1b; stroke-width: 0px;"/>
        <path d="m89.31,124.29c9.35,0,17.03-7.24,17.86-16.42h-35.72c.83,9.18,8.51,16.42,17.86,16.42Z" style="fill: #1d1d1b; stroke-width: 0px;"/>
        <polygon points="29.71 161.95 6.07 161.95 6.07 169.25 0 169.25 0 179.32 35.72 179.32 35.72 169.25 29.71 169.25 29.71 161.95" style="fill: #1d1d1b; stroke-width: 0px;"/>
        <path d="m17.86,160.01c9.35,0,17.03-7.23,17.86-16.41H0c.84,9.18,8.51,16.41,17.86,16.41Z" style="fill: #1d1d1b; stroke-width: 0px;"/>
        <polygon points="65.44 161.95 41.79 161.95 41.79 169.25 35.72 169.25 35.72 179.32 71.45 179.32 71.45 169.25 65.44 169.25 65.44 161.95" style="fill: #1d1d1b; stroke-width: 0px;"/>
        <path d="m53.59,160.01c9.35,0,17.03-7.23,17.86-16.41h-35.73c.84,9.18,8.51,16.41,17.86,16.41Z" style="fill: #1d1d1b; stroke-width: 0px;"/>
        <polygon points="101.16 161.95 77.51 161.95 77.51 169.25 71.45 169.25 71.45 179.32 107.17 179.32 107.17 169.25 101.16 169.25 101.16 161.95" style="fill: #1d1d1b; stroke-width: 0px;"/>
        <path d="m89.31,160.01c9.35,0,17.03-7.23,17.86-16.41h-35.72c.83,9.18,8.51,16.41,17.86,16.41Z" style="fill: #1d1d1b; stroke-width: 0px;"/>
        <polygon points="29.71 197.68 6.07 197.68 6.07 204.97 0 204.97 0 215.04 35.72 215.04 35.72 204.97 29.71 204.97 29.71 197.68" style="fill: #1d1d1b; stroke-width: 0px;"/>
        <path d="m17.86,195.73c9.35,0,17.03-7.23,17.86-16.41H0c.84,9.18,8.51,16.41,17.86,16.41Z" style="fill: #1d1d1b; stroke-width: 0px;"/>
        <polygon points="65.44 233.4 41.79 233.4 41.79 240.69 35.72 240.69 35.72 250.76 71.45 250.76 71.45 240.69 65.44 240.69 65.44 233.4" style="fill: #1d1d1b; stroke-width: 0px;"/>
        <path d="m53.59,231.45c9.35,0,17.03-7.23,17.86-16.41h-35.73c.84,9.18,8.51,16.41,17.86,16.41Z" style="fill: #1d1d1b; stroke-width: 0px;"/>
        <polygon points="101.16 233.4 77.51 233.4 77.51 240.69 71.45 240.69 71.45 250.76 107.17 250.76 107.17 240.69 101.16 240.69 101.16 233.4" style="fill: #1d1d1b; stroke-width: 0px;"/>
        <path d="m89.31,231.45c9.35,0,17.03-7.23,17.86-16.41h-35.72c.83,9.18,8.51,16.41,17.86,16.41Z" style="fill: #1d1d1b; stroke-width: 0px;"/>
      </g>
      <g>
        <polygon points="158.14 90.51 134.5 90.51 134.5 97.8 128.43 97.8 128.43 107.87 164.15 107.87 164.15 97.8 158.14 97.8 158.14 90.51" style="fill: #1d1d1b; stroke-width: 0px;"/>
        <path d="m146.29,88.56c9.35,0,17.03-7.23,17.86-16.41h-35.72c.84,9.18,8.51,16.41,17.86,16.41Z" style="fill: #1d1d1b; stroke-width: 0px;"/>
        <polygon points="193.87 90.51 170.22 90.51 170.22 97.8 164.15 97.8 164.15 107.87 199.88 107.87 199.88 97.8 193.87 97.8 193.87 90.51" style="fill: #1d1d1b; stroke-width: 0px;"/>
        <path d="m182.02,88.56c9.35,0,17.03-7.23,17.86-16.41h-35.73c.84,9.18,8.51,16.41,17.86,16.41Z" style="fill: #1d1d1b; stroke-width: 0px;"/>
        <polygon points="158.14 126.23 134.5 126.23 134.5 133.52 128.43 133.52 128.43 143.59 164.15 143.59 164.15 133.52 158.14 133.52 158.14 126.23" style="fill: #1d1d1b; stroke-width: 0px;"/>
        <path d="m146.29,124.29c9.35,0,17.03-7.24,17.86-16.42h-35.72c.84,9.18,8.51,16.42,17.86,16.42Z" style="fill: #1d1d1b; stroke-width: 0px;"/>
        <polygon points="229.59 126.23 205.94 126.23 205.94 133.52 199.88 133.52 199.88 143.59 235.6 143.59 235.6 133.52 229.59 133.52 229.59 126.23" style="fill: #1d1d1b; stroke-width: 0px;"/>
        <path d="m217.74,124.29c9.35,0,17.03-7.24,17.86-16.42h-35.72c.83,9.18,8.51,16.42,17.86,16.42Z" style="fill: #1d1d1b; stroke-width: 0px;"/>
        <polygon points="158.14 161.95 134.5 161.95 134.5 169.25 128.43 169.25 128.43 179.32 164.15 179.32 164.15 169.25 158.14 169.25 158.14 161.95" style="fill: #1d1d1b; stroke-width: 0px;"/>
        <path d="m146.29,160.01c9.35,0,17.03-7.23,17.86-16.41h-35.72c.84,9.18,8.51,16.41,17.86,16.41Z" style="fill: #1d1d1b; stroke-width: 0px;"/>
        <polygon points="229.59 161.95 205.94 161.95 205.94 169.25 199.88 169.25 199.88 179.32 235.6 179.32 235.6 169.25 229.59 169.25 229.59 161.95" style="fill: #1d1d1b; stroke-width: 0px;"/>
        <path d="m217.74,160.01c9.35,0,17.03-7.23,17.86-16.41h-35.72c.83,9.18,8.51,16.41,17.86,16.41Z" style="fill: #1d1d1b; stroke-width: 0px;"/>
        <polygon points="158.14 197.68 134.5 197.68 134.5 204.97 128.43 204.97 128.43 215.04 164.15 215.04 164.15 204.97 158.14 204.97 158.14 197.68" style="fill: #1d1d1b; stroke-width: 0px;"/>
        <path d="m146.29,195.73c9.35,0,17.03-7.23,17.86-16.41h-35.72c.84,9.18,8.51,16.41,17.86,16.41Z" style="fill: #1d1d1b; stroke-width: 0px;"/>
        <polygon points="229.59 197.68 205.94 197.68 205.94 204.97 199.88 204.97 199.88 215.04 235.6 215.04 235.6 204.97 229.59 204.97 229.59 197.68" style="fill: #1d1d1b; stroke-width: 0px;"/>
        <path d="m217.74,195.73c9.35,0,17.03-7.23,17.86-16.41h-35.72c.83,9.18,8.51,16.41,17.86,16.41Z" style="fill: #1d1d1b; stroke-width: 0px;"/>
        <polygon points="158.14 233.4 134.5 233.4 134.5 240.69 128.43 240.69 128.43 250.76 164.15 250.76 164.15 240.69 158.14 240.69 158.14 233.4" style="fill: #1d1d1b; stroke-width: 0px;"/>
        <path d="m146.29,231.45c9.35,0,17.03-7.23,17.86-16.41h-35.72c.84,9.18,8.51,16.41,17.86,16.41Z" style="fill: #1d1d1b; stroke-width: 0px;"/>
        <polygon points="229.59 233.4 205.94 233.4 205.94 240.69 199.88 240.69 199.88 250.76 235.6 250.76 235.6 240.69 229.59 240.69 229.59 233.4" style="fill: #1d1d1b; stroke-width: 0px;"/>
        <path d="m217.74,231.45c9.35,0,17.03-7.23,17.86-16.41h-35.72c.83,9.18,8.51,16.41,17.86,16.41Z" style="fill: #1d1d1b; stroke-width: 0px;"/>
      </g>
      <g>
        <polygon points="322.3 90.51 298.65 90.51 298.65 97.8 292.58 97.8 292.58 107.87 328.31 107.87 328.31 97.8 322.3 97.8 322.3 90.51" style="fill: #1d1d1b; stroke-width: 0px;"/>
        <path d="m310.45,88.56c9.35,0,17.03-7.23,17.86-16.41h-35.73c.84,9.18,8.51,16.41,17.86,16.41Z" style="fill: #1d1d1b; stroke-width: 0px;"/>
        <polygon points="286.58 126.23 262.93 126.23 262.93 133.52 256.86 133.52 256.86 143.59 292.58 143.59 292.58 133.52 286.58 133.52 286.58 126.23" style="fill: #1d1d1b; stroke-width: 0px;"/>
        <path d="m274.72,124.29c9.35,0,17.03-7.24,17.86-16.42h-35.72c.84,9.18,8.51,16.42,17.86,16.42Z" style="fill: #1d1d1b; stroke-width: 0px;"/>
        <polygon points="358.02 126.23 334.37 126.23 334.37 133.52 328.31 133.52 328.31 143.59 364.03 143.59 364.03 133.52 358.02 133.52 358.02 126.23" style="fill: #1d1d1b; stroke-width: 0px;"/>
        <path d="m346.17,124.29c9.35,0,17.03-7.24,17.86-16.42h-35.72c.83,9.18,8.51,16.42,17.86,16.42Z" style="fill: #1d1d1b; stroke-width: 0px;"/>
        <polygon points="286.58 161.95 262.93 161.95 262.93 169.25 256.86 169.25 256.86 179.32 292.58 179.32 292.58 169.25 286.58 169.25 286.58 161.95" style="fill: #1d1d1b; stroke-width: 0px;"/>
        <path d="m274.72,160.01c9.35,0,17.03-7.23,17.86-16.41h-35.72c.84,9.18,8.51,16.41,17.86,16.41Z" style="fill: #1d1d1b; stroke-width: 0px;"/>
        <polygon points="358.02 161.95 334.37 161.95 334.37 169.25 328.31 169.25 328.31 179.32 364.03 179.32 364.03 169.25 358.02 169.25 358.02 161.95" style="fill: #1d1d1b; stroke-width: 0px;"/>
        <path d="m346.17,160.01c9.35,0,17.03-7.23,17.86-16.41h-35.72c.83,9.18,8.51,16.41,17.86,16.41Z" style="fill: #1d1d1b; stroke-width: 0px;"/>
        <polygon points="322.3 197.68 298.65 197.68 298.65 204.97 292.58 204.97 292.58 215.04 328.31 215.04 328.31 204.97 322.3 204.97 322.3 197.68" style="fill: #1d1d1b; stroke-width: 0px;"/>
        <path d="m310.45,195.73c9.35,0,17.03-7.23,17.86-16.41h-35.73c.84,9.18,8.51,16.41,17.86,16.41Z" style="fill: #1d1d1b; stroke-width: 0px;"/>
        <polygon points="358.02 197.68 334.37 197.68 334.37 204.97 328.31 204.97 328.31 215.04 364.03 215.04 364.03 204.97 358.02 204.97 358.02 197.68" style="fill: #1d1d1b; stroke-width: 0px;"/>
        <path d="m346.17,195.73c9.35,0,17.03-7.23,17.86-16.41h-35.72c.83,9.18,8.51,16.41,17.86,16.41Z" style="fill: #1d1d1b; stroke-width: 0px;"/>
        <polygon points="358.02 233.4 334.37 233.4 334.37 240.69 328.31 240.69 328.31 250.76 364.03 250.76 364.03 240.69 358.02 240.69 358.02 233.4" style="fill: #1d1d1b; stroke-width: 0px;"/>
        <path d="m346.17,231.45c9.35,0,17.03-7.23,17.86-16.41h-35.72c.83,9.18,8.51,16.41,17.86,16.41Z" style="fill: #1d1d1b; stroke-width: 0px;"/>
        <polygon points="286.58 269.13 262.93 269.13 262.93 276.42 256.86 276.42 256.86 286.49 292.58 286.49 292.58 276.42 286.58 276.42 286.58 269.13" style="fill: #1d1d1b; stroke-width: 0px;"/>
        <path d="m274.72,267.18c9.35,0,17.03-7.23,17.86-16.41h-35.72c.84,9.18,8.51,16.41,17.86,16.41Z" style="fill: #1d1d1b; stroke-width: 0px;"/>
        <polygon points="322.3 269.13 298.65 269.13 298.65 276.42 292.58 276.42 292.58 286.49 328.31 286.49 328.31 276.42 322.3 276.42 322.3 269.13" style="fill: #1d1d1b; stroke-width: 0px;"/>
        <path d="m310.45,267.18c9.35,0,17.03-7.23,17.86-16.41h-35.73c.84,9.18,8.51,16.41,17.86,16.41Z" style="fill: #1d1d1b; stroke-width: 0px;"/>
      </g>
      <g>
        <polygon points="415.01 90.51 391.36 90.51 391.36 97.8 385.29 97.8 385.29 107.87 421.02 107.87 421.02 97.8 415.01 97.8 415.01 90.51" style="fill: #1d1d1b; stroke-width: 0px;"/>
        <path d="m403.16,88.56c9.35,0,17.03-7.23,17.86-16.41h-35.72c.84,9.18,8.51,16.41,17.86,16.41Z" style="fill: #1d1d1b; stroke-width: 0px;"/>
        <polygon points="450.73 90.51 427.08 90.51 427.08 97.8 421.02 97.8 421.02 107.87 456.74 107.87 456.74 97.8 450.73 97.8 450.73 90.51" style="fill: #1d1d1b; stroke-width: 0px;"/>
        <path d="m438.88,88.56c9.35,0,17.03-7.23,17.86-16.41h-35.73c.84,9.18,8.51,16.41,17.86,16.41Z" style="fill: #1d1d1b; stroke-width: 0px;"/>
        <polygon points="486.45 126.23 462.8 126.23 462.8 133.52 456.74 133.52 456.74 143.59 492.46 143.59 492.46 133.52 486.45 133.52 486.45 126.23" style="fill: #1d1d1b; stroke-width: 0px;"/>
        <path d="m474.6,124.29c9.35,0,17.03-7.24,17.86-16.42h-35.72c.83,9.18,8.51,16.42,17.86,16.42Z" style="fill: #1d1d1b; stroke-width: 0px;"/>
        <polygon points="415.01 161.95 391.36 161.95 391.36 169.25 385.29 169.25 385.29 179.32 421.02 179.32 421.02 169.25 415.01 169.25 415.01 161.95" style="fill: #1d1d1b; stroke-width: 0px;"/>
        <path d="m403.16,160.01c9.35,0,17.03-7.23,17.86-16.41h-35.72c.84,9.18,8.51,16.41,17.86,16.41Z" style="fill: #1d1d1b; stroke-width: 0px;"/>
        <polygon points="450.73 161.95 427.08 161.95 427.08 169.25 421.02 169.25 421.02 179.32 456.74 179.32 456.74 169.25 450.73 169.25 450.73 161.95" style="fill: #1d1d1b; stroke-width: 0px;"/>
        <path d="m438.88,160.01c9.35,0,17.03-7.23,17.86-16.41h-35.73c.84,9.18,8.51,16.41,17.86,16.41Z" style="fill: #1d1d1b; stroke-width: 0px;"/>
        <polygon points="486.45 161.95 462.8 161.95 462.8 169.25 456.74 169.25 456.74 179.32 492.46 179.32 492.46 169.25 486.45 169.25 486.45 161.95" style="fill: #1d1d1b; stroke-width: 0px;"/>
        <path d="m474.6,160.01c9.35,0,17.03-7.23,17.86-16.41h-35.72c.83,9.18,8.51,16.41,17.86,16.41Z" style="fill: #1d1d1b; stroke-width: 0px;"/>
        <polygon points="415.01 197.68 391.36 197.68 391.36 204.97 385.29 204.97 385.29 215.04 421.02 215.04 421.02 204.97 415.01 204.97 415.01 197.68" style="fill: #1d1d1b; stroke-width: 0px;"/>
        <path d="m403.16,195.73c9.35,0,17.03-7.23,17.86-16.41h-35.72c.84,9.18,8.51,16.41,17.86,16.41Z" style="fill: #1d1d1b; stroke-width: 0px;"/>
        <polygon points="486.45 197.68 462.8 197.68 462.8 204.97 456.74 204.97 456.74 215.04 492.46 215.04 492.46 204.97 486.45 204.97 486.45 197.68" style="fill: #1d1d1b; stroke-width: 0px;"/>
        <path d="m474.6,195.73c9.35,0,17.03-7.23,17.86-16.41h-35.72c.83,9.18,8.51,16.41,17.86,16.41Z" style="fill: #1d1d1b; stroke-width: 0px;"/>
        <polygon points="450.73 233.4 427.08 233.4 427.08 240.69 421.02 240.69 421.02 250.76 456.74 250.76 456.74 240.69 450.73 240.69 450.73 233.4" style="fill: #1d1d1b; stroke-width: 0px;"/>
        <path d="m438.88,231.45c9.35,0,17.03-7.23,17.86-16.41h-35.73c.84,9.18,8.51,16.41,17.86,16.41Z" style="fill: #1d1d1b; stroke-width: 0px;"/>
        <polygon points="486.45 233.4 462.8 233.4 462.8 240.69 456.74 240.69 456.74 250.76 492.46 250.76 492.46 240.69 486.45 240.69 486.45 233.4" style="fill: #1d1d1b; stroke-width: 0px;"/>
        <path d="m474.6,231.45c9.35,0,17.03-7.23,17.86-16.41h-35.72c.83,9.18,8.51,16.41,17.86,16.41Z" style="fill: #1d1d1b; stroke-width: 0px;"/>
      </g>
      <g>
        <polygon points="579.16 90.51 555.51 90.51 555.51 97.8 549.45 97.8 549.45 107.87 585.17 107.87 585.17 97.8 579.16 97.8 579.16 90.51" style="fill: #1d1d1b; stroke-width: 0px;"/>
        <path d="m567.31,88.56c9.35,0,17.03-7.23,17.86-16.41h-35.73c.84,9.18,8.51,16.41,17.86,16.41Z" style="fill: #1d1d1b; stroke-width: 0px;"/>
        <polygon points="543.44 126.23 519.79 126.23 519.79 133.52 513.72 133.52 513.72 143.59 549.45 143.59 549.45 133.52 543.44 133.52 543.44 126.23" style="fill: #1d1d1b; stroke-width: 0px;"/>
        <path d="m531.59,124.29c9.35,0,17.03-7.24,17.86-16.42h-35.72c.84,9.18,8.51,16.42,17.86,16.42Z" style="fill: #1d1d1b; stroke-width: 0px;"/>
        <polygon points="614.89 126.23 591.24 126.23 591.24 133.52 585.17 133.52 585.17 143.59 620.89 143.59 620.89 133.52 614.89 133.52 614.89 126.23" style="fill: #1d1d1b; stroke-width: 0px;"/>
        <path d="m603.03,124.29c9.35,0,17.03-7.24,17.86-16.42h-35.72c.83,9.18,8.51,16.42,17.86,16.42Z" style="fill: #1d1d1b; stroke-width: 0px;"/>
        <polygon points="543.44 161.95 519.79 161.95 519.79 169.25 513.72 169.25 513.72 179.32 549.45 179.32 549.45 169.25 543.44 169.25 543.44 161.95" style="fill: #1d1d1b; stroke-width: 0px;"/>
        <path d="m531.59,160.01c9.35,0,17.03-7.23,17.86-16.41h-35.72c.84,9.18,8.51,16.41,17.86,16.41Z" style="fill: #1d1d1b; stroke-width: 0px;"/>
        <polygon points="614.89 161.95 591.24 161.95 591.24 169.25 585.17 169.25 585.17 179.32 620.89 179.32 620.89 169.25 614.89 169.25 614.89 161.95" style="fill: #1d1d1b; stroke-width: 0px;"/>
        <path d="m603.03,160.01c9.35,0,17.03-7.23,17.86-16.41h-35.72c.83,9.18,8.51,16.41,17.86,16.41Z" style="fill: #1d1d1b; stroke-width: 0px;"/>
        <polygon points="579.16 197.68 555.51 197.68 555.51 204.97 549.45 204.97 549.45 215.04 585.17 215.04 585.17 204.97 579.16 204.97 579.16 197.68" style="fill: #1d1d1b; stroke-width: 0px;"/>
        <path d="m567.31,195.73c9.35,0,17.03-7.23,17.86-16.41h-35.73c.84,9.18,8.51,16.41,17.86,16.41Z" style="fill: #1d1d1b; stroke-width: 0px;"/>
        <polygon points="614.89 197.68 591.24 197.68 591.24 204.97 585.17 204.97 585.17 215.04 620.89 215.04 620.89 204.97 614.89 204.97 614.89 197.68" style="fill: #1d1d1b; stroke-width: 0px;"/>
        <path d="m603.03,195.73c9.35,0,17.03-7.23,17.86-16.41h-35.72c.83,9.18,8.51,16.41,17.86,16.41Z" style="fill: #1d1d1b; stroke-width: 0px;"/>
        <polygon points="614.89 233.4 591.24 233.4 591.24 240.69 585.17 240.69 585.17 250.76 620.89 250.76 620.89 240.69 614.89 240.69 614.89 233.4" style="fill: #1d1d1b; stroke-width: 0px;"/>
        <path d="m603.03,231.45c9.35,0,17.03-7.23,17.86-16.41h-35.72c.83,9.18,8.51,16.41,17.86,16.41Z" style="fill: #1d1d1b; stroke-width: 0px;"/>
        <polygon points="543.44 269.13 519.79 269.13 519.79 276.42 513.72 276.42 513.72 286.49 549.45 286.49 549.45 276.42 543.44 276.42 543.44 269.13" style="fill: #1d1d1b; stroke-width: 0px;"/>
        <path d="m531.59,267.18c9.35,0,17.03-7.23,17.86-16.41h-35.72c.84,9.18,8.51,16.41,17.86,16.41Z" style="fill: #1d1d1b; stroke-width: 0px;"/>
        <polygon points="579.16 269.13 555.51 269.13 555.51 276.42 549.45 276.42 549.45 286.49 585.17 286.49 585.17 276.42 579.16 276.42 579.16 269.13" style="fill: #1d1d1b; stroke-width: 0px;"/>
        <path d="m567.31,267.18c9.35,0,17.03-7.23,17.86-16.41h-35.73c.84,9.18,8.51,16.41,17.86,16.41Z" style="fill: #1d1d1b; stroke-width: 0px;"/>
      </g>
      <g>
        <polygon points="707.59 90.51 683.94 90.51 683.94 97.8 677.88 97.8 677.88 107.87 713.6 107.87 713.6 97.8 707.59 97.8 707.59 90.51" style="fill: #1d1d1b; stroke-width: 0px;"/>
        <path d="m695.74,88.56c9.35,0,17.03-7.23,17.86-16.41h-35.73c.84,9.18,8.51,16.41,17.86,16.41Z" style="fill: #1d1d1b; stroke-width: 0px;"/>
        <polygon points="671.87 126.23 648.22 126.23 648.22 133.52 642.15 133.52 642.15 143.59 677.88 143.59 677.88 133.52 671.87 133.52 671.87 126.23" style="fill: #1d1d1b; stroke-width: 0px;"/>
        <path d="m660.02,124.29c9.35,0,17.03-7.24,17.86-16.42h-35.72c.84,9.18,8.51,16.42,17.86,16.42Z" style="fill: #1d1d1b; stroke-width: 0px;"/>
        <polygon points="743.32 126.23 719.67 126.23 719.67 133.52 713.6 133.52 713.6 143.59 749.33 143.59 749.33 133.52 743.32 133.52 743.32 126.23" style="fill: #1d1d1b; stroke-width: 0px;"/>
        <path d="m731.46,124.29c9.35,0,17.03-7.24,17.86-16.42h-35.72c.83,9.18,8.51,16.42,17.86,16.42Z" style="fill: #1d1d1b; stroke-width: 0px;"/>
        <polygon points="671.87 161.95 648.22 161.95 648.22 169.25 642.15 169.25 642.15 179.32 677.88 179.32 677.88 169.25 671.87 169.25 671.87 161.95" style="fill: #1d1d1b; stroke-width: 0px;"/>
        <path d="m660.02,160.01c9.35,0,17.03-7.23,17.86-16.41h-35.72c.84,9.18,8.51,16.41,17.86,16.41Z" style="fill: #1d1d1b; stroke-width: 0px;"/>
        <polygon points="707.59 161.95 683.94 161.95 683.94 169.25 677.88 169.25 677.88 179.32 713.6 179.32 713.6 169.25 707.59 169.25 707.59 161.95" style="fill: #1d1d1b; stroke-width: 0px;"/>
        <path d="m695.74,160.01c9.35,0,17.03-7.23,17.86-16.41h-35.73c.84,9.18,8.51,16.41,17.86,16.41Z" style="fill: #1d1d1b; stroke-width: 0px;"/>
        <polygon points="743.32 161.95 719.67 161.95 719.67 169.25 713.6 169.25 713.6 179.32 749.33 179.32 749.33 169.25 743.32 169.25 743.32 161.95" style="fill: #1d1d1b; stroke-width: 0px;"/>
        <path d="m731.46,160.01c9.35,0,17.03-7.23,17.86-16.41h-35.72c.83,9.18,8.51,16.41,17.86,16.41Z" style="fill: #1d1d1b; stroke-width: 0px;"/>
        <polygon points="671.87 197.68 648.22 197.68 648.22 204.97 642.15 204.97 642.15 215.04 677.88 215.04 677.88 204.97 671.87 204.97 671.87 197.68" style="fill: #1d1d1b; stroke-width: 0px;"/>
        <path d="m660.02,195.73c9.35,0,17.03-7.23,17.86-16.41h-35.72c.84,9.18,8.51,16.41,17.86,16.41Z" style="fill: #1d1d1b; stroke-width: 0px;"/>
        <polygon points="707.59 233.4 683.94 233.4 683.94 240.69 677.88 240.69 677.88 250.76 713.6 250.76 713.6 240.69 707.59 240.69 707.59 233.4" style="fill: #1d1d1b; stroke-width: 0px;"/>
        <path d="m695.74,231.45c9.35,0,17.03-7.23,17.86-16.41h-35.73c.84,9.18,8.51,16.41,17.86,16.41Z" style="fill: #1d1d1b; stroke-width: 0px;"/>
        <polygon points="743.32 233.4 719.67 233.4 719.67 240.69 713.6 240.69 713.6 250.76 749.33 250.76 749.33 240.69 743.32 240.69 743.32 233.4" style="fill: #1d1d1b; stroke-width: 0px;"/>
        <path d="m731.46,231.45c9.35,0,17.03-7.23,17.86-16.41h-35.72c.83,9.18,8.51,16.41,17.86,16.41Z" style="fill: #1d1d1b; stroke-width: 0px;"/>
      </g>
    </g>
    <g>
      <g>
        <polygon points="831.52 6.03 831.52 29.74 838.83 29.74 838.83 35.82 848.93 35.82 848.93 0 838.83 0 838.83 6.03 831.52 6.03" style="fill: #1d1d1b; stroke-width: 0px;"/>
        <path d="m829.57,17.91c0-9.37-7.25-17.08-16.46-17.91v35.82c9.21-.84,16.46-8.54,16.46-17.91Z" style="fill: #1d1d1b; stroke-width: 0px;"/>
        <polygon points="831.52 41.85 831.52 65.57 838.83 65.57 838.83 71.65 848.93 71.65 848.93 35.82 838.83 35.82 838.83 41.85 831.52 41.85" style="fill: #1d1d1b; stroke-width: 0px;"/>
        <path d="m829.57,53.74c0-9.37-7.25-17.07-16.46-17.91v35.82c9.21-.84,16.46-8.54,16.46-17.91Z" style="fill: #1d1d1b; stroke-width: 0px;"/>
        <polygon points="831.52 77.67 831.52 101.39 838.83 101.39 838.83 107.47 848.93 107.47 848.93 71.65 838.83 71.65 838.83 77.67 831.52 77.67" style="fill: #1d1d1b; stroke-width: 0px;"/>
        <path d="m829.57,89.56c0-9.37-7.25-17.07-16.46-17.91v35.83c9.21-.84,16.46-8.54,16.46-17.91Z" style="fill: #1d1d1b; stroke-width: 0px;"/>
        <polygon points="867.34 77.67 867.34 101.39 874.65 101.39 874.65 107.47 884.75 107.47 884.75 71.65 874.65 71.65 874.65 77.67 867.34 77.67" style="fill: #1d1d1b; stroke-width: 0px;"/>
        <path d="m865.39,89.56c0-9.37-7.26-17.07-16.46-17.91v35.83c9.21-.84,16.46-8.54,16.46-17.91Z" style="fill: #1d1d1b; stroke-width: 0px;"/>
        <polygon points="831.52 113.5 831.52 137.21 838.83 137.21 838.83 143.29 848.93 143.29 848.93 107.47 838.83 107.47 838.83 113.5 831.52 113.5" style="fill: #1d1d1b; stroke-width: 0px;"/>
        <path d="m829.57,125.38c0-9.37-7.25-17.07-16.46-17.91v35.82c9.21-.84,16.46-8.54,16.46-17.91Z" style="fill: #1d1d1b; stroke-width: 0px;"/>
        <polygon points="903.16 113.5 903.16 137.21 910.48 137.21 910.48 143.29 920.58 143.29 920.58 107.47 910.48 107.47 910.48 113.5 903.16 113.5" style="fill: #1d1d1b; stroke-width: 0px;"/>
        <path d="m901.21,125.38c0-9.37-7.25-17.07-16.46-17.91v35.82c9.21-.84,16.46-8.54,16.46-17.91Z" style="fill: #1d1d1b; stroke-width: 0px;"/>
        <polygon points="831.52 149.32 831.52 173.03 838.83 173.03 838.83 179.12 848.93 179.12 848.93 143.29 838.83 143.29 838.83 149.32 831.52 149.32" style="fill: #1d1d1b; stroke-width: 0px;"/>
        <path d="m829.57,161.2c0-9.37-7.25-17.07-16.46-17.91v35.82c9.21-.84,16.46-8.54,16.46-17.91Z" style="fill: #1d1d1b; stroke-width: 0px;"/>
        <polygon points="903.16 149.32 903.16 173.03 910.48 173.03 910.48 179.12 920.58 179.12 920.58 143.29 910.48 143.29 910.48 149.32 903.16 149.32" style="fill: #1d1d1b; stroke-width: 0px;"/>
        <path d="m901.21,161.2c0-9.37-7.25-17.07-16.46-17.91v35.82c9.21-.84,16.46-8.54,16.46-17.91Z" style="fill: #1d1d1b; stroke-width: 0px;"/>
        <polygon points="831.52 185.14 831.52 208.86 838.83 208.86 838.83 214.94 848.93 214.94 848.93 179.12 838.83 179.12 838.83 185.14 831.52 185.14" style="fill: #1d1d1b; stroke-width: 0px;"/>
        <path d="m829.57,197.03c0-9.37-7.25-17.08-16.46-17.91v35.82c9.21-.84,16.46-8.54,16.46-17.91Z" style="fill: #1d1d1b; stroke-width: 0px;"/>
        <polygon points="903.16 185.14 903.16 208.86 910.48 208.86 910.48 214.94 920.58 214.94 920.58 179.12 910.48 179.12 910.48 185.14 903.16 185.14" style="fill: #1d1d1b; stroke-width: 0px;"/>
        <path d="m901.21,197.03c0-9.37-7.25-17.08-16.46-17.91v35.82c9.21-.84,16.46-8.54,16.46-17.91Z" style="fill: #1d1d1b; stroke-width: 0px;"/>
        <polygon points="831.52 220.97 831.52 244.68 838.83 244.68 838.83 250.76 848.93 250.76 848.93 214.94 838.83 214.94 838.83 220.97 831.52 220.97" style="fill: #1d1d1b; stroke-width: 0px;"/>
        <path d="m829.57,232.85c0-9.37-7.25-17.07-16.46-17.91v35.82c9.21-.84,16.46-8.54,16.46-17.91Z" style="fill: #1d1d1b; stroke-width: 0px;"/>
        <polygon points="867.34 220.97 867.34 244.68 874.65 244.68 874.65 250.76 884.75 250.76 884.75 214.94 874.65 214.94 874.65 220.97 867.34 220.97" style="fill: #1d1d1b; stroke-width: 0px;"/>
        <path d="m865.39,232.85c0-9.37-7.26-17.07-16.46-17.91v35.82c9.21-.84,16.46-8.54,16.46-17.91Z" style="fill: #1d1d1b; stroke-width: 0px;"/>
      </g>
      <g>
        <polygon points="960.25 41.85 960.25 65.57 967.56 65.57 967.56 71.65 977.66 71.65 977.66 35.82 967.56 35.82 967.56 41.85 960.25 41.85" style="fill: #1d1d1b; stroke-width: 0px;"/>
        <path d="m958.3,53.74c0-9.37-7.26-17.07-16.46-17.91v35.82c9.21-.84,16.46-8.54,16.46-17.91Z" style="fill: #1d1d1b; stroke-width: 0px;"/>
        <polygon points="960.25 113.5 960.25 137.21 967.56 137.21 967.56 143.29 977.66 143.29 977.66 107.47 967.56 107.47 967.56 113.5 960.25 113.5" style="fill: #1d1d1b; stroke-width: 0px;"/>
        <path d="m958.3,125.38c0-9.37-7.26-17.07-16.46-17.91v35.82c9.21-.84,16.46-8.54,16.46-17.91Z" style="fill: #1d1d1b; stroke-width: 0px;"/>
        <polygon points="960.25 149.32 960.25 173.03 967.56 173.03 967.56 179.12 977.66 179.12 977.66 143.29 967.56 143.29 967.56 149.32 960.25 149.32" style="fill: #1d1d1b; stroke-width: 0px;"/>
        <path d="m958.3,161.2c0-9.37-7.26-17.07-16.46-17.91v35.82c9.21-.84,16.46-8.54,16.46-17.91Z" style="fill: #1d1d1b; stroke-width: 0px;"/>
        <polygon points="960.25 185.14 960.25 208.86 967.56 208.86 967.56 214.94 977.66 214.94 977.66 179.12 967.56 179.12 967.56 185.14 960.25 185.14" style="fill: #1d1d1b; stroke-width: 0px;"/>
        <path d="m958.3,197.03c0-9.37-7.26-17.08-16.46-17.91v35.82c9.21-.84,16.46-8.54,16.46-17.91Z" style="fill: #1d1d1b; stroke-width: 0px;"/>
        <polygon points="960.25 220.97 960.25 244.68 967.56 244.68 967.56 250.76 977.66 250.76 977.66 214.94 967.56 214.94 967.56 220.97 960.25 220.97" style="fill: #1d1d1b; stroke-width: 0px;"/>
        <path d="m958.3,232.85c0-9.37-7.26-17.07-16.46-17.91v35.82c9.21-.84,16.46-8.54,16.46-17.91Z" style="fill: #1d1d1b; stroke-width: 0px;"/>
      </g>
      <g>
        <polygon points="1053.16 77.67 1053.16 101.39 1060.47 101.39 1060.47 107.47 1070.57 107.47 1070.57 71.65 1060.47 71.65 1060.47 77.67 1053.16 77.67" style="fill: #1d1d1b; stroke-width: 0px;"/>
        <path d="m1051.21,89.56c0-9.37-7.26-17.07-16.46-17.91v35.82c9.21-.84,16.46-8.54,16.46-17.91Z" style="fill: #1d1d1b; stroke-width: 0px;"/>
        <polygon points="1017.34 113.5 1017.34 137.21 1024.65 137.21 1024.65 143.29 1034.74 143.29 1034.74 107.47 1024.65 107.47 1024.65 113.5 1017.34 113.5" style="fill: #1d1d1b; stroke-width: 0px;"/>
        <path d="m1015.38,125.38c0-9.37-7.25-17.07-16.46-17.91v35.83c9.21-.84,16.46-8.54,16.46-17.91Z" style="fill: #1d1d1b; stroke-width: 0px;"/>
        <polygon points="1088.98 113.5 1088.98 137.21 1096.29 137.21 1096.29 143.29 1106.39 143.29 1106.39 107.47 1096.29 107.47 1096.29 113.5 1088.98 113.5" style="fill: #1d1d1b; stroke-width: 0px;"/>
        <path d="m1087.03,125.38c0-9.37-7.25-17.07-16.46-17.91v35.83c9.21-.84,16.46-8.54,16.46-17.91Z" style="fill: #1d1d1b; stroke-width: 0px;"/>
        <polygon points="1017.34 149.32 1017.34 173.03 1024.65 173.03 1024.65 179.12 1034.74 179.12 1034.74 143.29 1024.65 143.29 1024.65 149.32 1017.34 149.32" style="fill: #1d1d1b; stroke-width: 0px;"/>
        <path d="m1015.38,161.2c0-9.37-7.25-17.07-16.46-17.91v35.82c9.21-.84,16.46-8.54,16.46-17.91Z" style="fill: #1d1d1b; stroke-width: 0px;"/>
        <polygon points="1053.16 149.32 1053.16 173.03 1060.47 173.03 1060.47 179.12 1070.57 179.12 1070.57 143.29 1060.47 143.29 1060.47 149.32 1053.16 149.32" style="fill: #1d1d1b; stroke-width: 0px;"/>
        <path d="m1051.21,161.2c0-9.37-7.26-17.07-16.46-17.91v35.82c9.21-.84,16.46-8.54,16.46-17.91Z" style="fill: #1d1d1b; stroke-width: 0px;"/>
        <polygon points="1088.98 149.32 1088.98 173.03 1096.29 173.03 1096.29 179.12 1106.39 179.12 1106.39 143.29 1096.29 143.29 1096.29 149.32 1088.98 149.32" style="fill: #1d1d1b; stroke-width: 0px;"/>
        <path d="m1087.03,161.2c0-9.37-7.25-17.07-16.46-17.91v35.82c9.21-.84,16.46-8.54,16.46-17.91Z" style="fill: #1d1d1b; stroke-width: 0px;"/>
        <polygon points="1017.34 185.14 1017.34 208.86 1024.65 208.86 1024.65 214.94 1034.74 214.94 1034.74 179.12 1024.65 179.12 1024.65 185.14 1017.34 185.14" style="fill: #1d1d1b; stroke-width: 0px;"/>
        <path d="m1015.38,197.03c0-9.37-7.25-17.07-16.46-17.91v35.82c9.21-.84,16.46-8.54,16.46-17.91Z" style="fill: #1d1d1b; stroke-width: 0px;"/>
        <polygon points="1053.16 220.97 1053.16 244.68 1060.47 244.68 1060.47 250.76 1070.57 250.76 1070.57 214.94 1060.47 214.94 1060.47 220.97 1053.16 220.97" style="fill: #1d1d1b; stroke-width: 0px;"/>
        <path d="m1051.21,232.85c0-9.37-7.26-17.08-16.46-17.91v35.82c9.21-.84,16.46-8.54,16.46-17.91Z" style="fill: #1d1d1b; stroke-width: 0px;"/>
        <polygon points="1088.98 220.97 1088.98 244.68 1096.29 244.68 1096.29 250.76 1106.39 250.76 1106.39 214.94 1096.29 214.94 1096.29 220.97 1088.98 220.97" style="fill: #1d1d1b; stroke-width: 0px;"/>
        <path d="m1087.03,232.85c0-9.37-7.25-17.08-16.46-17.91v35.82c9.21-.84,16.46-8.54,16.46-17.91Z" style="fill: #1d1d1b; stroke-width: 0px;"/>
      </g>
      <g>
        <polygon points="1146.07 77.67 1146.07 101.39 1153.38 101.39 1153.38 107.47 1163.48 107.47 1163.48 71.65 1153.38 71.65 1153.38 77.67 1146.07 77.67" style="fill: #1d1d1b; stroke-width: 0px;"/>
        <path d="m1144.11,89.56c0-9.37-7.25-17.07-16.46-17.91v35.82c9.21-.84,16.46-8.54,16.46-17.91Z" style="fill: #1d1d1b; stroke-width: 0px;"/>
        <polygon points="1181.89 77.67 1181.89 101.39 1189.2 101.39 1189.2 107.47 1199.3 107.47 1199.3 71.65 1189.2 71.65 1189.2 77.67 1181.89 77.67" style="fill: #1d1d1b; stroke-width: 0px;"/>
        <path d="m1179.94,89.56c0-9.37-7.26-17.07-16.46-17.91v35.82c9.21-.84,16.46-8.54,16.46-17.91Z" style="fill: #1d1d1b; stroke-width: 0px;"/>
        <polygon points="1146.07 113.5 1146.07 137.21 1153.38 137.21 1153.38 143.29 1163.48 143.29 1163.48 107.47 1153.38 107.47 1153.38 113.5 1146.07 113.5" style="fill: #1d1d1b; stroke-width: 0px;"/>
        <path d="m1144.11,125.38c0-9.37-7.25-17.07-16.46-17.91v35.83c9.21-.84,16.46-8.54,16.46-17.91Z" style="fill: #1d1d1b; stroke-width: 0px;"/>
        <polygon points="1217.71 113.5 1217.71 137.21 1225.02 137.21 1225.02 143.29 1235.12 143.29 1235.12 107.47 1225.02 107.47 1225.02 113.5 1217.71 113.5" style="fill: #1d1d1b; stroke-width: 0px;"/>
        <path d="m1215.76,125.38c0-9.37-7.25-17.07-16.46-17.91v35.83c9.21-.84,16.46-8.54,16.46-17.91Z" style="fill: #1d1d1b; stroke-width: 0px;"/>
        <polygon points="1146.07 149.32 1146.07 173.03 1153.38 173.03 1153.38 179.12 1163.48 179.12 1163.48 143.29 1153.38 143.29 1153.38 149.32 1146.07 149.32" style="fill: #1d1d1b; stroke-width: 0px;"/>
        <path d="m1144.11,161.2c0-9.37-7.25-17.07-16.46-17.91v35.82c9.21-.84,16.46-8.54,16.46-17.91Z" style="fill: #1d1d1b; stroke-width: 0px;"/>
        <polygon points="1217.71 149.32 1217.71 173.03 1225.02 173.03 1225.02 179.12 1235.12 179.12 1235.12 143.29 1225.02 143.29 1225.02 149.32 1217.71 149.32" style="fill: #1d1d1b; stroke-width: 0px;"/>
        <path d="m1215.76,161.2c0-9.37-7.25-17.07-16.46-17.91v35.82c9.21-.84,16.46-8.54,16.46-17.91Z" style="fill: #1d1d1b; stroke-width: 0px;"/>
        <polygon points="1146.07 185.14 1146.07 208.86 1153.38 208.86 1153.38 214.94 1163.48 214.94 1163.48 179.12 1153.38 179.12 1153.38 185.14 1146.07 185.14" style="fill: #1d1d1b; stroke-width: 0px;"/>
        <path d="m1144.11,197.03c0-9.37-7.25-17.07-16.46-17.91v35.82c9.21-.84,16.46-8.54,16.46-17.91Z" style="fill: #1d1d1b; stroke-width: 0px;"/>
        <polygon points="1217.71 185.14 1217.71 208.86 1225.02 208.86 1225.02 214.94 1235.12 214.94 1235.12 179.12 1225.02 179.12 1225.02 185.14 1217.71 185.14" style="fill: #1d1d1b; stroke-width: 0px;"/>
        <path d="m1215.76,197.03c0-9.37-7.25-17.07-16.46-17.91v35.82c9.21-.84,16.46-8.54,16.46-17.91Z" style="fill: #1d1d1b; stroke-width: 0px;"/>
        <polygon points="1146.07 220.97 1146.07 244.68 1153.38 244.68 1153.38 250.76 1163.48 250.76 1163.48 214.94 1153.38 214.94 1153.38 220.97 1146.07 220.97" style="fill: #1d1d1b; stroke-width: 0px;"/>
        <path d="m1144.11,232.85c0-9.37-7.25-17.08-16.46-17.91v35.82c9.21-.84,16.46-8.54,16.46-17.91Z" style="fill: #1d1d1b; stroke-width: 0px;"/>
        <polygon points="1217.71 220.97 1217.71 244.68 1225.02 244.68 1225.02 250.76 1235.12 250.76 1235.12 214.94 1225.02 214.94 1225.02 220.97 1217.71 220.97" style="fill: #1d1d1b; stroke-width: 0px;"/>
        <path d="m1215.76,232.85c0-9.37-7.25-17.08-16.46-17.91v35.82c9.21-.84,16.46-8.54,16.46-17.91Z" style="fill: #1d1d1b; stroke-width: 0px;"/>
      </g>
      <g>
        <polygon points="1274.8 77.67 1274.8 101.39 1282.11 101.39 1282.11 107.47 1292.21 107.47 1292.21 71.65 1282.11 71.65 1282.11 77.67 1274.8 77.67" style="fill: #1d1d1b; stroke-width: 0px;"/>
        <path d="m1272.84,89.56c0-9.37-7.25-17.07-16.46-17.91v35.82c9.21-.84,16.46-8.54,16.46-17.91Z" style="fill: #1d1d1b; stroke-width: 0px;"/>
        <polygon points="1310.62 77.67 1310.62 101.39 1317.93 101.39 1317.93 107.47 1328.03 107.47 1328.03 71.65 1317.93 71.65 1317.93 77.67 1310.62 77.67" style="fill: #1d1d1b; stroke-width: 0px;"/>
        <path d="m1308.67,89.56c0-9.37-7.26-17.07-16.46-17.91v35.82c9.21-.84,16.46-8.54,16.46-17.91Z" style="fill: #1d1d1b; stroke-width: 0px;"/>
        <polygon points="1274.8 113.5 1274.8 137.21 1282.11 137.21 1282.11 143.29 1292.21 143.29 1292.21 107.47 1282.11 107.47 1282.11 113.5 1274.8 113.5" style="fill: #1d1d1b; stroke-width: 0px;"/>
        <path d="m1272.84,125.38c0-9.37-7.25-17.07-16.46-17.91v35.83c9.21-.84,16.46-8.54,16.46-17.91Z" style="fill: #1d1d1b; stroke-width: 0px;"/>
        <polygon points="1346.44 113.5 1346.44 137.21 1353.75 137.21 1353.75 143.29 1363.86 143.29 1363.86 107.47 1353.75 107.47 1353.75 113.5 1346.44 113.5" style="fill: #1d1d1b; stroke-width: 0px;"/>
        <path d="m1344.49,125.38c0-9.37-7.25-17.07-16.46-17.91v35.83c9.21-.84,16.46-8.54,16.46-17.91Z" style="fill: #1d1d1b; stroke-width: 0px;"/>
        <polygon points="1274.8 149.32 1274.8 173.03 1282.11 173.03 1282.11 179.12 1292.21 179.12 1292.21 143.29 1282.11 143.29 1282.11 149.32 1274.8 149.32" style="fill: #1d1d1b; stroke-width: 0px;"/>
        <path d="m1272.84,161.2c0-9.37-7.25-17.07-16.46-17.91v35.82c9.21-.84,16.46-8.54,16.46-17.91Z" style="fill: #1d1d1b; stroke-width: 0px;"/>
        <polygon points="1346.44 149.32 1346.44 173.03 1353.75 173.03 1353.75 179.12 1363.86 179.12 1363.86 143.29 1353.75 143.29 1353.75 149.32 1346.44 149.32" style="fill: #1d1d1b; stroke-width: 0px;"/>
        <path d="m1344.49,161.2c0-9.37-7.25-17.07-16.46-17.91v35.82c9.21-.84,16.46-8.54,16.46-17.91Z" style="fill: #1d1d1b; stroke-width: 0px;"/>
        <polygon points="1274.8 185.14 1274.8 208.86 1282.11 208.86 1282.11 214.94 1292.21 214.94 1292.21 179.12 1282.11 179.12 1282.11 185.14 1274.8 185.14" style="fill: #1d1d1b; stroke-width: 0px;"/>
        <path d="m1272.84,197.03c0-9.37-7.25-17.07-16.46-17.91v35.82c9.21-.84,16.46-8.54,16.46-17.91Z" style="fill: #1d1d1b; stroke-width: 0px;"/>
        <polygon points="1346.44 185.14 1346.44 208.86 1353.75 208.86 1353.75 214.94 1363.86 214.94 1363.86 179.12 1353.75 179.12 1353.75 185.14 1346.44 185.14" style="fill: #1d1d1b; stroke-width: 0px;"/>
        <path d="m1344.49,197.03c0-9.37-7.25-17.07-16.46-17.91v35.82c9.21-.84,16.46-8.54,16.46-17.91Z" style="fill: #1d1d1b; stroke-width: 0px;"/>
        <polygon points="1274.8 220.97 1274.8 244.68 1282.11 244.68 1282.11 250.76 1292.21 250.76 1292.21 214.94 1282.11 214.94 1282.11 220.97 1274.8 220.97" style="fill: #1d1d1b; stroke-width: 0px;"/>
        <path d="m1272.84,232.85c0-9.37-7.25-17.08-16.46-17.91v35.82c9.21-.84,16.46-8.54,16.46-17.91Z" style="fill: #1d1d1b; stroke-width: 0px;"/>
        <polygon points="1346.44 220.97 1346.44 244.68 1353.75 244.68 1353.75 250.76 1363.86 250.76 1363.86 214.94 1353.75 214.94 1353.75 220.97 1346.44 220.97" style="fill: #1d1d1b; stroke-width: 0px;"/>
        <path d="m1344.49,232.85c0-9.37-7.25-17.08-16.46-17.91v35.82c9.21-.84,16.46-8.54,16.46-17.91Z" style="fill: #1d1d1b; stroke-width: 0px;"/>
      </g>
      <g>
        <polygon points="1403.53 41.85 1403.53 65.57 1410.84 65.57 1410.84 71.65 1420.94 71.65 1420.94 35.82 1410.84 35.82 1410.84 41.85 1403.53 41.85" style="fill: #1d1d1b; stroke-width: 0px;"/>
        <path d="m1401.58,53.74c0-9.37-7.26-17.07-16.46-17.91v35.82c9.21-.84,16.46-8.54,16.46-17.91Z" style="fill: #1d1d1b; stroke-width: 0px;"/>
        <polygon points="1403.53 113.5 1403.53 137.21 1410.84 137.21 1410.84 143.29 1420.94 143.29 1420.94 107.47 1410.84 107.47 1410.84 113.5 1403.53 113.5" style="fill: #1d1d1b; stroke-width: 0px;"/>
        <path d="m1401.58,125.38c0-9.37-7.26-17.07-16.46-17.91v35.82c9.21-.84,16.46-8.54,16.46-17.91Z" style="fill: #1d1d1b; stroke-width: 0px;"/>
        <polygon points="1403.53 149.32 1403.53 173.03 1410.84 173.03 1410.84 179.12 1420.94 179.12 1420.94 143.29 1410.84 143.29 1410.84 149.32 1403.53 149.32" style="fill: #1d1d1b; stroke-width: 0px;"/>
        <path d="m1401.58,161.2c0-9.37-7.26-17.07-16.46-17.91v35.82c9.21-.84,16.46-8.54,16.46-17.91Z" style="fill: #1d1d1b; stroke-width: 0px;"/>
        <polygon points="1403.53 185.14 1403.53 208.86 1410.84 208.86 1410.84 214.94 1420.94 214.94 1420.94 179.12 1410.84 179.12 1410.84 185.14 1403.53 185.14" style="fill: #1d1d1b; stroke-width: 0px;"/>
        <path d="m1401.58,197.03c0-9.37-7.26-17.08-16.46-17.91v35.82c9.21-.84,16.46-8.54,16.46-17.91Z" style="fill: #1d1d1b; stroke-width: 0px;"/>
        <polygon points="1403.53 220.97 1403.53 244.68 1410.84 244.68 1410.84 250.76 1420.94 250.76 1420.94 214.94 1410.84 214.94 1410.84 220.97 1403.53 220.97" style="fill: #1d1d1b; stroke-width: 0px;"/>
        <path d="m1401.58,232.85c0-9.37-7.26-17.07-16.46-17.91v35.82c9.21-.84,16.46-8.54,16.46-17.91Z" style="fill: #1d1d1b; stroke-width: 0px;"/>
      </g>
      <g>
        <polygon points="1460.61 77.67 1460.61 101.39 1467.93 101.39 1467.93 107.47 1478.02 107.47 1478.02 71.65 1467.93 71.65 1467.93 77.67 1460.61 77.67" style="fill: #1d1d1b; stroke-width: 0px;"/>
        <path d="m1458.66,89.56c0-9.37-7.25-17.07-16.46-17.91v35.82c9.21-.84,16.46-8.54,16.46-17.91Z" style="fill: #1d1d1b; stroke-width: 0px;"/>
        <polygon points="1496.44 77.67 1496.44 101.39 1503.75 101.39 1503.75 107.47 1513.85 107.47 1513.85 71.65 1503.75 71.65 1503.75 77.67 1496.44 77.67" style="fill: #1d1d1b; stroke-width: 0px;"/>
        <path d="m1494.49,89.56c0-9.37-7.26-17.07-16.46-17.91v35.82c9.21-.84,16.46-8.54,16.46-17.91Z" style="fill: #1d1d1b; stroke-width: 0px;"/>
        <polygon points="1532.26 113.5 1532.26 137.21 1539.57 137.21 1539.57 143.29 1549.67 143.29 1549.67 107.47 1539.57 107.47 1539.57 113.5 1532.26 113.5" style="fill: #1d1d1b; stroke-width: 0px;"/>
        <path d="m1530.31,125.38c0-9.37-7.25-17.07-16.46-17.91v35.83c9.21-.84,16.46-8.54,16.46-17.91Z" style="fill: #1d1d1b; stroke-width: 0px;"/>
        <polygon points="1460.61 149.32 1460.61 173.03 1467.93 173.03 1467.93 179.12 1478.02 179.12 1478.02 143.29 1467.93 143.29 1467.93 149.32 1460.61 149.32" style="fill: #1d1d1b; stroke-width: 0px;"/>
        <path d="m1458.66,161.2c0-9.37-7.25-17.07-16.46-17.91v35.82c9.21-.84,16.46-8.54,16.46-17.91Z" style="fill: #1d1d1b; stroke-width: 0px;"/>
        <polygon points="1496.44 149.32 1496.44 173.03 1503.75 173.03 1503.75 179.12 1513.85 179.12 1513.85 143.29 1503.75 143.29 1503.75 149.32 1496.44 149.32" style="fill: #1d1d1b; stroke-width: 0px;"/>
        <path d="m1494.49,161.2c0-9.37-7.26-17.07-16.46-17.91v35.82c9.21-.84,16.46-8.54,16.46-17.91Z" style="fill: #1d1d1b; stroke-width: 0px;"/>
        <polygon points="1532.26 149.32 1532.26 173.03 1539.57 173.03 1539.57 179.12 1549.67 179.12 1549.67 143.29 1539.57 143.29 1539.57 149.32 1532.26 149.32" style="fill: #1d1d1b; stroke-width: 0px;"/>
        <path d="m1530.31,161.2c0-9.37-7.25-17.07-16.46-17.91v35.82c9.21-.84,16.46-8.54,16.46-17.91Z" style="fill: #1d1d1b; stroke-width: 0px;"/>
        <polygon points="1460.61 185.14 1460.61 208.86 1467.93 208.86 1467.93 214.94 1478.02 214.94 1478.02 179.12 1467.93 179.12 1467.93 185.14 1460.61 185.14" style="fill: #1d1d1b; stroke-width: 0px;"/>
        <path d="m1458.66,197.03c0-9.37-7.25-17.07-16.46-17.91v35.82c9.21-.84,16.46-8.54,16.46-17.91Z" style="fill: #1d1d1b; stroke-width: 0px;"/>
        <polygon points="1532.26 185.14 1532.26 208.86 1539.57 208.86 1539.57 214.94 1549.67 214.94 1549.67 179.12 1539.57 179.12 1539.57 185.14 1532.26 185.14" style="fill: #1d1d1b; stroke-width: 0px;"/>
        <path d="m1530.31,197.03c0-9.37-7.25-17.07-16.46-17.91v35.82c9.21-.84,16.46-8.54,16.46-17.91Z" style="fill: #1d1d1b; stroke-width: 0px;"/>
        <polygon points="1496.44 220.97 1496.44 244.68 1503.75 244.68 1503.75 250.76 1513.85 250.76 1513.85 214.94 1503.75 214.94 1503.75 220.97 1496.44 220.97" style="fill: #1d1d1b; stroke-width: 0px;"/>
        <path d="m1494.49,232.85c0-9.37-7.26-17.08-16.46-17.91v35.82c9.21-.84,16.46-8.54,16.46-17.91Z" style="fill: #1d1d1b; stroke-width: 0px;"/>
        <polygon points="1532.26 220.97 1532.26 244.68 1539.57 244.68 1539.57 250.76 1549.67 250.76 1549.67 214.94 1539.57 214.94 1539.57 220.97 1532.26 220.97" style="fill: #1d1d1b; stroke-width: 0px;"/>
        <path d="m1530.31,232.85c0-9.37-7.25-17.08-16.46-17.91v35.82c9.21-.84,16.46-8.54,16.46-17.91Z" style="fill: #1d1d1b; stroke-width: 0px;"/>
      </g>
      <g>
        <polygon points="1589.35 6.03 1589.35 29.74 1596.66 29.74 1596.66 35.82 1606.75 35.82 1606.75 0 1596.66 0 1596.66 6.03 1589.35 6.03" style="fill: #1d1d1b; stroke-width: 0px;"/>
        <path d="m1587.39,17.91c0-9.37-7.25-17.08-16.46-17.91v35.82c9.21-.84,16.46-8.54,16.46-17.91Z" style="fill: #1d1d1b; stroke-width: 0px;"/>
        <polygon points="1589.35 41.85 1589.35 65.57 1596.66 65.57 1596.66 71.65 1606.75 71.65 1606.75 35.82 1596.66 35.82 1596.66 41.85 1589.35 41.85" style="fill: #1d1d1b; stroke-width: 0px;"/>
        <path d="m1587.39,53.74c0-9.37-7.25-17.07-16.46-17.91v35.82c9.21-.84,16.46-8.54,16.46-17.91Z" style="fill: #1d1d1b; stroke-width: 0px;"/>
        <polygon points="1589.35 77.67 1589.35 101.39 1596.66 101.39 1596.66 107.47 1606.75 107.47 1606.75 71.65 1596.66 71.65 1596.66 77.67 1589.35 77.67" style="fill: #1d1d1b; stroke-width: 0px;"/>
        <path d="m1587.39,89.56c0-9.37-7.25-17.07-16.46-17.91v35.83c9.21-.84,16.46-8.54,16.46-17.91Z" style="fill: #1d1d1b; stroke-width: 0px;"/>
        <polygon points="1589.35 113.5 1589.35 137.21 1596.66 137.21 1596.66 143.29 1606.75 143.29 1606.75 107.47 1596.66 107.47 1596.66 113.5 1589.35 113.5" style="fill: #1d1d1b; stroke-width: 0px;"/>
        <path d="m1587.39,125.38c0-9.37-7.25-17.07-16.46-17.91v35.82c9.21-.84,16.46-8.54,16.46-17.91Z" style="fill: #1d1d1b; stroke-width: 0px;"/>
        <polygon points="1589.35 149.32 1589.35 173.03 1596.66 173.03 1596.66 179.12 1606.75 179.12 1606.75 143.29 1596.66 143.29 1596.66 149.32 1589.35 149.32" style="fill: #1d1d1b; stroke-width: 0px;"/>
        <path d="m1587.39,161.2c0-9.37-7.25-17.07-16.46-17.91v35.82c9.21-.84,16.46-8.54,16.46-17.91Z" style="fill: #1d1d1b; stroke-width: 0px;"/>
        <polygon points="1589.35 185.14 1589.35 208.86 1596.66 208.86 1596.66 214.94 1606.75 214.94 1606.75 179.12 1596.66 179.12 1596.66 185.14 1589.35 185.14" style="fill: #1d1d1b; stroke-width: 0px;"/>
        <path d="m1587.39,197.03c0-9.37-7.25-17.08-16.46-17.91v35.82c9.21-.84,16.46-8.54,16.46-17.91Z" style="fill: #1d1d1b; stroke-width: 0px;"/>
        <polygon points="1589.35 220.97 1589.35 244.68 1596.66 244.68 1596.66 250.76 1606.75 250.76 1606.75 214.94 1596.66 214.94 1596.66 220.97 1589.35 220.97" style="fill: #1d1d1b; stroke-width: 0px;"/>
        <path d="m1587.39,232.85c0-9.37-7.25-17.07-16.46-17.91v35.82c9.21-.84,16.46-8.54,16.46-17.91Z" style="fill: #1d1d1b; stroke-width: 0px;"/>
      </g>
    </g>
  </g>
</svg>