<?xml version="1.0" encoding="UTF-8"?>
<svg id="Layer_2" data-name="Layer 2" xmlns="http://www.w3.org/2000/svg" viewBox="0 0 562.95 524.89">
  <g id="Laag_1" data-name="Laag 1">
    <g>
      <polygon points="369.01 19.31 344.15 19.31 344.15 26.97 337.77 26.97 337.77 37.56 375.33 37.56 375.33 26.97 369.01 26.97 369.01 19.31" style="fill: #1d1d1c; stroke-width: 0px;"/>
      <path d="m356.55,17.26c9.83,0,17.9-7.61,18.78-17.26h-37.56c.88,9.65,8.95,17.26,18.78,17.26Z" style="fill: #1d1d1c; stroke-width: 0px;"/>
      <polygon points="331.45 56.87 306.59 56.87 306.59 64.53 300.21 64.53 300.21 75.13 337.77 75.13 337.77 64.53 331.45 64.53 331.45 56.87" style="fill: #1d1d1c; stroke-width: 0px;"/>
      <path d="m318.99,54.82c9.83,0,17.9-7.61,18.78-17.26h-37.56c.88,9.65,8.95,17.26,18.78,17.26Z" style="fill: #1d1d1c; stroke-width: 0px;"/>
      <polygon points="406.58 56.87 381.71 56.87 381.71 64.53 375.33 64.53 375.33 75.13 412.89 75.13 412.89 64.53 406.58 64.53 406.58 56.87" style="fill: #1d1d1c; stroke-width: 0px;"/>
      <path d="m394.11,54.82c9.83,0,17.9-7.61,18.78-17.26h-37.56c.88,9.65,8.95,17.26,18.78,17.26Z" style="fill: #1d1d1c; stroke-width: 0px;"/>
      <polygon points="331.45 94.43 306.59 94.43 306.59 102.1 300.21 102.1 300.21 112.69 337.77 112.69 337.77 102.1 331.45 102.1 331.45 94.43" style="fill: #1d1d1c; stroke-width: 0px;"/>
      <path d="m318.99,92.38c9.83,0,17.9-7.61,18.78-17.26h-37.56c.88,9.65,8.95,17.26,18.78,17.26Z" style="fill: #1d1d1c; stroke-width: 0px;"/>
      <polygon points="369.01 94.43 344.15 94.43 344.15 102.1 337.77 102.1 337.77 112.69 375.33 112.69 375.33 102.1 369.01 102.1 369.01 94.43" style="fill: #1d1d1c; stroke-width: 0px;"/>
      <path d="m356.55,92.38c9.83,0,17.9-7.61,18.78-17.26h-37.56c.88,9.65,8.95,17.26,18.78,17.26Z" style="fill: #1d1d1c; stroke-width: 0px;"/>
      <polygon points="406.58 94.43 381.71 94.43 381.71 102.1 375.33 102.1 375.33 112.69 412.89 112.69 412.89 102.1 406.58 102.1 406.58 94.43" style="fill: #1d1d1c; stroke-width: 0px;"/>
      <path d="m394.11,92.38c9.83,0,17.9-7.61,18.78-17.26h-37.56c.88,9.65,8.95,17.26,18.78,17.26Z" style="fill: #1d1d1c; stroke-width: 0px;"/>
      <polygon points="331.45 131.99 306.59 131.99 306.59 139.66 300.21 139.66 300.21 150.25 337.77 150.25 337.77 139.66 331.45 139.66 331.45 131.99" style="fill: #1d1d1c; stroke-width: 0px;"/>
      <path d="m318.99,129.95c9.83,0,17.9-7.61,18.78-17.26h-37.56c.88,9.65,8.95,17.26,18.78,17.26Z" style="fill: #1d1d1c; stroke-width: 0px;"/>
      <polygon points="369.01 169.56 344.15 169.56 344.15 177.22 337.77 177.22 337.77 187.81 375.33 187.81 375.33 177.22 369.01 177.22 369.01 169.56" style="fill: #1d1d1c; stroke-width: 0px;"/>
      <path d="m356.55,167.51c9.83,0,17.9-7.61,18.78-17.26h-37.56c.88,9.65,8.95,17.26,18.78,17.26Z" style="fill: #1d1d1c; stroke-width: 0px;"/>
      <polygon points="406.58 169.56 381.71 169.56 381.71 177.22 375.33 177.22 375.33 187.81 412.89 187.81 412.89 177.22 406.58 177.22 406.58 169.56" style="fill: #1d1d1c; stroke-width: 0px;"/>
      <path d="m394.11,167.51c9.83,0,17.9-7.61,18.78-17.26h-37.56c.88,9.65,8.95,17.26,18.78,17.26Z" style="fill: #1d1d1c; stroke-width: 0px;"/>
      <polygon points="481.73 19.26 456.93 19.26 456.93 26.9 450.57 26.9 450.57 37.46 488.03 37.46 488.03 26.9 481.73 26.9 481.73 19.26" style="fill: #1d1d1c; stroke-width: 0px;"/>
      <path d="m469.3,17.21c9.8,0,17.85-7.58,18.73-17.21h-37.46c.88,9.63,8.93,17.21,18.73,17.21Z" style="fill: #1d1d1c; stroke-width: 0px;"/>
      <polygon points="519.19 19.26 494.39 19.26 494.39 26.9 488.03 26.9 488.03 37.46 525.49 37.46 525.49 26.9 519.19 26.9 519.19 19.26" style="fill: #1d1d1c; stroke-width: 0px;"/>
      <path d="m506.76,17.21c9.8,0,17.85-7.58,18.73-17.21h-37.46c.88,9.63,8.93,17.21,18.73,17.21Z" style="fill: #1d1d1c; stroke-width: 0px;"/>
      <polygon points="481.73 56.72 456.93 56.72 456.93 64.36 450.57 64.36 450.57 74.92 488.03 74.92 488.03 64.36 481.73 64.36 481.73 56.72" style="fill: #1d1d1c; stroke-width: 0px;"/>
      <path d="m469.3,54.68c9.8,0,17.85-7.59,18.73-17.22h-37.46c.88,9.63,8.93,17.22,18.73,17.22Z" style="fill: #1d1d1c; stroke-width: 0px;"/>
      <polygon points="556.65 56.72 531.85 56.72 531.85 64.36 525.49 64.36 525.49 74.92 562.95 74.92 562.95 64.36 556.65 64.36 556.65 56.72" style="fill: #1d1d1c; stroke-width: 0px;"/>
      <path d="m544.22,54.68c9.8,0,17.85-7.59,18.73-17.22h-37.46c.87,9.63,8.93,17.22,18.73,17.22Z" style="fill: #1d1d1c; stroke-width: 0px;"/>
      <polygon points="481.73 94.18 456.93 94.18 456.93 101.82 450.57 101.82 450.57 112.38 488.03 112.38 488.03 101.82 481.73 101.82 481.73 94.18" style="fill: #1d1d1c; stroke-width: 0px;"/>
      <path d="m469.3,92.14c9.8,0,17.85-7.59,18.73-17.21h-37.46c.88,9.63,8.93,17.21,18.73,17.21Z" style="fill: #1d1d1c; stroke-width: 0px;"/>
      <polygon points="556.65 94.18 531.85 94.18 531.85 101.82 525.49 101.82 525.49 112.38 562.95 112.38 562.95 101.82 556.65 101.82 556.65 94.18" style="fill: #1d1d1c; stroke-width: 0px;"/>
      <path d="m544.22,92.14c9.8,0,17.85-7.59,18.73-17.21h-37.46c.87,9.63,8.93,17.21,18.73,17.21Z" style="fill: #1d1d1c; stroke-width: 0px;"/>
      <polygon points="481.73 131.64 456.93 131.64 456.93 139.28 450.57 139.28 450.57 149.85 488.03 149.85 488.03 139.28 481.73 139.28 481.73 131.64" style="fill: #1d1d1c; stroke-width: 0px;"/>
      <path d="m469.3,129.6c9.8,0,17.85-7.59,18.73-17.21h-37.46c.88,9.63,8.93,17.21,18.73,17.21Z" style="fill: #1d1d1c; stroke-width: 0px;"/>
      <polygon points="556.65 131.64 531.85 131.64 531.85 139.28 525.49 139.28 525.49 149.85 562.95 149.85 562.95 139.28 556.65 139.28 556.65 131.64" style="fill: #1d1d1c; stroke-width: 0px;"/>
      <path d="m544.22,129.6c9.8,0,17.85-7.59,18.73-17.21h-37.46c.87,9.63,8.93,17.21,18.73,17.21Z" style="fill: #1d1d1c; stroke-width: 0px;"/>
      <polygon points="481.73 169.1 456.93 169.1 456.93 176.74 450.57 176.74 450.57 187.31 488.03 187.31 488.03 176.74 481.73 176.74 481.73 169.1" style="fill: #1d1d1c; stroke-width: 0px;"/>
      <path d="m469.3,167.06c9.8,0,17.85-7.59,18.73-17.21h-37.46c.88,9.63,8.93,17.21,18.73,17.21Z" style="fill: #1d1d1c; stroke-width: 0px;"/>
      <polygon points="556.65 169.1 531.85 169.1 531.85 176.74 525.49 176.74 525.49 187.31 562.95 187.31 562.95 176.74 556.65 176.74 556.65 169.1" style="fill: #1d1d1c; stroke-width: 0px;"/>
      <path d="m544.22,167.06c9.8,0,17.85-7.59,18.73-17.21h-37.46c.87,9.63,8.93,17.21,18.73,17.21Z" style="fill: #1d1d1c; stroke-width: 0px;"/>
      <polygon points="68.8 19.31 43.94 19.31 43.94 26.97 37.56 26.97 37.56 37.56 75.13 37.56 75.13 26.97 68.8 26.97 68.8 19.31" style="fill: #1d1d1c; stroke-width: 0px;"/>
      <path d="m56.34,17.26c9.83,0,17.9-7.61,18.78-17.26h-37.56c.88,9.65,8.95,17.26,18.78,17.26Z" style="fill: #1d1d1c; stroke-width: 0px;"/>
      <polygon points="31.24 56.87 6.38 56.87 6.38 64.53 0 64.53 0 75.13 37.56 75.13 37.56 64.53 31.24 64.53 31.24 56.87" style="fill: #1d1d1c; stroke-width: 0px;"/>
      <path d="m18.78,54.82c9.83,0,17.9-7.61,18.78-17.26H0c.88,9.65,8.95,17.26,18.78,17.26Z" style="fill: #1d1d1c; stroke-width: 0px;"/>
      <polygon points="106.37 56.87 81.5 56.87 81.5 64.53 75.13 64.53 75.13 75.13 112.69 75.13 112.69 64.53 106.37 64.53 106.37 56.87" style="fill: #1d1d1c; stroke-width: 0px;"/>
      <path d="m93.9,54.82c9.83,0,17.9-7.61,18.78-17.26h-37.56c.88,9.65,8.95,17.26,18.78,17.26Z" style="fill: #1d1d1c; stroke-width: 0px;"/>
      <polygon points="31.24 94.43 6.38 94.43 6.38 102.1 0 102.1 0 112.69 37.56 112.69 37.56 102.1 31.24 102.1 31.24 94.43" style="fill: #1d1d1c; stroke-width: 0px;"/>
      <path d="m18.78,92.38c9.83,0,17.9-7.61,18.78-17.26H0c.88,9.65,8.95,17.26,18.78,17.26Z" style="fill: #1d1d1c; stroke-width: 0px;"/>
      <polygon points="106.37 94.43 81.5 94.43 81.5 102.1 75.13 102.1 75.13 112.69 112.69 112.69 112.69 102.1 106.37 102.1 106.37 94.43" style="fill: #1d1d1c; stroke-width: 0px;"/>
      <path d="m93.9,92.38c9.83,0,17.9-7.61,18.78-17.26h-37.56c.88,9.65,8.95,17.26,18.78,17.26Z" style="fill: #1d1d1c; stroke-width: 0px;"/>
      <polygon points="31.24 131.99 6.38 131.99 6.38 139.66 0 139.66 0 150.25 37.56 150.25 37.56 139.66 31.24 139.66 31.24 131.99" style="fill: #1d1d1c; stroke-width: 0px;"/>
      <path d="m18.78,129.95c9.83,0,17.9-7.61,18.78-17.26H0c.88,9.65,8.95,17.26,18.78,17.26Z" style="fill: #1d1d1c; stroke-width: 0px;"/>
      <polygon points="106.37 131.99 81.5 131.99 81.5 139.66 75.13 139.66 75.13 150.25 112.69 150.25 112.69 139.66 106.37 139.66 106.37 131.99" style="fill: #1d1d1c; stroke-width: 0px;"/>
      <path d="m93.9,129.95c9.83,0,17.9-7.61,18.78-17.26h-37.56c.88,9.65,8.95,17.26,18.78,17.26Z" style="fill: #1d1d1c; stroke-width: 0px;"/>
      <polygon points="68.8 169.56 43.94 169.56 43.94 177.22 37.56 177.22 37.56 187.81 75.13 187.81 75.13 177.22 68.8 177.22 68.8 169.56" style="fill: #1d1d1c; stroke-width: 0px;"/>
      <path d="m56.34,167.51c9.83,0,17.9-7.61,18.78-17.26h-37.56c.88,9.65,8.95,17.26,18.78,17.26Z" style="fill: #1d1d1c; stroke-width: 0px;"/>
      <polygon points="180.71 19.28 155.88 19.28 155.88 26.93 149.52 26.93 149.52 37.51 187.02 37.51 187.02 26.93 180.71 26.93 180.71 19.28" style="fill: #1d1d1c; stroke-width: 0px;"/>
      <path d="m168.27,17.23c9.81,0,17.88-7.59,18.75-17.23h-37.51c.88,9.64,8.94,17.23,18.75,17.23Z" style="fill: #1d1d1c; stroke-width: 0px;"/>
      <polygon points="218.22 19.28 193.39 19.28 193.39 26.93 187.02 26.93 187.02 37.51 224.53 37.51 224.53 26.93 218.22 26.93 218.22 19.28" style="fill: #1d1d1c; stroke-width: 0px;"/>
      <path d="m205.78,17.23c9.81,0,17.88-7.59,18.75-17.23h-37.51c.88,9.64,8.94,17.23,18.75,17.23Z" style="fill: #1d1d1c; stroke-width: 0px;"/>
      <polygon points="180.71 56.78 155.88 56.78 155.88 64.44 149.52 64.44 149.52 75.01 187.02 75.01 187.02 64.44 180.71 64.44 180.71 56.78" style="fill: #1d1d1c; stroke-width: 0px;"/>
      <path d="m168.27,54.74c9.81,0,17.88-7.59,18.75-17.23h-37.51c.88,9.64,8.94,17.23,18.75,17.23Z" style="fill: #1d1d1c; stroke-width: 0px;"/>
      <polygon points="255.72 56.78 230.9 56.78 230.9 64.44 224.53 64.44 224.53 75.01 262.03 75.01 262.03 64.44 255.72 64.44 255.72 56.78" style="fill: #1d1d1c; stroke-width: 0px;"/>
      <path d="m243.28,54.74c9.81,0,17.88-7.59,18.75-17.23h-37.51c.88,9.64,8.94,17.23,18.75,17.23Z" style="fill: #1d1d1c; stroke-width: 0px;"/>
      <polygon points="180.71 94.29 155.88 94.29 155.88 101.94 149.52 101.94 149.52 112.52 187.02 112.52 187.02 101.94 180.71 101.94 180.71 94.29" style="fill: #1d1d1c; stroke-width: 0px;"/>
      <path d="m168.27,92.25c9.81,0,17.88-7.6,18.75-17.24h-37.51c.88,9.64,8.94,17.24,18.75,17.24Z" style="fill: #1d1d1c; stroke-width: 0px;"/>
      <polygon points="255.72 94.29 230.9 94.29 230.9 101.94 224.53 101.94 224.53 112.52 262.03 112.52 262.03 101.94 255.72 101.94 255.72 94.29" style="fill: #1d1d1c; stroke-width: 0px;"/>
      <path d="m243.28,92.25c9.81,0,17.88-7.6,18.75-17.24h-37.51c.88,9.64,8.94,17.24,18.75,17.24Z" style="fill: #1d1d1c; stroke-width: 0px;"/>
      <polygon points="180.71 131.79 155.88 131.79 155.88 139.45 149.52 139.45 149.52 150.02 187.02 150.02 187.02 139.45 180.71 139.45 180.71 131.79" style="fill: #1d1d1c; stroke-width: 0px;"/>
      <path d="m168.27,129.75c9.81,0,17.88-7.6,18.75-17.24h-37.51c.88,9.64,8.94,17.24,18.75,17.24Z" style="fill: #1d1d1c; stroke-width: 0px;"/>
      <polygon points="255.72 131.79 230.9 131.79 230.9 139.45 224.53 139.45 224.53 150.02 262.03 150.02 262.03 139.45 255.72 139.45 255.72 131.79" style="fill: #1d1d1c; stroke-width: 0px;"/>
      <path d="m243.28,129.75c9.81,0,17.88-7.6,18.75-17.24h-37.51c.88,9.64,8.94,17.24,18.75,17.24Z" style="fill: #1d1d1c; stroke-width: 0px;"/>
      <polygon points="180.71 169.3 155.88 169.3 155.88 176.96 149.52 176.96 149.52 187.53 187.02 187.53 187.02 176.96 180.71 176.96 180.71 169.3" style="fill: #1d1d1c; stroke-width: 0px;"/>
      <path d="m168.27,167.26c9.81,0,17.88-7.6,18.75-17.24h-37.51c.88,9.64,8.94,17.24,18.75,17.24Z" style="fill: #1d1d1c; stroke-width: 0px;"/>
      <polygon points="218.22 169.3 193.39 169.3 193.39 176.96 187.02 176.96 187.02 187.53 224.53 187.53 224.53 176.96 218.22 176.96 218.22 169.3" style="fill: #1d1d1c; stroke-width: 0px;"/>
      <path d="m205.78,167.26c9.81,0,17.88-7.6,18.75-17.24h-37.51c.88,9.64,8.94,17.24,18.75,17.24Z" style="fill: #1d1d1c; stroke-width: 0px;"/>
      <polygon points="180.71 206.81 155.88 206.81 155.88 214.46 149.52 214.46 149.52 225.03 187.02 225.03 187.02 214.46 180.71 214.46 180.71 206.81" style="fill: #1d1d1c; stroke-width: 0px;"/>
      <path d="m168.27,204.76c9.81,0,17.88-7.59,18.75-17.23h-37.51c.88,9.64,8.94,17.23,18.75,17.23Z" style="fill: #1d1d1c; stroke-width: 0px;"/>
      <polygon points="180.71 244.31 155.88 244.31 155.88 251.97 149.52 251.97 149.52 262.54 187.02 262.54 187.02 251.97 180.71 251.97 180.71 244.31" style="fill: #1d1d1c; stroke-width: 0px;"/>
      <path d="m168.27,242.27c9.81,0,17.88-7.59,18.75-17.23h-37.51c.88,9.64,8.94,17.23,18.75,17.23Z" style="fill: #1d1d1c; stroke-width: 0px;"/>
    </g>
    <g>
      <g>
        <polygon points="64.43 337.39 64.43 343.69 56.78 343.69 56.78 368.52 64.43 368.52 64.43 374.89 75 374.89 75 337.39 64.43 337.39" style="fill: #1d1d1c; stroke-width: 0px;"/>
        <path d="m37.5,374.89c9.64-.88,17.23-8.94,17.23-18.75s-7.59-17.87-17.23-18.75v37.5Z" style="fill: #1d1d1c; stroke-width: 0px;"/>
      </g>
      <g>
        <polygon points="101.93 337.39 101.93 343.69 94.28 343.69 94.28 368.52 101.93 368.52 101.93 374.89 112.5 374.89 112.5 337.39 101.93 337.39" style="fill: #1d1d1c; stroke-width: 0px;"/>
        <path d="m75,374.89c9.64-.88,17.23-8.94,17.23-18.75s-7.59-17.87-17.23-18.75v37.5Z" style="fill: #1d1d1c; stroke-width: 0px;"/>
      </g>
      <g>
        <polygon points="176.93 337.39 176.93 343.69 169.28 343.69 169.28 368.52 176.93 368.52 176.93 374.89 187.5 374.89 187.5 337.39 176.93 337.39" style="fill: #1d1d1c; stroke-width: 0px;"/>
        <path d="m150,374.89c9.64-.88,17.23-8.94,17.23-18.75s-7.59-17.87-17.23-18.75v37.5Z" style="fill: #1d1d1c; stroke-width: 0px;"/>
      </g>
      <g>
        <polygon points="214.43 337.39 214.43 343.69 206.78 343.69 206.78 368.52 214.43 368.52 214.43 374.89 225 374.89 225 337.39 214.43 337.39" style="fill: #1d1d1c; stroke-width: 0px;"/>
        <path d="m187.5,374.89c9.64-.88,17.23-8.94,17.23-18.75s-7.59-17.87-17.23-18.75v37.5Z" style="fill: #1d1d1c; stroke-width: 0px;"/>
      </g>
      <g>
        <polygon points="326.93 262.39 326.93 268.69 319.28 268.69 319.28 293.52 326.93 293.52 326.93 299.89 337.5 299.89 337.5 262.39 326.93 262.39" style="fill: #1d1d1c; stroke-width: 0px;"/>
        <path d="m300,299.89c9.64-.88,17.23-8.94,17.23-18.75s-7.59-17.87-17.23-18.75v37.5Z" style="fill: #1d1d1c; stroke-width: 0px;"/>
      </g>
      <g>
        <polygon points="401.93 262.39 401.93 268.69 394.28 268.69 394.28 293.52 401.93 293.52 401.93 299.89 412.5 299.89 412.5 262.39 401.93 262.39" style="fill: #1d1d1c; stroke-width: 0px;"/>
        <path d="m375,299.89c9.64-.88,17.23-8.94,17.23-18.75s-7.59-17.87-17.23-18.75v37.5Z" style="fill: #1d1d1c; stroke-width: 0px;"/>
      </g>
      <g>
        <polygon points="326.93 299.89 326.93 306.19 319.28 306.19 319.28 331.02 326.93 331.02 326.93 337.39 337.5 337.39 337.5 299.89 326.93 299.89" style="fill: #1d1d1c; stroke-width: 0px;"/>
        <path d="m300,337.39c9.64-.88,17.23-8.94,17.23-18.75s-7.59-17.87-17.23-18.75v37.5Z" style="fill: #1d1d1c; stroke-width: 0px;"/>
      </g>
      <g>
        <polygon points="401.93 299.89 401.93 306.19 394.28 306.19 394.28 331.02 401.93 331.02 401.93 337.39 412.5 337.39 412.5 299.89 401.93 299.89" style="fill: #1d1d1c; stroke-width: 0px;"/>
        <path d="m375,337.39c9.64-.88,17.23-8.94,17.23-18.75s-7.59-17.87-17.23-18.75v37.5Z" style="fill: #1d1d1c; stroke-width: 0px;"/>
      </g>
      <g>
        <polygon points="326.93 337.39 326.93 343.69 319.28 343.69 319.28 368.52 326.93 368.52 326.93 374.89 337.5 374.89 337.5 337.39 326.93 337.39" style="fill: #1d1d1c; stroke-width: 0px;"/>
        <path d="m300,374.89c9.64-.88,17.23-8.94,17.23-18.75s-7.59-17.87-17.23-18.75v37.5Z" style="fill: #1d1d1c; stroke-width: 0px;"/>
      </g>
      <g>
        <polygon points="401.93 337.39 401.93 343.69 394.28 343.69 394.28 368.52 401.93 368.52 401.93 374.89 412.5 374.89 412.5 337.39 401.93 337.39" style="fill: #1d1d1c; stroke-width: 0px;"/>
        <path d="m375,374.89c9.64-.88,17.23-8.94,17.23-18.75s-7.59-17.87-17.23-18.75v37.5Z" style="fill: #1d1d1c; stroke-width: 0px;"/>
      </g>
      <g>
        <polygon points="26.93 374.89 26.93 381.19 19.28 381.19 19.28 406.02 26.93 406.02 26.93 412.39 37.5 412.39 37.5 374.89 26.93 374.89" style="fill: #1d1d1c; stroke-width: 0px;"/>
        <path d="m0,412.39c9.64-.88,17.23-8.94,17.23-18.75s-7.59-17.87-17.23-18.75v37.5Z" style="fill: #1d1d1c; stroke-width: 0px;"/>
      </g>
      <g>
        <polygon points="251.93 374.89 251.93 381.19 244.28 381.19 244.28 406.02 251.93 406.02 251.93 412.39 262.5 412.39 262.5 374.89 251.93 374.89" style="fill: #1d1d1c; stroke-width: 0px;"/>
        <path d="m225,412.39c9.64-.88,17.23-8.94,17.23-18.75s-7.59-17.87-17.23-18.75v37.5Z" style="fill: #1d1d1c; stroke-width: 0px;"/>
      </g>
      <g>
        <polygon points="26.93 412.39 26.93 418.69 19.28 418.69 19.28 443.52 26.93 443.52 26.93 449.89 37.5 449.89 37.5 412.39 26.93 412.39" style="fill: #1d1d1c; stroke-width: 0px;"/>
        <path d="m0,449.89c9.64-.88,17.23-8.94,17.23-18.75s-7.59-17.87-17.23-18.75v37.5Z" style="fill: #1d1d1c; stroke-width: 0px;"/>
      </g>
      <g>
        <polygon points="176.93 412.39 176.93 418.69 169.28 418.69 169.28 443.52 176.93 443.52 176.93 449.89 187.5 449.89 187.5 412.39 176.93 412.39" style="fill: #1d1d1c; stroke-width: 0px;"/>
        <path d="m150,449.89c9.64-.88,17.23-8.94,17.23-18.75s-7.59-17.87-17.23-18.75v37.5Z" style="fill: #1d1d1c; stroke-width: 0px;"/>
      </g>
      <g>
        <polygon points="214.43 412.39 214.43 418.69 206.78 418.69 206.78 443.52 214.43 443.52 214.43 449.89 225 449.89 225 412.39 214.43 412.39" style="fill: #1d1d1c; stroke-width: 0px;"/>
        <path d="m187.5,449.89c9.64-.88,17.23-8.94,17.23-18.75s-7.59-17.87-17.23-18.75v37.5Z" style="fill: #1d1d1c; stroke-width: 0px;"/>
      </g>
      <g>
        <polygon points="251.93 412.39 251.93 418.69 244.28 418.69 244.28 443.52 251.93 443.52 251.93 449.89 262.5 449.89 262.5 412.39 251.93 412.39" style="fill: #1d1d1c; stroke-width: 0px;"/>
        <path d="m225,449.89c9.64-.88,17.23-8.94,17.23-18.75s-7.59-17.87-17.23-18.75v37.5Z" style="fill: #1d1d1c; stroke-width: 0px;"/>
      </g>
      <g>
        <polygon points="26.93 449.89 26.93 456.19 19.28 456.19 19.28 481.02 26.93 481.02 26.93 487.39 37.5 487.39 37.5 449.89 26.93 449.89" style="fill: #1d1d1c; stroke-width: 0px;"/>
        <path d="m0,487.39c9.64-.88,17.23-8.94,17.23-18.75s-7.59-17.87-17.23-18.75v37.5Z" style="fill: #1d1d1c; stroke-width: 0px;"/>
      </g>
      <g>
        <polygon points="176.93 449.89 176.93 456.19 169.28 456.19 169.28 481.02 176.93 481.02 176.93 487.39 187.5 487.39 187.5 449.89 176.93 449.89" style="fill: #1d1d1c; stroke-width: 0px;"/>
        <path d="m150,487.39c9.64-.88,17.23-8.94,17.23-18.75s-7.59-17.87-17.23-18.75v37.5Z" style="fill: #1d1d1c; stroke-width: 0px;"/>
      </g>
      <g>
        <polygon points="251.93 449.89 251.93 456.19 244.28 456.19 244.28 481.02 251.93 481.02 251.93 487.39 262.5 487.39 262.5 449.89 251.93 449.89" style="fill: #1d1d1c; stroke-width: 0px;"/>
        <path d="m225,487.39c9.64-.88,17.23-8.94,17.23-18.75s-7.59-17.87-17.23-18.75v37.5Z" style="fill: #1d1d1c; stroke-width: 0px;"/>
      </g>
      <g>
        <polygon points="64.43 487.39 64.43 493.69 56.78 493.69 56.78 518.52 64.43 518.52 64.43 524.89 75 524.89 75 487.39 64.43 487.39" style="fill: #1d1d1c; stroke-width: 0px;"/>
        <path d="m37.5,524.89c9.64-.88,17.23-8.94,17.23-18.75s-7.59-17.87-17.23-18.75v37.5Z" style="fill: #1d1d1c; stroke-width: 0px;"/>
      </g>
      <g>
        <polygon points="101.93 487.39 101.93 493.69 94.28 493.69 94.28 518.52 101.93 518.52 101.93 524.89 112.5 524.89 112.5 487.39 101.93 487.39" style="fill: #1d1d1c; stroke-width: 0px;"/>
        <path d="m75,524.89c9.64-.88,17.23-8.94,17.23-18.75s-7.59-17.87-17.23-18.75v37.5Z" style="fill: #1d1d1c; stroke-width: 0px;"/>
      </g>
      <g>
        <polygon points="214.43 487.39 214.43 493.69 206.78 493.69 206.78 518.52 214.43 518.52 214.43 524.89 225 524.89 225 487.39 214.43 487.39" style="fill: #1d1d1c; stroke-width: 0px;"/>
        <path d="m187.5,524.89c9.64-.88,17.23-8.94,17.23-18.75s-7.59-17.87-17.23-18.75v37.5Z" style="fill: #1d1d1c; stroke-width: 0px;"/>
      </g>
      <g>
        <polygon points="251.93 487.39 251.93 493.69 244.28 493.69 244.28 518.52 251.93 518.52 251.93 524.89 262.5 524.89 262.5 487.39 251.93 487.39" style="fill: #1d1d1c; stroke-width: 0px;"/>
        <path d="m225,524.89c9.64-.88,17.23-8.94,17.23-18.75s-7.59-17.87-17.23-18.75v37.5Z" style="fill: #1d1d1c; stroke-width: 0px;"/>
      </g>
      <g>
        <polygon points="326.93 374.89 326.93 381.19 319.28 381.19 319.28 406.02 326.93 406.02 326.93 412.39 337.5 412.39 337.5 374.89 326.93 374.89" style="fill: #1d1d1c; stroke-width: 0px;"/>
        <path d="m300,412.39c9.64-.88,17.23-8.94,17.23-18.75s-7.59-17.87-17.23-18.75v37.5Z" style="fill: #1d1d1c; stroke-width: 0px;"/>
      </g>
      <g>
        <polygon points="401.93 374.89 401.93 381.19 394.28 381.19 394.28 406.02 401.93 406.02 401.93 412.39 412.5 412.39 412.5 374.89 401.93 374.89" style="fill: #1d1d1c; stroke-width: 0px;"/>
        <path d="m375,412.39c9.64-.88,17.23-8.94,17.23-18.75s-7.59-17.87-17.23-18.75v37.5Z" style="fill: #1d1d1c; stroke-width: 0px;"/>
      </g>
      <g>
        <polygon points="326.93 412.39 326.93 418.69 319.28 418.69 319.28 443.52 326.93 443.52 326.93 449.89 337.5 449.89 337.5 412.39 326.93 412.39" style="fill: #1d1d1c; stroke-width: 0px;"/>
        <path d="m300,449.89c9.64-.88,17.23-8.94,17.23-18.75s-7.59-17.87-17.23-18.75v37.5Z" style="fill: #1d1d1c; stroke-width: 0px;"/>
      </g>
      <g>
        <polygon points="401.93 412.39 401.93 418.69 394.28 418.69 394.28 443.52 401.93 443.52 401.93 449.89 412.5 449.89 412.5 412.39 401.93 412.39" style="fill: #1d1d1c; stroke-width: 0px;"/>
        <path d="m375,449.89c9.64-.88,17.23-8.94,17.23-18.75s-7.59-17.87-17.23-18.75v37.5Z" style="fill: #1d1d1c; stroke-width: 0px;"/>
      </g>
      <g>
        <polygon points="326.93 449.89 326.93 456.19 319.28 456.19 319.28 481.02 326.93 481.02 326.93 487.39 337.5 487.39 337.5 449.89 326.93 449.89" style="fill: #1d1d1c; stroke-width: 0px;"/>
        <path d="m300,487.39c9.64-.88,17.23-8.94,17.23-18.75s-7.59-17.87-17.23-18.75v37.5Z" style="fill: #1d1d1c; stroke-width: 0px;"/>
      </g>
      <g>
        <polygon points="401.93 449.89 401.93 456.19 394.28 456.19 394.28 481.02 401.93 481.02 401.93 487.39 412.5 487.39 412.5 449.89 401.93 449.89" style="fill: #1d1d1c; stroke-width: 0px;"/>
        <path d="m375,487.39c9.64-.88,17.23-8.94,17.23-18.75s-7.59-17.87-17.23-18.75v37.5Z" style="fill: #1d1d1c; stroke-width: 0px;"/>
      </g>
      <g>
        <polygon points="326.93 487.39 326.93 493.69 319.28 493.69 319.28 518.52 326.93 518.52 326.93 524.89 337.5 524.89 337.5 487.39 326.93 487.39" style="fill: #1d1d1c; stroke-width: 0px;"/>
        <path d="m300,524.89c9.64-.88,17.23-8.94,17.23-18.75s-7.59-17.87-17.23-18.75v37.5Z" style="fill: #1d1d1c; stroke-width: 0px;"/>
      </g>
      <g>
        <polygon points="401.93 487.39 401.93 493.69 394.28 493.69 394.28 518.52 401.93 518.52 401.93 524.89 412.5 524.89 412.5 487.39 401.93 487.39" style="fill: #1d1d1c; stroke-width: 0px;"/>
        <path d="m375,524.89c9.64-.88,17.23-8.94,17.23-18.75s-7.59-17.87-17.23-18.75v37.5Z" style="fill: #1d1d1c; stroke-width: 0px;"/>
      </g>
    </g>
  </g>
</svg>